<?xml version="1.0" standalone="no"?>
<!DOCTYPE svg PUBLIC "-//W3C//DTD SVG 20010904//EN"
 "http://www.w3.org/TR/2001/REC-SVG-20010904/DTD/svg10.dtd">
<svg version="1.0" xmlns="http://www.w3.org/2000/svg"
 width="5001.000000pt" height="5001.000000pt" viewBox="0 0 5001.000000 5001.000000"
 preserveAspectRatio="xMidYMid meet">

<g transform="translate(0.000000,5001.000000) scale(0.100000,-0.100000)"
fill="#000000" stroke="none">
<path d="M7710 30323 c-36 -2 -139 -10 -230 -18 -1190 -109 -2284 -566 -3221
-1346 -163 -136 -557 -530 -693 -694 -619 -745 -1033 -1582 -1235 -2495 -151
-685 -176 -1438 -70 -2140 308 -2041 1698 -3780 3624 -4535 487 -191 1061
-330 1528 -371 l77 -7 0 3317 0 3316 2309 0 c2293 0 2309 0 2375 -20 84 -26
172 -104 206 -182 28 -64 31 -149 6 -196 -9 -18 -90 -146 -180 -285 -309 -477
-1626 -2542 -3174 -4977 l-620 -975 31 -3 c46 -5 319 26 522 59 2119 347 3882
1850 4565 3889 141 420 227 820 275 1285 22 212 31 698 16 925 -60 921 -324
1792 -782 2575 -1050 1799 -2987 2902 -5059 2883 -113 -1 -234 -3 -270 -5z
m-2376 -1833 c126 -19 200 -68 274 -183 22 -34 454 -700 961 -1479 507 -780
921 -1420 921 -1423 0 -11 -2246 -5 -2306 6 -87 16 -162 55 -224 118 -62 62
-96 126 -111 206 -6 32 -8 508 -7 1256 l3 1204 23 58 c49 120 169 213 303 236
74 12 84 12 163 1z"/>
<path d="M34500 29914 c-310 -21 -581 -57 -826 -110 -1880 -403 -3267 -1825
-3615 -3703 -58 -314 -82 -590 -82 -936 1 -281 10 -425 43 -683 105 -799 418
-1573 889 -2197 437 -578 987 -1033 1636 -1350 585 -287 1184 -446 1873 -496
205 -15 705 -7 892 15 805 91 1473 328 2095 741 934 622 1587 1570 1870 2719
38 156 95 444 95 483 0 11 -247 13 -1270 13 l-1269 0 -11 -42 c-55 -211 -186
-505 -307 -688 -341 -516 -851 -832 -1468 -910 -118 -15 -404 -15 -530 0 -860
102 -1535 667 -1816 1522 -254 769 -148 1684 268 2323 174 267 416 506 671
664 241 150 522 251 824 298 156 24 480 23 637 -1 437 -67 823 -256 1134 -556
135 -129 217 -228 319 -380 77 -116 202 -361 247 -485 l29 -80 1260 -3 1259
-2 -18 107 c-11 60 -40 191 -64 292 -513 2097 -2306 3466 -4515 3449 -113 -1
-225 -3 -250 -4z"/>
<path d="M43515 29903 c-706 -18 -1344 -161 -1845 -412 -812 -408 -1289 -1088
-1402 -2001 -20 -161 -17 -653 5 -810 121 -862 566 -1454 1392 -1851 396 -190
694 -285 1610 -515 745 -187 987 -270 1202 -410 212 -137 307 -298 307 -519 0
-121 -14 -185 -64 -290 -112 -232 -344 -387 -691 -462 -125 -27 -419 -24 -549
4 -465 102 -752 411 -777 836 l-6 97 -1285 0 -1285 0 7 -142 c33 -684 219
-1246 570 -1716 498 -668 1317 -1099 2341 -1232 527 -68 1143 -57 1664 31 777
130 1410 426 1870 874 216 210 358 401 489 655 216 418 314 851 315 1385 0
362 -38 620 -133 905 -276 829 -932 1359 -2149 1735 -204 63 -467 134 -1027
279 -688 178 -969 297 -1146 485 -75 79 -112 147 -133 246 -18 88 -18 132 0
220 56 266 298 441 678 491 204 27 428 6 599 -56 212 -78 354 -201 443 -385
50 -103 73 -189 82 -304 l6 -81 1245 0 1245 0 -6 168 c-32 888 -394 1628
-1034 2109 -461 347 -1048 558 -1776 638 -129 14 -566 37 -632 33 -16 -1 -75
-3 -130 -5z"/>
<path d="M15080 25170 l0 -4520 2870 0 2870 0 0 1140 0 1140 -1610 0 -1610 0
0 3380 0 3380 -1260 0 -1260 0 0 -4520z"/>
<path d="M24606 29682 c-6 -9 -3546 -9022 -3546 -9028 0 -2 600 -4 1333 -4
l1333 0 250 733 249 732 1605 0 1605 0 142 -420 c78 -231 190 -561 249 -732
l106 -313 1370 0 c1301 0 1370 1 1364 18 -3 9 -819 2043 -1813 4520 l-1807
4502 -1217 0 c-670 0 -1220 -3 -1223 -8z m1720 -4213 c268 -750 489 -1372 492
-1381 4 -17 -48 -18 -987 -18 -545 0 -991 4 -991 8 0 7 920 2615 966 2741 12
32 19 40 25 29 4 -8 227 -628 495 -1379z"/>
<path d="M32555 19798 c-87 -31 -126 -93 -133 -210 l-5 -78 -83 0 -84 0 0 -40
0 -39 83 -3 82 -3 3 -362 2 -363 45 0 45 0 0 365 0 365 135 0 135 0 0 40 0 40
-140 0 -141 0 7 63 c13 121 56 157 192 157 l82 0 0 40 0 40 -97 -1 c-54 0
-111 -5 -128 -11z"/>
<path d="M17700 19700 l0 -60 55 0 55 0 0 60 0 60 -55 0 -55 0 0 -60z"/>
<path d="M24030 19700 l0 -60 55 0 55 0 0 60 0 60 -55 0 -55 0 0 -60z"/>
<path d="M31890 19700 l0 -60 55 0 55 0 0 60 0 60 -55 0 -55 0 0 -60z"/>
<path d="M33020 19700 l0 -60 55 0 55 0 0 60 0 60 -55 0 -55 0 0 -60z"/>
<path d="M36330 19700 l0 -60 55 0 55 0 0 60 0 60 -55 0 -55 0 0 -60z"/>
<path d="M28580 19734 c-87 -23 -157 -62 -224 -125 -108 -101 -159 -226 -159
-389 0 -313 214 -530 523 -530 156 0 264 43 365 145 56 57 105 137 120 198 7
26 6 27 -36 27 -44 0 -44 0 -78 -65 -42 -81 -121 -156 -199 -187 -82 -33 -261
-33 -343 0 -163 65 -261 218 -262 407 0 189 86 331 247 406 58 27 83 33 165
37 80 3 107 1 160 -18 108 -36 189 -104 234 -196 20 -43 22 -44 69 -44 l48 0
-24 55 c-66 149 -172 239 -331 280 -73 19 -202 18 -275 -1z"/>
<path d="M39660 19741 c-111 -34 -170 -122 -157 -233 6 -51 42 -128 91 -196
l31 -44 -30 -21 c-68 -47 -152 -142 -168 -192 -54 -156 23 -305 180 -351 40
-12 80 -15 142 -12 103 6 180 33 240 85 l43 36 57 -57 c56 -55 57 -56 116 -56
l60 0 -90 90 -89 90 13 32 c26 66 38 114 45 181 l8 67 -46 0 -46 0 0 -48 c0
-61 -27 -155 -43 -149 -14 4 -257 268 -257 278 0 4 29 28 63 52 132 94 179
180 162 293 -9 63 -79 135 -147 152 -52 13 -139 14 -178 3z m185 -95 c92 -61
72 -172 -47 -267 -83 -65 -95 -68 -123 -33 -46 55 -85 144 -85 193 0 57 20 87
74 112 49 23 142 20 181 -5z m18 -649 c107 -115 109 -118 91 -138 -9 -11 -47
-34 -83 -52 -58 -28 -75 -32 -146 -32 -142 1 -227 71 -227 186 1 77 48 146
147 217 l30 22 39 -43 c22 -23 89 -95 149 -160z"/>
<path d="M41181 19740 c-139 -30 -227 -121 -238 -249 -8 -85 11 -138 67 -192
53 -52 101 -71 282 -113 173 -41 226 -74 248 -156 44 -165 -153 -295 -357
-235 -103 31 -161 98 -171 198 l-5 47 -44 0 -45 0 4 -59 c6 -84 49 -165 113
-213 75 -57 132 -73 255 -73 94 0 111 3 167 29 69 32 133 93 159 153 25 59 24
177 -4 230 -44 85 -116 123 -314 168 -194 44 -268 97 -268 190 0 66 36 122
100 159 50 28 63 31 145 31 73 0 98 -4 130 -22 70 -37 115 -105 115 -173 0
-29 2 -30 45 -30 44 0 45 1 45 33 0 18 -7 57 -16 87 -21 70 -98 149 -169 174
-59 21 -183 29 -244 16z"/>
<path d="M15100 19220 l0 -520 285 0 285 0 0 45 0 45 -245 0 -245 0 0 475 0
475 -40 0 -40 0 0 -520z"/>
<path d="M19827 19228 c-119 -282 -217 -517 -217 -521 0 -4 21 -7 47 -5 l46 3
61 143 60 142 260 -2 259 -3 61 -142 61 -143 48 0 c42 0 48 2 43 18 -3 9 -104
242 -224 517 l-218 500 -35 3 -34 3 -218 -513z m363 110 c58 -133 107 -245
108 -250 2 -4 -95 -8 -216 -8 l-220 0 106 250 c59 138 109 250 112 250 3 0 52
-109 110 -242z"/>
<path d="M17080 19620 l0 -110 -90 0 -90 0 0 -40 0 -39 88 -3 87 -3 5 -285 c5
-310 6 -315 67 -371 53 -50 91 -63 201 -67 l103 -4 -3 43 -3 44 -90 5 c-106 6
-144 23 -171 77 -17 34 -19 63 -19 298 l0 260 138 3 137 3 0 39 0 40 -140 0
-140 0 0 110 0 110 -40 0 -40 0 0 -110z"/>
<path d="M31270 19620 l0 -110 -85 0 -85 0 0 -40 0 -40 85 0 85 0 0 -239 c0
-285 4 -316 44 -383 46 -77 99 -102 234 -106 l103 -4 -3 43 -3 44 -95 5 c-107
6 -138 19 -167 73 -16 28 -18 62 -18 297 l0 265 138 3 137 3 0 39 0 40 -140 0
-140 0 0 110 0 110 -45 0 -45 0 0 -110z"/>
<path d="M35710 19620 l0 -110 -90 0 -90 0 0 -40 0 -39 88 -3 87 -3 5 -280 c5
-266 6 -282 27 -322 45 -83 130 -123 265 -123 l78 0 0 44 0 44 -94 4 c-107 3
-138 18 -168 79 -16 30 -18 66 -18 297 l0 262 140 0 140 0 0 40 0 40 -140 0
-140 0 0 110 0 110 -45 0 -45 0 0 -110z"/>
<path d="M43790 19620 l0 -110 -90 0 -90 0 0 -40 0 -39 88 -3 87 -3 5 -280 c5
-262 6 -283 27 -320 47 -88 103 -117 241 -123 l102 -5 0 46 0 45 -94 4 c-107
3 -138 18 -168 79 -16 30 -18 66 -18 297 l0 262 135 0 135 0 0 40 0 40 -135 0
-135 0 0 110 0 110 -45 0 -45 0 0 -110z"/>
<path d="M16092 19502 c-168 -60 -272 -211 -272 -396 0 -171 89 -314 238 -384
51 -24 68 -27 172 -27 104 0 121 3 172 27 32 15 80 48 108 74 l50 47 0 -72 0
-71 40 0 40 0 0 405 0 405 -40 0 -40 0 0 -70 0 -70 -41 41 c-23 23 -71 55
-107 72 -59 28 -79 32 -167 34 -78 3 -112 -1 -153 -15z m260 -87 c137 -48 225
-212 197 -369 -21 -115 -82 -197 -181 -241 -159 -72 -344 -7 -426 150 -24 44
-27 61 -27 150 0 90 3 105 28 152 81 154 240 215 409 158z"/>
<path d="M18415 19503 c-46 -19 -115 -63 -135 -88 -18 -22 -30 -3 -30 53 l0
42 -40 0 -40 0 0 -405 0 -405 44 0 45 0 3 268 3 267 27 51 c87 165 312 204
421 74 50 -59 57 -109 57 -397 l0 -263 46 0 45 0 -3 293 c-3 290 -3 292 -29
347 -37 78 -71 114 -141 149 -54 28 -71 31 -147 30 -55 0 -100 -6 -126 -16z"/>
<path d="M21025 19497 c-27 -13 -64 -36 -81 -50 l-32 -27 -6 45 c-7 43 -9 45
-42 45 l-34 0 0 -405 0 -405 39 0 39 0 4 273 c3 259 4 274 26 322 28 61 55 91
104 116 114 58 229 21 282 -91 20 -42 21 -64 24 -332 l3 -288 44 0 44 0 3 283
c3 280 3 283 28 332 61 120 225 162 316 82 20 -16 45 -49 57 -71 21 -39 22
-55 25 -333 l3 -293 45 0 45 0 -3 298 c-3 279 -5 300 -26 352 -25 65 -81 126
-137 151 -49 22 -171 25 -228 5 -55 -20 -114 -64 -138 -102 l-20 -34 -33 42
c-17 24 -51 56 -75 73 -39 27 -51 30 -134 33 -80 2 -99 0 -142 -21z"/>
<path d="M22533 19505 c-122 -38 -221 -141 -258 -270 -26 -89 -18 -232 18
-309 76 -164 210 -243 396 -234 103 5 176 36 245 102 39 38 106 138 106 159 0
4 -20 7 -44 7 -40 0 -47 -4 -66 -35 -33 -53 -106 -112 -163 -131 -185 -61
-373 45 -416 235 l-9 41 360 0 361 0 -7 71 c-16 180 -120 320 -270 364 -61 18
-196 18 -253 0z m254 -95 c83 -35 154 -125 177 -222 l6 -28 -310 0 c-250 0
-310 3 -310 13 0 63 86 189 154 224 92 48 192 53 283 13z"/>
<path d="M24723 19506 c-207 -67 -325 -292 -267 -511 31 -121 101 -208 212
-263 74 -36 79 -37 186 -37 104 0 115 2 176 31 82 40 130 83 175 158 46 79 45
86 -10 86 -42 0 -46 -2 -64 -39 -28 -54 -103 -117 -164 -137 -162 -55 -341 21
-409 174 -32 70 -31 208 0 278 29 64 102 136 167 166 70 31 190 31 260 0 59
-27 119 -82 146 -134 18 -35 22 -38 65 -38 42 0 45 1 38 23 -27 88 -107 177
-199 223 -53 25 -72 29 -165 31 -68 2 -120 -2 -147 -11z"/>
<path d="M25743 19506 c-180 -58 -295 -235 -280 -430 14 -179 119 -318 280
-367 146 -45 318 -8 416 90 l41 41 0 -54 c0 -77 5 -86 51 -86 l39 0 0 405 0
405 -39 0 c-37 0 -39 -2 -45 -37 -3 -21 -6 -52 -6 -69 l0 -31 -44 42 c-24 24
-70 55 -102 71 -51 24 -73 28 -164 31 -69 2 -119 -2 -147 -11z m267 -97 c116
-50 200 -198 187 -328 -11 -96 -35 -151 -96 -212 -66 -65 -132 -93 -226 -93
-126 0 -237 69 -292 182 -24 50 -28 69 -28 147 0 107 22 165 88 233 96 99 238
127 367 71z"/>
<path d="M26930 19511 c-48 -15 -108 -51 -143 -84 l-36 -33 -6 58 -7 58 -39 0
-39 0 0 -405 0 -405 45 0 45 0 0 243 c0 272 7 316 63 388 17 23 57 56 87 73
97 55 229 39 296 -36 57 -62 59 -71 62 -380 l3 -288 45 0 45 0 -3 293 c-3 291
-3 292 -29 347 -34 74 -76 120 -136 150 -39 20 -65 25 -138 27 -49 1 -101 -1
-115 -6z"/>
<path d="M29713 19506 c-193 -63 -308 -260 -274 -468 23 -140 105 -254 226
-314 55 -27 69 -29 170 -29 100 0 116 3 170 28 71 33 145 102 186 173 16 28
29 54 29 58 0 3 -22 6 -48 6 -42 0 -50 -3 -60 -24 -19 -42 -78 -101 -125 -124
-93 -46 -209 -47 -297 -2 -76 40 -147 138 -164 228 l-5 32 353 0 c407 0 372
-11 355 108 -18 134 -102 253 -217 308 -48 24 -72 28 -157 31 -65 2 -115 -2
-142 -11z m250 -94 c24 -11 60 -34 82 -53 40 -35 95 -137 95 -176 l0 -23 -309
0 -309 0 10 40 c27 104 110 191 217 225 58 19 156 13 214 -13z"/>
<path d="M33703 19501 c-341 -126 -365 -620 -36 -773 160 -75 373 -36 483 88
30 35 80 124 80 144 0 5 -19 10 -43 10 -39 0 -44 -3 -62 -36 -29 -54 -108
-120 -168 -140 -77 -26 -171 -23 -238 8 -78 36 -124 80 -161 156 -28 56 -33
76 -33 141 0 109 25 172 94 242 69 68 133 94 236 93 50 0 85 -7 122 -23 53
-24 133 -99 155 -146 9 -21 18 -25 55 -25 25 0 43 5 43 11 0 27 -67 133 -107
170 -75 69 -140 93 -263 96 -84 3 -115 0 -157 -16z"/>
<path d="M34733 19506 c-183 -59 -299 -245 -279 -444 18 -171 123 -305 279
-353 144 -45 313 -9 414 87 l41 39 6 -35 c3 -19 6 -50 6 -67 0 -32 2 -33 40
-33 l40 0 0 405 0 405 -40 0 -40 0 0 -49 c0 -82 -6 -86 -57 -41 -25 22 -71 52
-102 67 -49 24 -70 28 -161 30 -68 2 -120 -2 -147 -11z m272 -100 c67 -30 121
-85 154 -155 36 -78 37 -210 2 -288 -93 -208 -383 -251 -537 -80 -133 148 -98
402 70 507 87 53 215 60 311 16z"/>
<path d="M37012 19500 c-72 -26 -112 -52 -162 -106 -63 -68 -101 -158 -107
-253 -13 -187 72 -337 235 -414 63 -30 74 -32 182 -32 109 0 119 2 182 32 333
158 308 654 -39 774 -76 26 -217 26 -291 -1z m270 -86 c65 -22 141 -92 175
-162 25 -50 28 -68 27 -147 -1 -106 -20 -160 -84 -228 -123 -135 -357 -135
-481 0 -65 71 -84 122 -84 228 0 73 5 100 23 140 25 54 91 128 134 151 85 44
194 51 290 18z"/>
<path d="M38123 19500 c-29 -12 -75 -41 -102 -66 l-51 -46 0 61 0 61 -40 0
-40 0 0 -405 0 -405 45 0 45 0 0 263 c0 242 2 265 21 307 95 211 377 226 466
25 15 -34 18 -78 21 -317 l4 -278 45 0 45 0 -4 283 c-4 265 -6 286 -27 341
-27 69 -77 127 -140 164 -39 23 -58 27 -141 29 -77 3 -105 -1 -147 -17z"/>
<path d="M42984 19504 c-53 -19 -117 -74 -138 -118 -18 -39 -21 -121 -5 -163
28 -74 96 -109 281 -143 135 -25 186 -50 212 -103 35 -72 -4 -150 -92 -184
-70 -27 -183 -24 -245 6 -50 24 -97 87 -97 129 0 19 -6 22 -46 22 l-47 0 7
-41 c13 -84 62 -147 146 -190 61 -31 216 -39 291 -15 67 22 118 57 149 103 22
32 25 47 25 124 0 82 -2 89 -31 125 -44 54 -106 82 -248 109 -137 26 -182 42
-210 73 -24 27 -25 92 -2 127 38 57 171 91 264 66 60 -17 110 -64 124 -117 12
-43 13 -44 55 -44 42 0 42 0 37 33 -18 101 -73 171 -159 200 -61 21 -213 21
-271 1z"/>
<path d="M44599 19497 c-69 -29 -105 -54 -152 -106 -186 -206 -118 -552 131
-669 51 -24 69 -27 167 -27 98 0 116 3 167 27 75 35 148 104 187 178 l32 60
-48 0 c-46 0 -49 -2 -77 -45 -102 -162 -343 -187 -481 -50 -38 39 -78 114 -90
173 l-7 32 356 0 356 0 0 58 c0 156 -88 295 -228 360 -48 23 -73 27 -157 30
-86 2 -108 -1 -156 -21z m274 -86 c66 -28 130 -96 156 -165 35 -94 61 -86
-289 -86 l-310 0 6 28 c47 197 252 302 437 223z"/>
<path d="M45667 19506 c-38 -14 -102 -58 -124 -86 -10 -12 -12 -6 -13 38 l0
52 -40 0 -40 0 0 -405 0 -405 45 0 45 0 0 269 c0 287 4 317 52 382 62 85 201
113 285 57 26 -17 49 -45 64 -75 23 -47 24 -56 27 -340 l3 -293 44 0 44 0 3
283 c3 267 4 284 25 323 87 163 300 179 374 27 23 -47 24 -56 27 -340 l3 -293
44 0 45 0 0 283 c0 314 -5 347 -63 433 -47 70 -116 104 -211 104 -104 0 -159
-22 -228 -91 -47 -46 -58 -54 -63 -39 -9 29 -76 91 -119 111 -49 22 -172 25
-229 5z"/>
<path d="M47050 19505 c-58 -18 -115 -66 -141 -118 -17 -32 -20 -54 -17 -102
7 -118 65 -160 275 -202 150 -29 201 -53 227 -106 60 -124 -96 -235 -278 -197
-75 15 -132 64 -149 127 -11 42 -12 43 -55 43 l-44 0 7 -42 c15 -86 60 -146
145 -189 55 -28 203 -38 277 -20 62 16 137 64 162 105 56 90 46 201 -24 271
-47 48 -94 66 -230 90 -180 32 -226 59 -227 134 -1 89 69 136 202 136 75 0 91
-3 131 -27 45 -26 79 -80 79 -123 0 -11 12 -15 45 -15 l46 0 -7 38 c-16 95
-76 167 -163 197 -56 19 -199 19 -261 0z"/>
<path d="M17710 19105 l0 -405 45 0 45 0 0 405 0 405 -45 0 -45 0 0 -405z"/>
<path d="M23360 19105 l0 -405 45 0 45 0 0 248 c0 284 7 327 67 393 52 57 100
79 193 86 l80 6 0 40 0 39 -92 -4 c-103 -4 -157 -24 -216 -78 -18 -16 -35 -30
-38 -30 -2 0 -4 25 -4 55 l0 55 -40 0 -40 0 0 -405z"/>
<path d="M24040 19105 l0 -405 45 0 45 0 0 405 0 405 -45 0 -45 0 0 -405z"/>
<path d="M30540 19105 l0 -405 44 0 45 0 3 273 3 272 27 52 c46 87 103 119
224 130 l74 6 0 38 0 39 -75 0 c-90 0 -164 -25 -223 -76 l-42 -36 0 56 0 56
-40 0 -40 0 0 -405z"/>
<path d="M31900 19105 l0 -405 45 0 45 0 0 405 0 405 -45 0 -45 0 0 -405z"/>
<path d="M33030 19105 l0 -405 45 0 45 0 0 405 0 405 -45 0 -45 0 0 -405z"/>
<path d="M36340 19105 l0 -405 45 0 45 0 0 405 0 405 -45 0 -45 0 0 -405z"/>
<path d="M42014 19137 l183 -373 -40 -80 c-70 -140 -91 -157 -202 -164 l-80
-5 -3 -44 -3 -44 90 5 c108 6 163 33 216 106 24 34 431 879 463 963 2 5 -18 9
-45 9 l-48 0 -150 -322 -150 -321 -157 321 -157 322 -50 0 -50 0 183 -373z"/>
</g>
</svg>
