<?xml version="1.0" standalone="no"?>
<!DOCTYPE svg PUBLIC "-//W3C//DTD SVG 20010904//EN"
 "http://www.w3.org/TR/2001/REC-SVG-20010904/DTD/svg10.dtd">
<svg version="1.0" xmlns="http://www.w3.org/2000/svg"
 width="4114.000000pt" height="1238.000000pt" viewBox="0 0 4114.000000 1238.000000"
 preserveAspectRatio="xMidYMid meet">

<g transform="translate(0.000000,1238.000000) scale(0.100000,-0.100000)"
fill="#000000" stroke="none">
<path d="M24580 12083 c-237 -10 -602 -54 -851 -103 -904 -179 -1761 -557
-2474 -1094 -307 -231 -613 -514 -844 -781 -58 -66 -107 -122 -111 -125 -17
-13 -236 -309 -311 -420 -46 -69 -87 -127 -90 -130 -9 -8 -164 -271 -215 -364
-41 -76 -176 -348 -194 -391 -8 -20 -41 -96 -65 -150 -35 -78 -45 -104 -45
-113 0 -5 -7 -23 -15 -38 -8 -16 -15 -36 -15 -44 0 -8 -7 -24 -15 -34 -8 -11
-15 -27 -15 -35 0 -9 -7 -29 -15 -45 -8 -15 -15 -36 -15 -45 0 -9 -7 -29 -15
-45 -8 -15 -15 -36 -15 -45 0 -9 -6 -28 -14 -42 -7 -14 -16 -43 -20 -65 -5
-21 -11 -43 -16 -49 -4 -5 -12 -30 -18 -55 -6 -25 -18 -70 -26 -100 -8 -30
-20 -75 -26 -100 -7 -25 -18 -65 -26 -90 -8 -25 -14 -57 -14 -71 0 -15 -7 -46
-15 -69 -8 -23 -15 -56 -15 -72 0 -16 -7 -57 -14 -91 -18 -74 -33 -185 -46
-322 -5 -55 -13 -131 -17 -170 -4 -38 -8 -297 -8 -575 0 -488 11 -769 36 -917
6 -34 14 -97 19 -140 10 -97 27 -200 46 -275 8 -32 14 -68 14 -82 0 -13 6 -46
14 -72 13 -46 22 -81 47 -194 5 -25 14 -52 19 -61 4 -9 11 -37 15 -63 4 -25
11 -48 15 -51 5 -3 11 -23 15 -46 4 -22 13 -53 21 -67 8 -15 14 -34 14 -43 0
-9 7 -30 15 -45 8 -16 15 -37 15 -46 0 -10 6 -32 14 -50 8 -18 22 -53 31 -78
9 -25 23 -57 31 -72 8 -14 14 -34 14 -43 0 -9 7 -29 15 -43 8 -15 24 -49 35
-77 12 -27 25 -59 30 -70 5 -11 18 -42 30 -70 56 -132 207 -419 312 -593 106
-177 272 -422 290 -430 5 -2 8 -9 8 -14 0 -6 7 -18 15 -27 13 -13 66 -80 93
-116 4 -5 27 -35 52 -65 25 -30 54 -66 65 -79 11 -14 34 -39 50 -56 17 -17 48
-51 69 -76 107 -121 460 -467 536 -524 14 -11 64 -52 111 -91 46 -39 103 -83
127 -99 23 -15 42 -32 42 -36 0 -5 7 -9 15 -9 8 0 15 -4 15 -8 0 -5 17 -20 38
-33 89 -60 137 -93 142 -99 9 -9 119 -80 126 -80 3 0 12 -7 20 -15 14 -14 225
-143 329 -200 84 -47 387 -200 445 -224 30 -13 83 -37 116 -52 34 -16 79 -35
100 -42 22 -8 95 -36 164 -62 121 -46 313 -110 415 -140 28 -8 73 -21 100 -29
272 -79 627 -147 975 -186 438 -49 1186 -35 1600 30 331 52 454 76 715 142
174 44 510 152 670 216 435 174 850 405 1200 668 43 32 99 74 124 93 162 120
306 244 441 380 164 165 341 365 475 538 283 365 488 690 680 1078 62 127 136
289 164 360 29 72 56 139 61 150 69 155 201 597 240 800 31 162 65 456 56 481
-5 12 -220 14 -1587 12 l-1582 -3 -14 -50 c-31 -112 -57 -190 -73 -217 -6 -10
-10 -23 -10 -30 -1 -7 -9 -31 -20 -53 -11 -22 -19 -46 -20 -53 0 -7 -4 -20
-10 -30 -5 -9 -17 -35 -26 -57 -22 -54 -83 -187 -94 -205 -5 -8 -21 -37 -35
-65 -14 -27 -35 -63 -45 -80 -11 -16 -23 -37 -27 -45 -11 -24 -81 -129 -140
-207 -61 -82 -235 -262 -308 -319 -27 -22 -52 -41 -55 -44 -15 -16 -116 -96
-148 -118 -83 -57 -119 -81 -162 -105 -46 -27 -247 -127 -310 -154 -19 -9 -48
-22 -63 -29 -16 -8 -35 -14 -42 -14 -8 0 -26 -5 -42 -12 -40 -16 -103 -35
-218 -63 -55 -13 -120 -30 -145 -36 -25 -6 -81 -15 -125 -19 -44 -5 -123 -14
-175 -20 -110 -14 -517 -8 -595 9 -27 6 -77 15 -110 20 -125 21 -181 32 -197
41 -9 5 -36 13 -60 16 -24 4 -47 10 -53 14 -5 4 -30 12 -55 18 -58 13 -105 29
-204 71 -27 12 -53 21 -58 21 -16 0 -280 130 -326 161 -24 16 -45 29 -47 29
-6 0 -154 100 -180 121 -152 124 -244 214 -326 319 -24 30 -46 57 -49 60 -32
28 -260 352 -260 368 0 4 -11 23 -24 42 -45 68 -196 384 -196 412 0 6 -6 24
-14 41 -34 77 -98 315 -129 482 -50 263 -69 495 -74 904 -6 412 -1 465 74 781
15 63 75 254 93 295 5 11 18 43 30 70 26 61 79 174 90 195 5 8 25 47 44 85 20
39 51 94 71 123 19 30 35 56 35 58 0 8 187 265 227 310 10 12 39 46 64 75 56
65 222 228 264 261 17 12 35 28 40 34 47 52 272 197 435 280 19 9 42 21 50 26
8 4 22 11 30 14 42 16 169 67 195 79 17 7 46 16 65 20 19 4 40 11 45 15 6 4
30 11 55 15 25 4 50 11 56 16 6 5 33 12 60 15 27 3 58 10 69 15 19 9 49 13
255 38 335 41 827 37 972 -7 18 -6 56 -16 83 -22 112 -25 140 -33 150 -41 5
-5 18 -9 28 -9 10 0 33 -6 50 -14 18 -7 59 -23 92 -36 92 -34 228 -98 325
-151 49 -27 238 -150 265 -171 6 -5 21 -18 35 -29 14 -12 43 -34 65 -50 100
-73 332 -337 455 -519 8 -12 30 -42 48 -66 17 -23 32 -45 32 -48 0 -3 19 -36
43 -73 23 -38 48 -77 54 -88 12 -20 97 -192 133 -270 77 -167 122 -254 136
-259 8 -3 713 -6 1565 -6 l1549 0 6 26 c21 84 -35 431 -113 699 -136 469 -459
1140 -791 1640 -118 178 -305 430 -413 557 -374 439 -1013 949 -1554 1240
-637 342 -1351 551 -2200 643 -287 31 -692 42 -1035 28z"/>
<path d="M35770 12074 c-469 -27 -900 -85 -1225 -164 -203 -50 -574 -177 -742
-255 -17 -8 -34 -15 -38 -15 -27 0 -510 -261 -535 -289 -3 -3 -25 -20 -50 -36
-25 -16 -47 -33 -50 -36 -3 -3 -26 -20 -52 -37 -25 -18 -52 -38 -60 -44 -7 -7
-47 -40 -88 -73 -139 -110 -301 -280 -500 -522 -6 -7 -10 -15 -10 -18 0 -4
-16 -26 -35 -49 -19 -24 -35 -46 -35 -51 0 -4 -13 -24 -29 -44 -16 -20 -39
-54 -51 -76 -12 -22 -30 -53 -40 -70 -26 -41 -160 -310 -160 -320 0 -4 -12
-33 -27 -64 -14 -31 -30 -69 -34 -86 -4 -16 -13 -46 -20 -65 -6 -19 -17 -51
-24 -70 -12 -33 -28 -90 -56 -190 -23 -86 -45 -222 -71 -450 -17 -152 -18
-758 -1 -895 7 -55 17 -138 23 -185 20 -177 61 -374 102 -495 5 -16 14 -46 18
-65 4 -19 18 -60 30 -90 12 -30 25 -66 29 -80 17 -53 115 -257 160 -331 12
-19 24 -41 28 -49 8 -17 134 -202 142 -210 3 -3 24 -27 46 -55 105 -132 295
-319 456 -447 121 -96 148 -116 184 -138 21 -13 47 -32 57 -42 10 -10 24 -18
32 -18 8 0 16 -4 18 -8 2 -5 36 -28 76 -53 68 -41 90 -54 197 -115 59 -33 272
-136 360 -174 28 -12 64 -27 80 -35 17 -7 50 -21 75 -30 25 -9 58 -23 73 -31
16 -8 36 -14 46 -14 9 0 25 -6 36 -14 11 -7 36 -17 55 -21 19 -4 40 -11 45
-15 6 -4 26 -11 45 -15 19 -4 40 -11 45 -14 10 -8 97 -36 205 -68 30 -9 72
-22 93 -29 20 -8 46 -14 57 -14 11 0 34 -6 52 -14 18 -7 53 -19 78 -25 100
-26 168 -42 215 -52 28 -6 55 -14 60 -19 6 -4 35 -11 65 -15 30 -4 61 -11 70
-15 15 -8 113 -31 275 -65 44 -9 100 -21 125 -27 25 -6 68 -14 97 -18 28 -5
66 -13 85 -18 37 -12 116 -28 195 -41 28 -5 57 -12 63 -16 11 -7 73 -22 180
-45 25 -6 54 -14 65 -20 11 -5 38 -14 60 -19 105 -26 262 -78 318 -107 16 -8
34 -14 40 -14 17 0 218 -97 272 -131 17 -10 39 -23 50 -29 87 -44 266 -196
323 -275 28 -38 75 -123 88 -158 47 -128 67 -329 43 -422 -6 -22 -14 -56 -18
-76 -9 -43 -82 -195 -108 -226 -10 -12 -29 -37 -43 -55 -26 -35 -128 -140
-170 -173 -53 -43 -318 -185 -345 -185 -4 0 -21 -6 -38 -14 -150 -65 -535 -92
-777 -54 -150 24 -279 55 -353 86 -16 7 -32 12 -37 12 -5 0 -21 6 -37 14 -15
8 -53 26 -83 41 -168 79 -356 274 -445 460 -54 113 -67 161 -100 365 -15 91
-32 171 -37 178 -16 18 -3156 18 -3182 -1 -17 -13 -17 -27 -3 -323 8 -170 18
-320 21 -334 3 -14 10 -69 15 -122 5 -54 13 -102 16 -109 4 -6 11 -36 15 -67
8 -60 25 -137 42 -187 5 -16 14 -46 18 -65 11 -45 38 -126 56 -167 8 -17 14
-37 14 -45 0 -8 4 -18 9 -24 5 -5 28 -54 51 -108 23 -54 45 -106 50 -115 4 -9
25 -50 46 -91 65 -129 105 -204 125 -235 10 -16 23 -39 29 -50 30 -57 158
-246 195 -289 14 -16 25 -32 25 -35 0 -3 15 -23 33 -43 17 -20 50 -58 72 -84
169 -203 345 -369 560 -528 72 -53 135 -99 140 -104 6 -4 35 -23 65 -41 30
-19 78 -49 105 -66 28 -17 57 -35 65 -39 8 -3 42 -22 75 -41 155 -91 463 -231
630 -286 33 -11 67 -24 75 -28 8 -4 51 -18 95 -30 44 -13 95 -29 113 -37 18
-8 40 -14 50 -14 9 0 34 -6 57 -14 64 -22 217 -59 335 -80 551 -102 906 -132
1465 -123 520 9 751 31 1210 117 298 56 687 173 980 295 746 310 1232 703
1640 1325 273 417 401 753 505 1330 47 261 55 369 55 735 0 445 -21 605 -125
965 -61 209 -103 316 -196 500 -202 400 -462 697 -909 1040 -176 136 -310 218
-525 325 -162 81 -170 85 -325 150 -233 99 -758 283 -1010 355 -178 51 -278
79 -305 84 -14 3 -50 13 -80 21 -30 9 -82 22 -115 30 -33 8 -107 26 -165 40
-58 15 -170 42 -250 62 -347 83 -452 111 -595 154 -332 101 -655 238 -824 350
-148 98 -249 235 -301 408 -19 63 -22 88 -17 189 5 134 23 196 89 307 52 88
94 133 183 199 84 62 272 156 311 156 9 0 37 7 63 15 166 52 671 54 876 4 22
-6 57 -14 77 -20 20 -5 52 -18 70 -29 18 -11 40 -23 48 -26 29 -13 124 -80
169 -119 99 -87 188 -192 232 -275 13 -25 27 -48 32 -51 16 -12 47 -121 47
-168 0 -27 4 -61 10 -76 5 -14 14 -65 20 -112 5 -49 15 -90 22 -95 7 -4 706
-7 1553 -5 l1540 2 3 305 c2 275 0 315 -19 410 -59 299 -134 563 -221 780
-101 251 -271 555 -416 744 -146 190 -361 405 -575 574 -606 479 -1428 766
-2457 857 -165 15 -746 27 -890 19z"/>
<path d="M352 6148 l3 -5653 3586 -3 3587 -2 6 22 c3 13 6 646 6 1409 0 1064
-3 1388 -12 1397 -9 9 -470 12 -2014 12 l-2001 0 -7 31 c-3 17 -6 1923 -6
4235 l0 4204 -1575 0 -1575 0 2 -5652z"/>
<path d="M12257 11793 c-9 -15 -165 -398 -275 -673 -101 -255 -166 -419 -305
-775 -112 -287 -467 -1191 -719 -1830 -143 -363 -277 -705 -298 -760 -21 -55
-71 -181 -110 -280 -39 -99 -138 -351 -220 -560 -82 -209 -201 -513 -265 -675
-64 -162 -163 -414 -220 -560 -57 -146 -156 -398 -220 -560 -64 -162 -134
-340 -155 -395 -21 -55 -91 -233 -155 -395 -64 -162 -163 -416 -221 -565 -58
-148 -134 -342 -169 -430 -35 -88 -80 -203 -100 -255 -73 -187 -387 -980 -630
-1590 -111 -278 -194 -495 -221 -575 -7 -22 -20 -58 -28 -80 -58 -156 -106
-303 -106 -322 l0 -23 1659 0 c1025 0 1662 4 1666 9 12 21 342 974 582 1681
19 58 40 111 45 118 13 15 3958 18 3988 2 13 -7 53 -115 140 -382 249 -759
398 -1187 484 -1391 l16 -37 1713 2 c1593 3 1712 4 1715 20 2 9 -56 164 -128
345 -153 380 -463 1153 -655 1628 -73 182 -221 548 -328 815 -107 267 -229
568 -270 670 -41 102 -141 349 -222 550 -81 201 -189 469 -240 595 -51 127
-462 1153 -914 2280 -451 1128 -985 2460 -1186 2960 -201 501 -414 1030 -473
1177 l-107 268 -1532 0 c-842 0 -1534 -3 -1536 -7z m1608 -3704 c23 -44 66
-159 154 -419 34 -98 155 -446 177 -505 8 -22 28 -78 44 -125 15 -47 42 -123
58 -170 60 -169 134 -376 148 -415 8 -22 21 -58 28 -80 8 -22 34 -96 59 -165
105 -292 137 -380 172 -475 20 -55 42 -118 49 -140 8 -22 42 -116 76 -210 178
-490 179 -494 180 -567 l0 -48 -1214 0 c-668 0 -1217 3 -1219 8 -6 12 57 279
91 382 17 52 53 158 80 235 28 77 105 295 172 485 67 190 145 408 172 485 28
77 56 158 63 180 7 22 37 105 65 185 29 80 65 181 80 225 16 44 49 139 75 210
26 72 59 166 75 210 15 44 51 145 80 225 28 80 64 181 80 225 15 44 42 120 59
168 18 49 45 119 62 155 l29 66 39 -38 c21 -21 51 -60 66 -87z"/>
</g>
</svg>
