<?xml version="1.0" standalone="no"?>
<!DOCTYPE svg PUBLIC "-//W3C//DTD SVG 20010904//EN"
 "http://www.w3.org/TR/2001/REC-SVG-20010904/DTD/svg10.dtd">
<svg version="1.0" xmlns="http://www.w3.org/2000/svg"
 width="4081.000000pt" height="350.000000pt" viewBox="0 0 4081.000000 350.000000"
 preserveAspectRatio="xMidYMid meet">

<g transform="translate(0.000000,350.000000) scale(0.100000,-0.100000)"
fill="#000000" stroke="none">
<path d="M22060 2876 c-127 -28 -160 -81 -160 -256 0 -89 -3 -109 -16 -114 -9
-3 -53 -6 -99 -6 -92 0 -112 -11 -101 -55 6 -24 9 -25 96 -25 l90 0 0 -444 c0
-496 -4 -470 72 -464 l43 3 5 450 c3 248 7 451 8 452 1 2 77 4 170 5 l167 3 0
35 0 35 -162 5 c-89 3 -165 8 -169 13 -8 8 13 163 26 187 5 9 27 29 50 45 34
24 58 30 142 39 109 12 126 22 115 68 -6 21 -14 26 -53 32 -68 9 -161 6 -224
-8z"/>
<path d="M17160 2824 c-105 -19 -180 -50 -289 -122 -99 -66 -213 -203 -233
-281 -5 -20 -13 -52 -18 -71 -5 -19 -10 -103 -10 -186 0 -120 4 -166 21 -229
57 -218 308 -428 544 -455 150 -18 346 30 449 109 118 91 174 156 209 244 40
100 38 107 -26 107 -60 0 -75 -11 -122 -93 -40 -70 -121 -155 -169 -176 -84
-38 -177 -53 -303 -50 -66 2 -126 9 -134 15 -8 6 -36 19 -64 29 -115 42 -145
59 -152 85 -6 24 -31 83 -73 175 -71 156 -68 342 8 505 36 78 133 172 219 212
64 31 76 33 206 36 166 5 229 -6 323 -57 63 -34 74 -45 134 -134 l65 -98 60 3
c56 3 60 5 63 28 4 34 -82 165 -156 240 -98 98 -158 129 -307 160 -104 22
-142 23 -245 4z"/>
<path d="M32925 2833 c-181 -32 -279 -91 -363 -217 -28 -44 -32 -57 -32 -120
0 -152 49 -260 139 -305 20 -11 119 -40 219 -65 180 -45 280 -83 335 -128 21
-18 30 -37 39 -84 10 -54 8 -69 -11 -132 -38 -125 -94 -155 -286 -156 -100 0
-115 2 -167 27 -72 35 -106 77 -137 164 -29 84 -36 93 -71 93 -53 0 -60 -8
-60 -67 0 -121 55 -227 154 -297 l57 -41 197 1 197 0 68 38 c138 77 193 160
204 309 8 108 -2 158 -44 215 -64 86 -126 116 -368 176 -216 53 -267 67 -291
76 -41 16 -40 196 2 284 26 53 90 71 254 71 119 0 127 -1 172 -28 26 -15 53
-38 60 -50 13 -24 42 -106 52 -149 6 -27 9 -28 68 -28 l61 0 -5 98 c-3 54 -9
106 -15 116 -19 35 -92 102 -146 134 -71 43 -218 77 -282 65z"/>
<path d="M30935 2817 c-94 -31 -138 -70 -176 -155 -19 -40 -21 -59 -16 -142 4
-85 9 -106 51 -202 25 -59 46 -112 46 -117 0 -6 -36 -50 -79 -97 -44 -47 -94
-106 -110 -131 -29 -43 -31 -53 -31 -137 0 -160 48 -241 188 -321 66 -37 68
-38 177 -38 121 1 181 18 287 83 88 54 92 54 172 16 72 -35 140 -55 184 -56
18 0 22 6 22 29 0 31 -17 57 -97 144 -29 32 -53 64 -53 72 0 8 7 40 15 72 8
31 15 94 15 140 0 80 -1 83 -26 89 -42 11 -64 -7 -84 -66 -10 -30 -21 -69 -25
-87 -12 -60 -27 -58 -89 15 -52 60 -87 99 -190 209 l-30 33 108 110 c134 137
151 171 150 295 -1 129 -25 167 -139 221 -48 22 -77 29 -145 31 -52 2 -101 -2
-125 -10z m238 -121 c70 -29 106 -104 87 -178 -9 -33 -27 -58 -78 -106 -101
-94 -135 -116 -174 -108 -44 9 -71 33 -101 92 -14 27 -35 63 -46 79 -30 43
-27 101 6 153 33 50 35 51 148 67 121 17 121 17 158 1z m-179 -609 c22 -12 44
-31 50 -42 43 -82 78 -125 100 -125 28 0 46 -15 115 -96 63 -74 62 -100 -3
-141 -76 -49 -149 -66 -258 -59 -99 5 -202 29 -215 49 -6 10 -42 225 -43 258
0 24 96 142 132 162 43 23 75 21 122 -6z"/>
<path d="M3506 2807 c-17 -13 -19 -47 -6 -134 0 -2 25 -3 55 -3 l56 0 -3 73
-3 72 -40 3 c-23 2 -48 -3 -59 -11z"/>
<path d="M11450 2811 l-45 -6 0 -65 0 -65 73 -3 72 -3 0 66 c0 61 -2 66 -26
75 -14 6 -26 9 -27 8 -1 0 -22 -4 -47 -7z"/>
<path d="M21255 2811 c-30 -6 -30 -7 -30 -71 l0 -65 64 -3 c75 -4 81 1 81 75
0 70 -24 84 -115 64z"/>
<path d="M22668 2809 c-13 -7 -18 -23 -18 -59 0 -74 4 -80 65 -80 39 0 54 4
59 16 10 27 6 110 -6 122 -15 15 -76 15 -100 1z"/>
<path d="M26796 2807 c-14 -10 -17 -25 -14 -72 l3 -60 58 -3 57 -3 0 69 c0 55
-3 71 -16 76 -26 10 -69 7 -88 -7z"/>
<path d="M262 2780 l-22 -9 2 -628 3 -628 336 -3 337 -2 6 25 c4 14 2 34 -4
45 -10 19 -22 20 -294 20 -250 0 -285 2 -290 16 -3 9 -6 271 -6 583 0 631 3
609 -68 581z"/>
<path d="M2733 2783 c-22 -4 -23 -8 -23 -132 0 -85 -4 -131 -12 -139 -8 -8
-46 -12 -105 -12 -101 0 -111 -6 -99 -55 6 -25 8 -25 112 -25 l106 0 -7 -307
c-10 -408 -1 -451 111 -551 49 -44 64 -52 112 -58 30 -4 98 -3 151 2 l96 9 3
31 c4 43 -13 53 -114 65 -113 12 -159 37 -200 106 -35 59 -44 106 -44 232 0
47 -5 160 -11 250 -5 90 -7 177 -4 193 l7 28 163 0 163 0 6 24 c13 52 7 54
-165 58 -129 2 -162 6 -169 18 -5 8 -10 67 -10 131 0 76 -4 119 -12 127 -12
12 -16 13 -55 5z"/>
<path d="M6422 2782 c-25 -4 -63 -76 -151 -287 -42 -100 -65 -153 -81 -190 -5
-11 -34 -81 -66 -155 -31 -74 -60 -139 -64 -145 -4 -5 -29 -64 -55 -130 -26
-66 -53 -133 -61 -150 -7 -16 -27 -64 -43 -105 l-30 -75 47 -12 c76 -20 79
-19 117 57 41 81 59 132 75 213 l11 57 345 0 344 0 0 -36 c0 -33 96 -270 123
-302 6 -8 28 -12 61 -10 50 3 51 3 54 38 3 32 -33 123 -169 430 -11 25 -26 59
-33 75 -7 17 -22 50 -34 75 -11 25 -53 119 -92 210 -39 91 -80 185 -91 210
-11 25 -26 59 -33 75 -7 17 -23 51 -35 76 -11 25 -21 51 -21 57 0 16 -74 31
-118 24z m87 -239 c57 -114 231 -516 231 -537 0 -13 -7 -27 -16 -30 -25 -10
-477 -7 -493 3 -30 19 18 178 131 439 67 155 72 162 99 162 23 0 32 -7 48 -37z"/>
<path d="M20483 2780 c-22 -9 -23 -14 -23 -139 0 -108 -3 -130 -16 -135 -9 -3
-56 -6 -105 -6 l-89 0 0 -40 0 -40 106 0 106 0 -2 -287 c-3 -492 -6 -451 40
-514 74 -98 138 -123 295 -113 l105 7 0 31 c0 17 -4 37 -8 43 -4 7 -44 18 -87
24 -77 11 -135 36 -163 69 -7 8 -25 39 -39 69 -24 51 -26 66 -34 280 -4 124
-8 263 -8 308 l-1 83 168 2 167 3 0 35 0 35 -165 6 c-91 3 -166 6 -167 7 -2 1
-3 60 -3 130 0 153 -9 169 -77 142z"/>
<path d="M26007 2774 c-4 -4 -7 -62 -7 -129 0 -89 -4 -126 -13 -133 -7 -6 -56
-13 -108 -14 l-94 -3 0 -35 0 -35 105 -5 105 -5 6 -345 c3 -190 10 -364 16
-387 15 -60 65 -117 131 -150 54 -27 63 -28 181 -26 131 3 141 6 141 50 0 30
-34 50 -100 58 -88 10 -167 43 -197 82 -32 41 -38 107 -48 471 l-6 252 171 0
171 0 -3 38 -3 37 -165 6 c-91 3 -166 6 -167 7 -1 1 -4 62 -5 135 l-3 132 -50
3 c-28 2 -54 0 -58 -4z"/>
<path d="M36104 2767 c-2 -7 -6 -66 -7 -129 -1 -64 -6 -120 -10 -125 -5 -4
-52 -10 -105 -13 l-97 -5 0 -35 0 -35 103 -3 102 -3 0 -312 c0 -430 17 -496
145 -566 67 -37 106 -43 225 -35 l100 7 0 39 c0 46 -12 52 -115 63 -91 10
-109 17 -151 62 -56 61 -62 102 -70 440 l-7 303 169 2 169 3 0 35 0 35 -160 5
c-88 3 -166 9 -172 13 -9 6 -13 45 -13 138 l0 129 -50 0 c-33 0 -52 -5 -56
-13z"/>
<path d="M1555 2541 c-50 -8 -89 -23 -173 -65 -83 -40 -212 -203 -233 -293
-14 -62 -11 -253 6 -316 26 -99 68 -168 146 -240 83 -77 165 -121 266 -142 63
-13 81 -13 155 0 46 8 104 21 128 30 58 20 135 70 159 103 l19 26 14 -64 14
-65 56 -3 c51 -3 56 -1 62 20 3 13 6 232 6 488 0 349 -3 469 -12 478 -15 15
-73 16 -99 1 -15 -7 -20 -20 -19 -42 4 -71 2 -72 -82 -13 -110 76 -166 97
-271 101 -50 2 -114 0 -142 -4z m63 -132 c53 -5 132 -19 175 -31 66 -17 87
-28 133 -71 30 -27 62 -63 70 -79 19 -37 55 -225 57 -299 2 -54 0 -58 -42
-102 -50 -52 -71 -85 -64 -103 7 -20 -98 -92 -166 -114 -84 -27 -227 -28 -274
-2 -126 68 -188 128 -233 226 -25 55 -25 58 -15 165 11 109 31 183 61 233 9
15 51 54 93 87 42 34 81 70 87 81 6 11 13 20 16 20 3 0 48 -5 102 -11z"/>
<path d="M4430 2535 c-64 -15 -123 -43 -164 -79 -39 -34 -53 -33 -70 8 -15 37
-44 51 -82 42 l-24 -6 0 -496 0 -495 43 3 42 3 7 75 c4 41 11 186 17 321 11
287 12 290 119 401 79 82 106 92 226 86 129 -8 163 -24 204 -99 70 -127 73
-143 82 -479 5 -168 9 -306 9 -308 1 -2 20 -2 44 0 l42 3 8 230 c4 127 6 298
5 381 -3 147 -4 151 -32 195 -121 183 -288 258 -476 214z"/>
<path d="M7710 2536 c-59 -13 -85 -26 -140 -68 -52 -39 -73 -40 -80 -3 -5 27
-9 30 -45 30 l-40 0 0 -490 0 -490 40 0 40 0 7 60 c3 33 11 186 18 340 l11
280 32 54 c18 29 53 72 79 96 41 37 55 43 107 49 135 15 234 -34 273 -136 22
-58 36 -264 38 -553 0 -194 1 -197 54 -193 l41 3 7 70 c4 39 11 188 16 332 9
253 11 265 35 315 15 29 50 77 80 106 l53 52 85 1 c143 1 193 -21 234 -104 27
-57 33 -124 50 -594 l7 -183 39 0 c21 0 41 5 45 11 13 21 24 650 12 724 -17
118 -65 188 -172 252 -55 34 -66 37 -158 41 -151 7 -199 -7 -268 -78 -36 -37
-66 -59 -87 -63 -28 -6 -35 -2 -69 40 -71 87 -216 129 -344 99z"/>
<path d="M9605 2536 c-38 -7 -92 -20 -119 -30 -86 -30 -187 -123 -258 -238
-27 -43 -58 -174 -58 -244 0 -94 16 -161 59 -249 49 -100 95 -153 183 -215
101 -71 149 -85 293 -84 116 0 123 1 190 34 88 42 171 125 215 214 37 75 35
96 -12 96 -71 0 -101 -17 -188 -110 l-86 -90 -104 0 c-71 0 -129 7 -180 20
-66 17 -81 26 -121 69 -43 46 -73 112 -93 206 -4 17 -9 38 -12 48 -5 16 20 17
425 17 l431 0 6 25 c3 13 4 66 2 117 -3 89 -5 96 -42 153 -49 75 -174 199
-228 226 -37 19 -85 29 -193 42 -22 2 -71 -1 -110 -7z m243 -159 c71 -19 90
-29 127 -66 54 -54 73 -91 81 -165 5 -45 4 -60 -7 -67 -19 -12 -726 -12 -734
1 -9 14 38 121 83 187 41 60 108 107 176 124 63 15 190 8 274 -14z"/>
<path d="M12332 2535 c-83 -16 -172 -62 -252 -128 -133 -110 -155 -167 -155
-402 l0 -161 34 -64 c32 -60 75 -115 142 -180 88 -85 156 -112 294 -118 91 -3
107 -1 181 26 127 46 239 124 285 198 10 18 23 52 28 78 10 55 -2 70 -51 61
-25 -5 -42 -19 -73 -62 -46 -64 -95 -105 -165 -139 -95 -46 -298 -26 -395 39
-117 78 -190 343 -134 491 24 66 89 141 161 187 52 34 53 34 173 33 168 0 227
-18 280 -81 73 -87 111 -120 156 -131 52 -13 62 -4 55 50 -8 69 -147 223 -242
267 -44 21 -194 52 -239 50 -11 -1 -49 -7 -83 -14z"/>
<path d="M15070 2535 c-66 -15 -123 -40 -171 -77 -50 -38 -56 -38 -76 2 -20
39 -61 54 -108 42 l-30 -8 0 -490 0 -489 50 -3 c75 -5 75 -5 75 252 0 349 20
458 100 549 62 70 126 97 227 97 101 0 131 -12 199 -78 81 -79 84 -93 91 -472
6 -361 4 -350 75 -350 25 0 40 6 46 18 5 9 12 154 16 322 9 409 -1 460 -110
566 -64 62 -156 109 -244 123 -75 12 -69 13 -140 -4z"/>
<path d="M18565 2536 c-113 -18 -181 -53 -255 -133 -71 -75 -118 -145 -146
-218 -15 -39 -19 -74 -18 -160 1 -95 5 -122 30 -195 53 -152 137 -246 274
-307 30 -14 65 -29 77 -35 28 -14 192 -13 263 1 96 19 254 152 297 250 31 69
26 81 -32 81 -39 0 -50 -5 -68 -27 -45 -57 -136 -140 -170 -156 -52 -25 -209
-23 -306 4 -120 34 -169 96 -217 277 -8 29 -14 55 -14 57 0 3 196 5 435 5
l435 0 0 112 0 112 -40 66 c-47 80 -176 205 -240 232 -40 17 -88 28 -195 42
-16 2 -66 -2 -110 -8z m160 -145 c50 -11 107 -22 129 -25 40 -5 76 -30 76 -52
0 -8 20 -60 45 -116 25 -56 43 -108 41 -115 -4 -10 -78 -13 -358 -13 -194 0
-359 4 -367 9 -11 7 -12 17 -2 56 13 53 50 128 80 163 22 26 228 122 251 117
8 -2 56 -13 105 -24z"/>
<path d="M23570 2536 c-104 -19 -195 -69 -276 -150 -111 -113 -147 -199 -146
-361 0 -237 97 -398 305 -506 81 -42 82 -42 192 -43 116 -1 168 11 267 60 106
53 218 194 222 278 1 34 -15 42 -69 32 -27 -5 -38 -15 -55 -51 -34 -70 -107
-120 -230 -157 -97 -28 -245 -12 -315 36 -115 79 -165 194 -165 381 0 93 3
107 30 161 58 116 149 174 288 181 106 6 189 -8 262 -45 46 -23 61 -38 100
-102 l46 -75 59 0 c58 0 60 1 63 28 6 48 -70 159 -155 226 -70 56 -147 90
-238 107 -91 16 -97 16 -185 0z"/>
<path d="M24835 2535 c-113 -28 -309 -166 -351 -248 -39 -75 -57 -161 -57
-277 1 -188 37 -277 160 -389 35 -33 101 -79 146 -103 l82 -43 125 1 c116 0
130 3 195 30 39 17 92 44 117 62 26 18 49 32 53 32 3 0 14 -20 25 -45 l19 -45
55 0 c40 0 55 4 60 16 3 9 6 228 6 488 0 354 -3 475 -12 484 -13 13 -59 16
-96 6 -15 -4 -25 -16 -29 -35 -10 -52 -23 -52 -128 2 -142 74 -253 93 -370 64z
m297 -137 c76 -35 145 -101 174 -166 67 -152 49 -279 -73 -493 -34 -59 -51
-70 -133 -89 -25 -5 -76 -19 -115 -30 -146 -41 -235 -21 -318 71 -30 32 -66
81 -81 109 -27 50 -28 53 -26 220 0 93 6 184 12 202 22 67 130 158 227 190 87
28 257 21 333 -14z"/>
<path d="M27660 2531 c-101 -27 -152 -57 -222 -129 -116 -121 -168 -235 -168
-366 0 -39 5 -89 11 -111 5 -22 14 -56 19 -76 17 -65 64 -142 128 -211 80 -84
141 -125 201 -134 25 -3 51 -10 56 -14 17 -13 198 -18 260 -8 105 18 144 46
277 199 101 115 134 217 125 385 -4 91 -8 108 -43 180 -49 101 -141 196 -234
241 -124 61 -283 78 -410 44z m333 -139 c151 -70 236 -210 237 -389 0 -139
-62 -265 -164 -331 -22 -15 -45 -32 -49 -39 -5 -8 -31 -13 -72 -13 -35 0 -87
-5 -115 -12 -52 -12 -64 -10 -160 27 -19 7 -57 21 -84 30 -55 20 -96 58 -150
140 -47 69 -48 103 -11 305 26 143 27 146 68 188 99 102 179 133 328 129 93
-3 113 -7 172 -35z"/>
<path d="M29115 2534 c-38 -6 -91 -23 -116 -36 -25 -14 -60 -28 -78 -31 -17
-4 -49 -15 -70 -26 l-40 -19 -3 37 c-3 35 -4 36 -43 36 l-40 0 -3 -487 -2
-486 27 -6 c24 -4 49 -3 86 3 4 0 7 81 7 179 0 206 16 490 29 524 14 38 137
151 184 169 35 14 59 15 141 8 134 -11 202 -32 220 -67 26 -51 37 -167 44
-484 5 -175 11 -320 15 -324 10 -11 91 -15 105 -6 18 12 22 645 4 724 -20 88
-99 192 -182 240 -100 59 -172 72 -285 52z"/>
<path d="M37190 2535 c-85 -19 -161 -60 -233 -125 -76 -70 -137 -157 -160
-226 -43 -135 -25 -319 43 -434 74 -125 141 -188 258 -242 57 -26 74 -29 168
-29 157 0 225 25 346 125 73 61 119 128 122 179 1 31 0 32 -37 31 -31 -1 -47
-11 -95 -56 -77 -73 -106 -91 -181 -117 -178 -59 -346 5 -438 167 -41 72 -72
139 -72 160 -1 9 93 12 435 12 l436 0 -4 133 -3 132 -49 73 c-76 114 -193 190
-333 217 -90 17 -126 17 -203 0z m267 -131 c29 -14 83 -54 120 -88 75 -70 107
-133 101 -203 l-3 -38 -358 -3 c-197 -1 -371 1 -386 5 l-28 8 14 55 c20 77 50
133 97 178 38 38 49 42 180 71 77 17 142 33 144 36 13 13 73 2 119 -21z"/>
<path d="M38509 2536 c-61 -14 -143 -49 -154 -66 -11 -17 -53 -11 -60 9 -7 22
-59 35 -86 21 -18 -10 -19 -28 -19 -500 l0 -490 44 0 43 0 7 203 c13 375 22
487 47 552 23 62 64 110 109 127 27 10 206 12 249 2 37 -9 79 -52 92 -93 12
-44 28 -356 29 -581 0 -215 -1 -210 65 -210 46 0 53 3 59 23 3 12 6 120 6 240
0 120 5 273 11 340 13 145 27 172 129 250 l64 49 73 -6 c87 -8 127 -21 172
-54 65 -48 68 -67 75 -462 6 -314 9 -356 23 -367 19 -14 71 -17 90 -5 9 5 13
108 15 387 l3 380 -29 53 c-128 231 -344 271 -590 111 -33 -22 -66 -39 -73
-39 -7 0 -50 25 -96 55 -46 30 -95 59 -109 64 -44 17 -132 20 -189 7z"/>
<path d="M40214 2535 c-123 -30 -254 -175 -254 -281 0 -43 26 -110 61 -155 43
-55 113 -87 265 -119 135 -29 217 -59 276 -101 l31 -22 -6 -80 c-4 -44 -13
-89 -20 -100 -20 -31 -135 -56 -254 -57 -95 0 -103 2 -132 26 -17 14 -50 57
-72 95 -44 74 -71 90 -115 70 -21 -9 -24 -17 -24 -65 0 -60 25 -127 60 -165
25 -26 135 -81 162 -81 9 0 20 -4 23 -10 4 -6 63 -10 144 -10 l137 0 70 46
c94 63 114 80 107 88 -4 3 7 20 23 37 28 30 29 31 28 143 -1 108 -2 115 -28
149 -65 85 -150 121 -451 192 -131 31 -125 25 -125 120 0 82 0 83 34 109 34
25 39 26 180 26 140 0 145 -1 175 -26 16 -14 44 -50 61 -80 30 -51 34 -54 70
-54 37 0 39 2 45 39 3 22 3 60 0 85 -8 50 -40 83 -140 144 -84 50 -216 65
-331 37z"/>
<path d="M13572 2530 c-151 -32 -314 -181 -378 -345 -28 -74 -26 -277 4 -358
48 -129 162 -249 300 -315 l72 -34 118 4 c120 5 126 7 272 70 30 13 71 39 90
57 l34 33 8 -23 c4 -13 12 -43 18 -66 11 -43 11 -43 55 -43 l45 0 -2 491 c-3
539 -1 520 -62 505 -27 -7 -30 -10 -40 -56 -9 -40 -23 -56 -39 -45 -132 97
-205 125 -347 130 -58 2 -124 0 -148 -5z m284 -121 c68 -21 104 -42 104 -62 0
-6 30 -54 66 -108 64 -96 66 -100 71 -177 4 -48 1 -100 -7 -133 -12 -52 -61
-164 -81 -183 -5 -6 -9 -18 -9 -28 0 -20 -29 -38 -63 -38 -28 0 -79 -24 -124
-57 -37 -28 -51 -30 -118 -13 -66 16 -162 38 -202 45 -43 8 -120 94 -162 180
-29 61 -31 71 -31 176 0 160 15 203 102 284 105 99 183 133 309 134 51 1 100
-6 145 -20z"/>
<path d="M35151 2530 c-60 -13 -147 -63 -203 -118 l-48 -46 0 -106 c0 -115 7
-134 65 -182 53 -44 108 -66 271 -107 220 -54 256 -70 267 -112 5 -19 7 -63 4
-99 -5 -58 -8 -68 -39 -93 -49 -41 -91 -50 -219 -45 -93 3 -122 8 -156 26 -41
21 -47 32 -88 149 -6 18 -73 27 -101 14 -29 -13 -31 -43 -8 -121 20 -68 88
-136 181 -182 63 -31 74 -33 163 -32 105 2 161 14 233 50 76 38 125 83 155
143 24 49 27 68 27 153 l0 97 -34 35 c-80 83 -132 105 -380 167 -92 22 -171
46 -177 52 -14 14 -34 95 -34 135 0 19 10 38 31 58 l31 29 136 -1 c213 -1 225
-6 278 -110 27 -53 28 -54 71 -54 l43 0 0 71 0 70 -53 53 c-29 29 -77 65 -107
81 -48 24 -68 28 -160 31 -58 2 -125 -1 -149 -6z"/>
<path d="M10855 2503 c-30 -6 -98 -35 -115 -49 -8 -6 -25 -15 -37 -18 -19 -6
-22 -3 -25 26 -3 33 -3 33 -60 36 l-58 3 0 -489 0 -490 23 -6 c36 -10 74 -7
84 7 6 6 13 127 17 272 3 143 11 301 17 350 l10 90 52 53 c84 87 119 102 279
127 43 7 58 37 38 74 -10 19 -19 21 -108 20 -53 -1 -106 -3 -117 -6z"/>
<path d="M19548 2503 c-17 -4 -18 -37 -18 -499 l0 -495 58 3 57 3 6 120 c4 66
7 201 8 301 1 245 10 286 69 347 65 67 115 94 208 112 111 22 124 29 124 64 0
48 -18 55 -140 48 -99 -5 -117 -9 -184 -41 -41 -20 -77 -36 -80 -36 -3 0 -6
13 -6 29 0 17 -3 32 -8 35 -13 8 -76 14 -94 9z"/>
<path d="M3500 2263 c-1 -734 -1 -736 12 -745 7 -4 31 -7 53 -6 l40 3 0 490 0
490 -52 3 -53 3 0 -238z"/>
<path d="M11435 2488 c-3 -7 -4 -229 -3 -493 l3 -480 40 0 40 0 0 490 0 490
-38 3 c-24 2 -39 -1 -42 -10z"/>
<path d="M21257 2494 c-4 -4 -7 -225 -7 -490 l0 -483 33 -6 c38 -6 63 -3 77
11 7 7 9 180 8 490 l-3 479 -50 3 c-28 2 -54 0 -58 -4z"/>
<path d="M22663 2493 c-10 -4 -13 -110 -13 -483 0 -452 1 -480 18 -489 26 -14
92 -8 102 9 10 16 13 931 3 956 -5 14 -82 19 -110 7z"/>
<path d="M26787 2494 c-4 -4 -7 -225 -7 -490 l0 -483 35 -7 c19 -3 46 -3 60 0
l25 6 -2 488 -3 487 -50 3 c-28 2 -54 0 -58 -4z"/>
<path d="M33671 2491 c-15 -10 -26 14 237 -505 135 -266 147 -302 146 -421 -1
-107 -19 -151 -89 -213 -42 -37 -53 -41 -133 -52 -138 -18 -137 -17 -140 -78
l-3 -52 111 0 c100 0 117 3 166 27 30 15 71 45 90 67 20 23 44 50 53 61 10 11
22 31 26 45 4 13 37 85 72 160 200 419 434 933 430 944 -5 13 -50 26 -88 26
-11 0 -23 -10 -28 -22 -5 -13 -29 -66 -54 -118 -25 -52 -61 -131 -82 -175
-102 -221 -196 -380 -225 -380 -8 0 -78 136 -160 309 -89 188 -158 321 -177
341 -38 40 -116 59 -152 36z"/>
</g>
</svg>
