<?xml version="1.0" standalone="no"?>
<!DOCTYPE svg PUBLIC "-//W3C//DTD SVG 20010904//EN"
 "http://www.w3.org/TR/2001/REC-SVG-20010904/DTD/svg10.dtd">
<svg version="1.0" xmlns="http://www.w3.org/2000/svg"
 width="1646.000000pt" height="1646.000000pt" viewBox="0 0 1646.000000 1646.000000"
 preserveAspectRatio="xMidYMid meet">

<g transform="translate(0.000000,1646.000000) scale(0.100000,-0.100000)"
fill="#000000" stroke="none">
<path d="M7705 15434 c-456 -35 -849 -102 -1380 -235 -347 -87 -829 -268
-1245 -466 -541 -258 -1132 -651 -1610 -1069 -150 -132 -491 -470 -674 -669
-938 -1019 -1559 -2335 -1780 -3770 -64 -416 -78 -1128 -31 -1634 132 -1424
659 -2772 1549 -3958 515 -686 1229 -1306 2050 -1777 738 -424 1583 -728 2436
-875 182 -32 480 -71 537 -71 l33 0 0 4143 c0 2985 3 4146 11 4154 8 8 231 10
777 7 422 -3 1718 -9 2879 -14 l2112 -10 83 -26 c46 -14 107 -36 136 -50 47
-21 57 -31 80 -82 25 -52 27 -67 27 -177 -1 -146 -16 -189 -126 -352 -179
-263 -344 -516 -581 -888 -358 -562 -641 -1007 -883 -1385 -114 -179 -644
-1011 -1178 -1850 -534 -839 -1044 -1640 -1133 -1780 -173 -271 -479 -753
-740 -1165 -153 -241 -284 -478 -284 -512 0 -38 511 11 900 88 800 158 1574
455 2285 877 472 281 996 686 1384 1071 523 518 980 1119 1325 1741 114 205
297 594 371 785 37 97 55 146 67 175 11 26 94 278 122 369 47 149 109 417 162
701 8 47 19 106 24 131 5 25 18 108 29 185 19 132 27 196 53 464 16 155 15
1076 0 1235 -28 291 -34 337 -52 465 -74 498 -156 848 -311 1311 -27 81 -53
158 -58 170 -6 13 -26 67 -46 119 -20 52 -40 104 -45 115 -5 11 -32 76 -61
145 -142 338 -399 806 -626 1142 -288 427 -517 704 -882 1068 -616 615 -1141
1003 -1834 1354 -186 94 -258 129 -452 217 -133 60 -451 182 -626 240 -519
171 -1024 276 -1569 325 -165 15 -1087 28 -1225 18z m-2739 -2308 c75 -16 157
-59 206 -109 20 -21 121 -170 224 -330 102 -161 215 -337 251 -392 136 -211
809 -1247 902 -1390 54 -82 192 -294 306 -470 114 -176 249 -383 299 -460 50
-77 162 -247 249 -378 171 -256 194 -308 146 -320 -13 -3 -661 -7 -1439 -8
-1412 -2 -1415 -2 -1473 19 -120 43 -209 112 -280 216 -86 127 -79 26 -87
1221 -4 583 -11 1254 -15 1490 -9 552 -4 583 113 742 51 70 100 115 152 144
66 35 330 50 446 25z"/>
</g>
</svg>
