<?xml version="1.0" encoding="UTF-8"?>
<!-- Generator: visioncortex VTracer 0.6.4 -->
<svg version="1.1" xmlns="http://www.w3.org/2000/svg" width="2000" height="2000">
<path d="M0 0 C660 0 1320 0 2000 0 C2000 660 2000 1320 2000 2000 C1340 2000 680 2000 0 2000 C0 1340 0 680 0 0 Z " fill="#FEFEFE" transform="translate(0,0)"/>
<path d="M0 0 C2.0835398 0.01833887 4.16663151 0.02050774 6.25024414 0.02026367 C20.52470882 0.05434162 34.41913699 1.01442662 48.45532227 3.76831055 C49.1191391 3.89763977 49.78295593 4.02696899 50.46688843 4.16021729 C70.03787317 8.01660631 88.60757343 14.44842136 106.51782227 23.20581055 C107.35410156 23.6117041 108.19038086 24.01759766 109.05200195 24.43579102 C121.70387328 30.6402986 133.30749879 37.67053651 144.51782227 46.20581055 C145.48204102 46.93799805 146.44625977 47.67018555 147.43969727 48.42456055 C153.37835428 53.07220517 159.04273299 58.0222033 164.51782227 63.20581055 C165.14108398 63.79507324 165.7643457 64.38433594 166.40649414 64.99145508 C176.89175685 74.98816605 186.15680205 85.37433958 194.51782227 97.20581055 C194.96706055 97.83696777 195.41629883 98.468125 195.87915039 99.1184082 C223.64321186 138.45772481 237.6943333 184.12304239 237.83032227 232.14331055 C237.83294067 233.02753693 237.83555908 233.91176331 237.83825684 234.82278442 C237.84314334 250.28350244 236.56879924 265.01683338 233.51782227 280.20581055 C233.30150146 281.37829346 233.30150146 281.37829346 233.08081055 282.57446289 C226.60338067 317.53688134 209.04630255 351.90162994 186.51782227 379.20581055 C186.05408203 379.77106445 185.5903418 380.33631836 185.11254883 380.91870117 C174.94332377 393.24132927 164.1292044 404.35808774 151.51782227 414.20581055 C150.5574707 414.98311523 149.59711914 415.76041992 148.60766602 416.5612793 C120.93354817 438.56762585 88.11841225 453.982153 53.51782227 461.20581055 C52.76919922 461.36275391 52.02057617 461.51969727 51.24926758 461.68139648 C41.36025511 463.70089178 31.6018716 464.78013743 21.51782227 465.20581055 C22.85336888 461.61081727 24.45911805 458.48331234 26.50219727 455.2409668 C27.39950562 453.81083252 27.39950562 453.81083252 28.31494141 452.35180664 C28.95939209 451.33425293 29.60384277 450.31669922 30.26782227 449.26831055 C30.93740967 448.20435059 31.60699707 447.14039063 32.296875 446.04418945 C34.36533036 442.76141338 36.44029318 439.48285057 38.51782227 436.20581055 C39.12835449 435.24239746 39.73888672 434.27898437 40.36791992 433.28637695 C43.83107969 427.82645766 47.30528035 422.37364067 50.78393555 416.92358398 C53.69944789 412.35367644 56.60827622 407.77951802 59.51782227 403.20581055 C60.68445734 401.37245711 61.851124 399.53912377 63.01782227 397.70581055 C63.59532227 396.79831055 64.17282227 395.89081055 64.76782227 394.95581055 C75.8511556 377.53914388 86.93448893 360.12247721 98.01782227 342.70581055 C98.59516113 341.79855225 99.1725 340.89129395 99.76733398 339.95654297 C100.93558614 338.12074143 102.1038805 336.28496675 103.2722168 334.44921875 C106.16496981 329.90386679 109.05701996 325.35807087 111.94750977 320.8112793 C118.79851279 310.03651999 125.66985329 299.2750287 132.55639648 288.52294922 C136.88818614 281.75772838 141.20809051 274.98510166 145.51782227 268.20581055 C149.8819858 261.34230225 154.25225932 254.48276211 158.63500977 247.63110352 C160.0027886 245.49201355 161.36870984 243.35173453 162.73266602 241.21020508 C165.75990853 236.4659857 168.80837551 231.74521945 171.97485352 227.0925293 C172.49345947 226.32207275 173.01206543 225.55161621 173.54638672 224.7578125 C174.49094454 223.36033082 175.44812829 221.97125402 176.42089844 220.59326172 C179.30713643 216.30017248 180.03578714 213.34177548 179.51782227 208.20581055 C178.97763416 205.39408181 178.97763416 205.39408181 177.51782227 203.20581055 C175.12252557 201.88099509 175.12252557 201.88099509 172.51782227 201.20581055 C171.52782227 200.87581055 170.53782227 200.54581055 169.51782227 200.20581055 C167.04744459 200.10067922 164.60453735 200.05098852 162.13374329 200.04759216 C160.99945641 200.04019768 160.99945641 200.04019768 159.84225464 200.03265381 C157.29311353 200.01724261 154.74399734 200.0089074 152.19482422 200.00048828 C150.34217959 199.99077525 148.48953718 199.98062991 146.63689709 199.9700861 C141.66667494 199.94299754 136.69644392 199.92184154 131.72618866 199.90189362 C127.06569027 199.88229605 122.40522634 199.85737601 117.74475098 199.83288574 C104.10663397 199.76433252 90.46847498 199.70434744 76.83032227 199.64331055 C31.13563477 199.42674805 31.13563477 199.42674805 -15.48217773 199.20581055 C-15.48217773 286.98581055 -15.48217773 374.76581055 -15.48217773 465.20581055 C-75.95493097 459.70828753 -133.967239 430.75702484 -173.10717773 383.83081055 C-214.37316162 331.73723823 -233.92830519 269.02047239 -226.79858398 202.6550293 C-220.54589642 155.53975593 -199.27411594 109.09364795 -166.09887695 74.8737793 C-164.9331745 73.67110954 -163.77414532 72.46195893 -162.61938477 71.2487793 C-152.63890724 60.78541458 -142.28102867 51.56512288 -130.48217773 43.20581055 C-129.87229004 42.76720703 -129.26240234 42.32860352 -128.6340332 41.87670898 C-112.31763076 30.21766189 -94.5015889 20.8822608 -75.67797852 14.00805664 C-73.73894167 13.29962045 -71.81078023 12.56156938 -69.88452148 11.8190918 C-61.60519741 8.80583608 -53.14292308 6.89278259 -44.54467773 5.01831055 C-43.40192383 4.76807129 -42.25916992 4.51783203 -41.08178711 4.26000977 C-27.35735548 1.37834674 -14.00174517 -0.12667541 0 0 Z " fill="#000C1C" transform="translate(315.482177734375,786.794189453125)"/>
<path d="M0 0 C0.8353125 0.11827148 1.670625 0.23654297 2.53125 0.35839844 C29.79215559 4.2971984 57.83136042 14.34917701 80 31 C81.01449219 31.73347656 82.02898437 32.46695313 83.07421875 33.22265625 C95.79778838 42.56924445 107.54859931 53.32214713 117 66 C117.39493652 66.51997559 117.78987305 67.03995117 118.19677734 67.57568359 C125.00995372 76.57757628 130.79278702 85.98776677 136 96 C136.35336426 96.67933594 136.70672852 97.35867188 137.07080078 98.05859375 C145.26814827 114.06744218 154 134.75120574 154 153 C120.67 153 87.34 153 53 153 C50.69 148.05 48.38 143.1 46 138 C41.96900553 130.70990362 37.42710022 124.31556042 32 118 C31.48050781 117.38382813 30.96101563 116.76765625 30.42578125 116.1328125 C18.54162485 103.1410647 -1.3614025 93.86823809 -18.76611328 92.8359375 C-44.14779763 91.87070152 -67.2904677 96.04484536 -86.6875 113.6875 C-103.02950396 129.13124763 -115.06290312 151.5240031 -116.16113281 174.34887695 C-116.51049846 204.6279101 -114.17083947 230.70225314 -94 255 C-93.55269531 255.59296875 -93.10539062 256.1859375 -92.64453125 256.796875 C-80.57438577 272.22967098 -60.01049046 280.76053167 -41.125 283.578125 C-19.17222645 286.08739034 2.44967972 281.71474342 20.5 268.5625 C22.35613285 267.06957803 24.19181424 265.55064806 26 264 C26.72574219 263.38640625 27.45148438 262.7728125 28.19921875 262.140625 C40.4708254 250.85749747 47.32124475 234.59585082 52 219 C85.66 219 119.32 219 154 219 C153.20560645 229.32711611 152.02637386 237.36836268 149 247 C148.73300293 247.85416504 148.46600586 248.70833008 148.19091797 249.58837891 C138.73742441 279.31953767 124.16595966 303.17860215 103 326 C102.46246094 326.59167969 101.92492188 327.18335938 101.37109375 327.79296875 C95.56330337 333.92098817 88.75511335 338.97289789 82 344 C81.42781738 344.42716309 80.85563477 344.85432617 80.26611328 345.29443359 C40.44423929 374.54595092 -12.27747942 383.39029633 -60.56152344 376.86621094 C-111.59842611 368.68273563 -156.93559265 342.11616431 -187.32519531 300.17089844 C-201.63735964 280.08683812 -212.00350062 256.66049522 -217.1875 232.5625 C-217.34234863 231.84876221 -217.49719727 231.13502441 -217.65673828 230.3996582 C-220.43635372 216.72086515 -221.35059728 203.24110332 -221.31567383 189.31958008 C-221.31251538 186.70025862 -221.33608003 184.08207369 -221.36132812 181.46289062 C-221.42011676 165.99713281 -219.53876167 150.9675005 -215.3125 136.0625 C-214.93121948 134.69992065 -214.93121948 134.69992065 -214.54223633 133.30981445 C-208.6087418 112.81341807 -199.52880722 93.30498235 -187 76 C-185.87271484 74.42605469 -185.87271484 74.42605469 -184.72265625 72.8203125 C-155.45049189 33.21373093 -110.1409437 7.62413846 -61.796875 -0.03515625 C-41.25506029 -2.95957892 -20.51796637 -3.12116522 0 0 Z " fill="#0979A2" transform="translate(1420,805)"/>
<path d="M0 0 C32.34 0 64.68 0 98 0 C104.33446057 15.74954748 110.66812163 31.49941447 117 47.25 C117.47927948 48.44218643 117.95855896 49.63437286 118.45236206 50.86268616 C129.68601154 78.80676876 140.91075573 106.75434714 152.09375 134.71875 C152.5365329 135.82596153 152.9793158 136.93317307 153.43551636 138.07393646 C157.66251739 148.64460651 161.88765717 159.21601855 166.10985851 169.78860664 C174.89037451 191.77422033 183.71213452 213.74240412 192.59382629 235.68734741 C201.69669747 258.18050356 210.75395171 280.69197602 219.80493164 303.20605469 C221.75964807 308.06811622 223.71541061 312.92975552 225.67211914 317.79101562 C228.08160539 323.77731784 230.4894354 329.76428351 232.89600563 335.75175858 C233.80252257 338.00636603 234.70962071 340.2607399 235.61731529 342.5148735 C236.86456888 345.61262447 238.1096868 348.71122516 239.35424805 351.81005859 C239.9125959 353.19470055 239.9125959 353.19470055 240.48222351 354.60731506 C240.98374939 355.85796501 240.98374939 355.85796501 241.4954071 357.13388062 C241.78782634 357.86096914 242.08024557 358.58805767 242.38152599 359.33717918 C243 361 243 361 243 362 C206.7 362 170.4 362 133 362 C125.40488158 343.01220396 119.4670103 323.4010309 113 304 C70.76 304 28.52 304 -15 304 C-19.29 316.54 -23.58 329.08 -28 342 C-30.31 348.6 -32.62 355.2 -35 362 C-70.31 362 -105.62 362 -142 362 C-135.11562392 342.49426778 -135.11562392 342.49426778 -131.5234375 333.5390625 C-130.91909126 332.01993004 -130.91909126 332.01993004 -130.30253601 330.47010803 C-129.44242551 328.30881498 -128.58090511 326.14808254 -127.7180481 323.98788452 C-125.37394724 318.11844431 -123.04131096 312.24444509 -120.70703125 306.37109375 C-120.2287236 305.16840347 -119.75041595 303.9657132 -119.25761414 302.72657776 C-114.48833489 290.7282441 -109.76987545 278.71022915 -105.0625 266.6875 C-104.23798048 264.58242845 -103.41343606 262.47736666 -102.58886719 260.37231445 C-101.33724011 257.17691043 -100.08565455 253.9814902 -98.83425903 250.78599548 C-93.94050246 238.29116592 -89.03277777 225.80182733 -84.125 213.3125 C-83.20059643 210.95988183 -82.27619866 208.60726138 -81.35180664 206.25463867 C-79.49534301 201.52992314 -77.63880503 196.80523682 -75.78222656 192.08056641 C-71.6451651 181.55228701 -67.5091119 171.02361151 -63.37298584 160.4949646 C-61.08203216 154.66329339 -58.79101274 148.83164801 -56.5 143 C-55.58333302 140.66666679 -54.66666635 138.33333346 -53.75 136 C-48.25000001 122.00000002 -48.25000001 122.00000002 -46.87522888 118.50059509 C-45.95778795 116.16528257 -45.04035836 113.82996559 -44.12294006 111.49464417 C-41.8432123 105.69155603 -39.56329285 99.88854336 -37.28295898 94.08569336 C-33.0154925 83.22551832 -28.74990697 72.36461466 -24.49087524 61.50112915 C-22.73975891 57.0346136 -20.98770555 52.56846578 -19.23545265 48.10239601 C-18.04640213 45.07158166 -16.85803968 42.04050035 -15.6706543 39.0090332 C-14.35596326 35.6526429 -13.03947803 32.29696106 -11.72265625 28.94140625 C-11.34746353 27.98214737 -10.97227081 27.02288849 -10.58570862 26.03456116 C-7.15871047 17.31072045 -3.57050427 8.67122465 0 0 Z " fill="#002D44" transform="translate(984,812)"/>
<path d="M0 0 C0.70737305 0.13921875 1.41474609 0.2784375 2.14355469 0.421875 C24.13738264 4.90998727 45.33072716 13.7450897 62 29 C62.91265625 29.81984375 63.8253125 30.6396875 64.765625 31.484375 C81.51618461 47.29914916 90.67332742 67.63330279 95 90 C95.33 91.65 95.66 93.3 96 95 C96 101.6 96 108.2 96 115 C63 115 30 115 -4 115 C-4.66 110.71 -5.32 106.42 -6 102 C-9.8313948 94.11183423 -15.58140645 88.23625667 -23.625 84.5625 C-29.36696608 82.69414638 -35.07738838 82.61393221 -41.0625 82.5625 C-41.98434082 82.55226807 -42.90618164 82.54203613 -43.85595703 82.53149414 C-53.93287658 82.6598111 -62.58181561 84.92445692 -70 92 C-74.02865367 97.1649406 -75.47497103 101.15129621 -75.328125 107.72265625 C-74.35600833 114.46960888 -71.01713738 119.67893628 -65.625 123.75 C-49.0930327 134.11585909 -28.56077648 137.90521934 -9.875 142.5 C1.24538804 145.24348729 12.18223851 148.23214379 23 152 C23.82483887 152.28423828 24.64967773 152.56847656 25.49951172 152.86132812 C43.0109391 158.9746483 61.18514677 166.30664777 75 179 C75.82242187 179.68320312 76.64484375 180.36640625 77.4921875 181.0703125 C90.65834009 192.23553005 100.74737071 208.159588 105 225 C105.27585937 225.93070313 105.55171875 226.86140625 105.8359375 227.8203125 C110.58181118 246.58610659 109.61692223 268.27341826 105 287 C104.70996094 288.39992188 104.70996094 288.39992188 104.4140625 289.828125 C100.97329347 304.75301922 93.46121038 318.12770697 84 330 C83.36578125 330.81726562 82.7315625 331.63453125 82.078125 332.4765625 C59.96100133 359.22504967 21.9066389 371.92848099 -11.49121094 375.42895508 C-57.4948724 379.36970334 -105.98506175 373.56172444 -142.57421875 343.140625 C-157.03818935 330.37692792 -166.51932793 316.69984519 -174 299 C-174.42152344 298.02289062 -174.84304688 297.04578125 -175.27734375 296.0390625 C-181.05009269 281.53094629 -182 265.3600182 -182 250 C-148.01 250 -114.02 250 -79 250 C-78.34 253.96 -77.68 257.92 -77 262 C-74.77445539 270.64034968 -69.49814445 277.17797021 -61.91796875 281.93359375 C-49.92554558 288.09985819 -33.94974018 289.71206459 -20.80859375 286.0234375 C-17.72753 284.85955942 -14.88447105 283.58416982 -12 282 C-10.865625 281.38125 -9.73125 280.7625 -8.5625 280.125 C-2.42547594 275.03576053 2.39910572 269.37095626 3.31640625 261.171875 C3.62005905 253.37485464 2.48074753 248.21353648 -2.484375 242.203125 C-17.9856568 226.7018432 -47.25132593 223.30868426 -67.63598633 218.45581055 C-98.09915943 211.17953625 -129.26944525 201.69196298 -152 179 C-153.15435547 177.86304688 -153.15435547 177.86304688 -154.33203125 176.703125 C-172.07124464 158.20840848 -177.63777036 134.04618103 -177.4375 109.1875 C-177.43479095 108.39729462 -177.43208191 107.60708923 -177.42929077 106.79293823 C-177.36851033 95.10312984 -176.7570382 84.16097342 -173 73 C-172.42185547 71.2365625 -172.42185547 71.2365625 -171.83203125 69.4375 C-162.55553342 43.49933131 -143.67071879 24.00750931 -119 12 C-107.41117923 6.69436316 -95.56038831 2.29349213 -83 0 C-82.19836426 -0.14808105 -81.39672852 -0.29616211 -80.57080078 -0.44873047 C-54.61756324 -4.97993845 -25.86072492 -5.23761517 0 0 Z " fill="#0979A2" transform="translate(1787,807)"/>
<path d="M0 0 C33.33 0 66.66 0 101 0 C101 89.43 101 178.86 101 271 C143.57 271 186.14 271 230 271 C230 301.03 230 331.06 230 362 C154.1 362 78.2 362 0 362 C0 242.54 0 123.08 0 0 Z " fill="#002D44" transform="translate(603,812)"/>
<path d="M0 0 C1.83498047 -0.03867187 1.83498047 -0.03867187 3.70703125 -0.078125 C7.56013212 0.2851303 9.07855784 1.01502373 12.1875 3.25 C14.109375 5.65991211 14.109375 5.65991211 15.9375 8.52734375 C16.62166992 9.58808105 17.30583984 10.64881836 18.01074219 11.74169922 C18.7364875 12.89019879 19.46206967 14.03880146 20.1875 15.1875 C20.94587612 16.37063711 21.70532817 17.5530852 22.46582031 18.73486328 C23.99610597 21.11568663 25.52092241 23.49986375 27.04101562 25.88720703 C29.97653983 30.48615043 32.95621134 35.0556604 35.9375 39.625 C36.987426 41.24059512 38.03690848 42.85647856 39.0859375 44.47265625 C42.24370093 49.33664661 45.4025656 54.19991972 48.5625 59.0625 C49.35744873 60.2858606 49.35744873 60.2858606 50.16845703 61.53393555 C55.01197422 68.98510944 59.8688325 76.42755655 64.72631836 83.86962891 C68.98721435 90.40075154 73.2301001 96.94319318 77.45288086 103.49902344 C80.82992646 108.73090282 84.30013524 113.89305775 87.82421875 119.02734375 C89.1875 121.25 89.1875 121.25 89.1875 123.25 C77.03511209 123.34270935 64.88280841 123.41377 52.73013878 123.45724869 C47.08705523 123.47811706 41.44421376 123.50642148 35.80126953 123.55175781 C30.35477954 123.59524161 24.9085223 123.61914275 19.4618721 123.62950897 C17.38464316 123.63689573 15.30742686 123.65132037 13.23029709 123.67292023 C10.31910494 123.70198749 7.40887267 123.70595456 4.49755859 123.70410156 C3.64016083 123.71848267 2.78276306 123.73286377 1.89938354 123.74768066 C-3.49399865 123.71057211 -6.52680484 122.8216423 -10.8125 119.25 C-14.12550117 115.48929597 -15.92522098 113.15085862 -15.9798584 108.15304565 C-15.99134918 107.29519974 -16.00283997 106.43735382 -16.01467896 105.55351257 C-16.02208099 104.61014542 -16.02948303 103.66677826 -16.03710938 102.69482422 C-16.04849945 101.70276474 -16.05988953 100.71070526 -16.07162476 99.68858337 C-16.1823103 89.30352433 -16.22971442 78.9177513 -16.27246094 68.53222656 C-16.29473313 63.60446333 -16.33649634 58.67745776 -16.39550781 53.75 C-16.46660638 47.80185925 -16.50329522 41.85443147 -16.51557922 35.9058876 C-16.52597876 33.64046688 -16.54840023 31.37506766 -16.58317566 29.10988998 C-16.62942228 25.9329317 -16.6313767 22.75876373 -16.62304688 19.58154297 C-16.64664276 18.6503212 -16.67023865 17.71909943 -16.69454956 16.75965881 C-16.61434424 10.42048313 -14.91892794 7.27452909 -10.51056671 2.73443794 C-7.14506331 -0.20766139 -4.38579465 0.05510946 0 0 Z " fill="#FDFEFE" transform="translate(209.8125,860.75)"/>
<path d="M0 0 C2.36957906 2.12915519 3.54208333 3.85687099 4.58374023 6.8581543 C4.86003265 7.64020233 5.13632507 8.42225037 5.42098999 9.22799683 C5.86035385 10.51312668 5.86035385 10.51312668 6.30859375 11.82421875 C6.78735458 13.18935104 6.78735458 13.18935104 7.27578735 14.58206177 C8.33757156 17.61451849 9.38744974 20.65096227 10.4375 23.6875 C11.56039625 26.90575439 12.68628586 30.12295126 13.81242371 33.34007263 C14.60848436 35.61460665 15.4035564 37.88948689 16.19770813 40.16468811 C19.27601693 48.97292428 22.41160251 57.7594515 25.5703125 66.5390625 C26.03429451 67.83002502 26.49822806 69.12100496 26.96211243 70.41200256 C28.7790889 75.46754329 30.59614833 80.52304315 32.42160034 85.57553101 C33.6928569 89.09702355 34.95831569 92.62055086 36.22265625 96.14453125 C36.6062027 97.2017337 36.98974915 98.25893616 37.38491821 99.34817505 C37.73106171 100.31584808 38.0772052 101.28352112 38.43383789 102.28051758 C38.88987144 103.54560905 38.88987144 103.54560905 39.3551178 104.83625793 C40 107 40 107 40 110 C14.26 110 -11.48 110 -38 110 C-35.74991473 99.87461629 -35.74991473 99.87461629 -34.17504883 95.41235352 C-33.82269165 94.40599854 -33.47033447 93.39964355 -33.1072998 92.36279297 C-32.72771118 91.29561035 -32.34812256 90.22842773 -31.95703125 89.12890625 C-31.55609253 87.98881104 -31.15515381 86.84871582 -30.74206543 85.67407227 C-29.66063921 82.60263473 -28.57460457 79.5328795 -27.48617935 76.46391678 C-26.58411348 73.9178937 -25.68582006 71.37054702 -24.78760052 68.82316494 C-21.86870614 60.54511509 -18.93603947 52.27198167 -16 44 C-15.59652344 42.86256348 -15.19304688 41.72512695 -14.77734375 40.55322266 C-12.29439508 33.55441109 -9.80646855 26.55739226 -7.3125 19.5625 C-6.99326569 18.6666922 -6.67403137 17.7708844 -6.34512329 16.84793091 C-5.45693622 14.35768274 -4.56680778 11.86813965 -3.67578125 9.37890625 C-3.41631714 8.65147217 -3.15685303 7.92403809 -2.88952637 7.17456055 C-1.11598038 2.23196077 -1.11598038 2.23196077 0 0 Z " fill="#FCFDFD" transform="translate(1032,927)"/>
<path d="M0 0 C1.94202011 0.97618418 3.83222572 1.99321758 5.69921875 3.10546875 C6.02921875 2.11546875 6.35921875 1.12546875 6.69921875 0.10546875 C8.01921875 0.10546875 9.33921875 0.10546875 10.69921875 0.10546875 C10.69921875 10.66546875 10.69921875 21.22546875 10.69921875 32.10546875 C9.37921875 32.10546875 8.05921875 32.10546875 6.69921875 32.10546875 C6.36921875 31.11546875 6.03921875 30.12546875 5.69921875 29.10546875 C4.72984375 29.76546875 3.76046875 30.42546875 2.76171875 31.10546875 C-1.59991512 33.5588878 -5.39043485 34.06728918 -10.30078125 33.10546875 C-15.30139289 31.1087581 -19.28055826 28.08199511 -21.67578125 23.1953125 C-23.3876745 17.47116945 -23.23762297 12.01385004 -20.61328125 6.66796875 C-14.93108713 0.37148337 -8.45495906 -3.28724215 0 0 Z " fill="#FAFAFB" transform="translate(1400.30078125,1219.89453125)"/>
<path d="M0 0 C2.93851189 1.34681795 5.45791486 3.01177699 8 5 C8 3.68 8 2.36 8 1 C9.32 1 10.64 1 12 1 C12 11.56 12 22.12 12 33 C10.68 33 9.36 33 8 33 C7.67 31.68 7.34 30.36 7 29 C6.443125 29.680625 6.443125 29.680625 5.875 30.375 C2.50696751 33.2939615 -1.08675138 33.90037288 -5.4375 34.375 C-11.09010202 33.77998926 -14.54455865 31.57034462 -18.375 27.4375 C-21.76737538 22.34893693 -21.61093331 16.92265902 -21 11 C-16.5528041 1.94089724 -9.67523384 -1.32190695 0 0 Z " fill="#F9F9FA" transform="translate(654,1219)"/>
<path d="M0 0 C3.125 1.625 3.125 1.625 5.125 3.625 C5.455 2.305 5.785 0.985 6.125 -0.375 C7.115 -0.375 8.105 -0.375 9.125 -0.375 C9.125 10.185 9.125 20.745 9.125 31.625 C8.135 31.625 7.145 31.625 6.125 31.625 C5.795 30.305 5.465 28.985 5.125 27.625 C4.196875 28.264375 3.26875 28.90375 2.3125 29.5625 C-2.34692383 32.5774213 -6.40068024 33.32063179 -11.875 32.625 C-17.16414845 30.47348199 -20.19008816 27.89985903 -22.98828125 22.8984375 C-24.90716602 17.97865363 -24.90716602 13.27134637 -22.98828125 8.3515625 C-17.99135317 -0.57982391 -9.54058778 -3.85978136 0 0 Z " fill="#F8F9F9" transform="translate(1041.875,1220.375)"/>
<path d="M0 0 C4.4003222 2.5169843 6.98777471 5.75742133 8.75 10.5 C9.63727031 15.58806334 9.38845208 19.26869955 7 23.875 C-0.00324675 32.04545455 -0.00324675 32.04545455 -5.3984375 32.80078125 C-11.96790754 32.83535741 -15.88055439 31.49248835 -21 27.1875 C-24.68799523 22.78239459 -25.8015045 18.34439682 -25.625 12.5859375 C-24.78412331 7.90856089 -22.19903639 4.22172942 -18.67578125 1.109375 C-12.83199139 -2.75924113 -6.34675902 -2.6773522 0 0 Z " fill="#FAFAFB" transform="translate(1494.25,1220.5)"/>
<path d="M0 0 C4.56944444 2.13888889 4.56944444 2.13888889 6 5 C6.47527996 8.462754 6.68993938 10.94280058 4.73046875 13.9453125 C3.21487278 15.70797642 1.65837542 17.37169875 0 19 C-0.66 19.66 -1.32 20.32 -2 21 C2.455 25.95 2.455 25.95 7 31 C7.99 27.535 7.99 27.535 9 24 C9.99 24 10.98 24 12 24 C12.12816901 30.66478873 12.12816901 30.66478873 11.1875 33.125 C11.0946875 34.053125 11.0946875 34.053125 11 35 C13.39585286 37.64587234 13.39585286 37.64587234 16 40 C16 40.66 16 41.32 16 42 C13.40072042 41.56678674 11.34128041 41.20366734 9.0625 39.84375 C7.04344099 38.7475572 7.04344099 38.7475572 5.140625 39.6796875 C4.51671875 40.07414062 3.8928125 40.46859375 3.25 40.875 C-1.19842642 43.30592447 -3.94734935 43.65195492 -9 43 C-12.13180809 41.37609951 -14.24339744 39.99733974 -16.375 37.1875 C-17.35285878 33.76499428 -17.53535985 31.56906567 -17 28 C-14.93211079 25.05544953 -12.5637182 22.51793752 -10 20 C-11.39759905 16.45481116 -11.39759905 16.45481116 -13 13 C-13.68571429 6.02857143 -13.68571429 6.02857143 -11 2 C-7.16021329 -0.5598578 -4.48825826 -0.85231571 0 0 Z " fill="#0D1826" transform="translate(1593,1210)"/>
<path d="M0 0 C4.77967171 2.11050439 7.61130235 4.44232696 9.85546875 9.3046875 C9.85546875 11.9446875 9.85546875 14.5846875 9.85546875 17.3046875 C0.61546875 17.3046875 -8.62453125 17.3046875 -18.14453125 17.3046875 C-15.47857829 24.32660009 -15.47857829 24.32660009 -10.14453125 28.3046875 C-6.10148734 29.02636674 -3.05690953 28.73046403 0.66796875 26.9921875 C2.84522758 25.39787645 2.84522758 25.39787645 4.48046875 23.6171875 C5.85546875 22.3046875 5.85546875 22.3046875 8.85546875 22.3046875 C8.29282917 25.80978001 7.20361693 27.25736758 4.48046875 29.4921875 C3.87460938 30.00136719 3.26875 30.51054688 2.64453125 31.03515625 C-1.23033513 33.78478851 -5.56808738 33.90198073 -10.14453125 33.3046875 C-15.50742784 31.41253649 -18.4303023 28.31557172 -21.14453125 23.3046875 C-22.93409924 18.83076751 -23.07743768 13.61394467 -21.2734375 9.1484375 C-16.65177573 1.02643518 -9.31823725 -3.02121353 0 0 Z " fill="#141F2D" transform="translate(1795.14453125,1219.6953125)"/>
<path d="M0 0 C3.88446678 2.58964452 6.69907021 5.64814041 8.8125 9.875 C8.8125 12.185 8.8125 14.495 8.8125 16.875 C-0.4275 16.875 -9.6675 16.875 -19.1875 16.875 C-17.05368518 24.35443242 -17.05368518 24.35443242 -14.0625 26.875 C-10.03011639 28.27756821 -6.40723172 28.58593306 -2.1875 27.875 C0.68279869 26.08106332 2.30381638 24.89236724 3.8125 21.875 C5.1325 21.875 6.4525 21.875 7.8125 21.875 C6.41928155 26.75126457 3.87391704 28.95077973 -0.1875 31.875 C-2.125 32.6875 -2.125 32.6875 -4.1875 32.875 C-5.26 32.99875 -6.3325 33.1225 -7.4375 33.25 C-12.38467018 32.75528298 -15.49319926 31.17663103 -19.1875 27.875 C-22.67184955 23.38536193 -23.85599286 18.68235719 -23.57421875 13.046875 C-22.70289736 8.15339325 -20.26326053 4.87204635 -16.625 1.5 C-11.38219552 -1.99520299 -5.78544111 -2.04192039 0 0 Z " fill="#101B29" transform="translate(1200.1875,1220.125)"/>
<path d="M0 0 C3.88446678 2.58964452 6.69907021 5.64814041 8.8125 9.875 C8.8125 12.185 8.8125 14.495 8.8125 16.875 C-0.4275 16.875 -9.6675 16.875 -19.1875 16.875 C-17.05368518 24.35443242 -17.05368518 24.35443242 -14.0625 26.875 C-10.03011639 28.27756821 -6.40723172 28.58593306 -2.1875 27.875 C0.68279869 26.08106332 2.30381638 24.89236724 3.8125 21.875 C5.1325 21.875 6.4525 21.875 7.8125 21.875 C6.26727521 26.51067438 4.21648124 29.47686865 -0.0546875 31.9609375 C-4.42479802 33.83384201 -8.98102269 33.70873044 -13.41015625 32.03515625 C-18.61722249 29.14450452 -21.54023433 25.60954363 -23.1875 19.875 C-23.96166683 15.18967781 -23.72022682 11.30358634 -21.5 7.0625 C-15.96475454 -0.56716266 -8.98624366 -3.17161541 0 0 Z " fill="#071220" transform="translate(913.1875,1220.125)"/>
<path d="M0 0 C1.32 0 2.64 0 4 0 C6.42571715 5.51554647 8.84667244 11.03314828 11.26318359 16.55273438 C12.08641168 18.43124141 12.91095214 20.30917387 13.73681641 22.18652344 C14.92172905 24.88067054 16.10195028 27.57682963 17.28125 30.2734375 C17.65310425 31.11619232 18.0249585 31.95894714 18.40808105 32.82723999 C18.74843384 33.60789825 19.08878662 34.38855652 19.43945312 35.19287109 C19.7414563 35.88126068 20.04345947 36.56965027 20.35461426 37.27890015 C21 39 21 39 21 41 C19.68 41 18.36 41 17 41 C16.32880451 39.5437455 15.66318193 38.08492133 15 36.625 C14.62875 35.81289062 14.2575 35.00078125 13.875 34.1640625 C13 32 13 32 13 30 C5.74 30 -1.52 30 -9 30 C-9.495 32.475 -9.495 32.475 -10 35 C-10.95394836 37.02237052 -11.94535351 39.0282696 -13 41 C-14.32 40.67 -15.64 40.34 -17 40 C-15.22311871 35.74938359 -13.44490682 31.49932709 -11.66552734 27.24975586 C-11.0619825 25.807847 -10.45878427 24.365793 -9.85595703 22.92358398 C-6.64714975 15.2474571 -3.42328086 7.58375338 0 0 Z " fill="#101C2A" transform="translate(801,1211)"/>
<path d="M0 0 C3.3125 2 3.3125 2 6 4 C8.29092615 4.19900359 8.29092615 4.19900359 10.6875 2 C14.57873391 -0.34942425 16.52920905 -0.56900976 21 0 C25.22496614 1.8244172 26.96679695 3.92818931 29 8 C29.34057617 10.86254883 29.34057617 10.86254883 29.29296875 13.95703125 C29.2784668 15.62475586 29.2784668 15.62475586 29.26367188 17.32617188 C29.23853516 18.47666016 29.21339844 19.62714844 29.1875 20.8125 C29.16719727 22.56723633 29.16719727 22.56723633 29.14648438 24.35742188 C29.11120278 27.238752 29.0619028 30.11913904 29 33 C27.68 33 26.36 33 25 33 C24.98541748 32.25838623 24.97083496 31.51677246 24.95581055 30.75268555 C24.88140543 27.39709369 24.78471994 24.04250506 24.6875 20.6875 C24.65366211 18.93663086 24.65366211 18.93663086 24.61914062 17.15039062 C24.58369141 16.03212891 24.54824219 14.91386719 24.51171875 13.76171875 C24.48553467 12.73006592 24.45935059 11.69841309 24.43237305 10.63549805 C24.19569667 7.99642834 24.19569667 7.99642834 22.71411133 6.17114258 C20.3003072 4.52194469 17.89466979 4.53848184 15.03515625 4.40625 C11.58813826 5.41190592 10.75039583 6.8691177 9 10 C8.37489454 13.933189 8.3034498 17.83534919 8.25 21.8125 C8.20552734 23.42415039 8.20552734 23.42415039 8.16015625 25.06835938 C8.08965079 27.71231427 8.03685857 30.3553973 8 33 C6.68 33 5.36 33 4 33 C3.97494385 32.25838623 3.9498877 31.51677246 3.92407227 30.75268555 C3.80813868 27.39744672 3.68540015 24.04249056 3.5625 20.6875 C3.52318359 19.52025391 3.48386719 18.35300781 3.44335938 17.15039062 C3.40146484 16.03212891 3.35957031 14.91386719 3.31640625 13.76171875 C3.27974854 12.73006592 3.24309082 11.69841309 3.20532227 10.63549805 C3.09838758 7.89251742 3.09838758 7.89251742 2 5 C0.41906283 4.8642325 -1.16526952 4.76765255 -2.75 4.6875 C-4.07257813 4.60048828 -4.07257813 4.60048828 -5.421875 4.51171875 C-8.12926206 4.82061908 -8.12926206 4.82061908 -10.28125 6.78125 C-12.88377479 11.65506916 -12.67680515 16.36613805 -12.75 21.8125 C-12.77964844 22.88693359 -12.80929687 23.96136719 -12.83984375 25.06835938 C-12.91034921 27.71231427 -12.96314143 30.3553973 -13 33 C-13.99 33 -14.98 33 -16 33 C-16 22.44 -16 11.88 -16 1 C-15.01 1 -14.02 1 -13 1 C-12.67 1.66 -12.34 2.32 -12 3 C-11.319375 2.505 -10.63875 2.01 -9.9375 1.5 C-6.25859625 -0.37858915 -4.0908775 -0.50238846 0 0 Z " fill="#182331" transform="translate(1834,1219)"/>
<path d="M0 0 C2.875 1.3125 2.875 1.3125 5 3 C5.33 3.99 5.66 4.98 6 6 C6.66 6 7.32 6 8 6 C8.2475 5.38125 8.495 4.7625 8.75 4.125 C10.28822496 1.51001756 11.12350424 0.93291754 14 0 C19.00744188 -0.45522199 21.99998792 -0.1111205 26 3 C29.10324909 6.30826434 29.35878481 8.60263304 29.29296875 13.078125 C29.2784668 14.81835938 29.2784668 14.81835938 29.26367188 16.59375 C29.23853516 17.8003125 29.21339844 19.006875 29.1875 20.25 C29.16719727 22.08304688 29.16719727 22.08304688 29.14648438 23.953125 C29.1111398 26.96919498 29.0617956 29.98437487 29 33 C28.01 33 27.02 33 26 33 C25.970271 31.98631348 25.970271 31.98631348 25.93994141 30.95214844 C25.84456762 27.88437956 25.73493835 24.81728002 25.625 21.75 C25.5940625 20.68652344 25.563125 19.62304688 25.53125 18.52734375 C25.47324219 16.99013672 25.47324219 16.99013672 25.4140625 15.421875 C25.3826416 14.47924805 25.3512207 13.53662109 25.31884766 12.56542969 C24.9896789 9.91695703 24.42935843 8.24150834 23 6 C19.90826248 4.45413124 17.40570448 4.70640479 14 5 C11.63502561 6.86708505 10.33969285 8.32061431 9 11 C8.84777027 12.66565749 8.75082785 14.33656496 8.68359375 16.0078125 C8.64169922 16.99394531 8.59980469 17.98007813 8.55664062 18.99609375 C8.51732422 20.02863281 8.47800781 21.06117187 8.4375 22.125 C8.39431641 23.16527344 8.35113281 24.20554687 8.30664062 25.27734375 C8.2003712 27.85142528 8.09833417 30.42560508 8 33 C7.01 33 6.02 33 5 33 C4.98018066 32.32420898 4.96036133 31.64841797 4.93994141 30.95214844 C4.84456762 27.88437956 4.73493835 24.81728002 4.625 21.75 C4.5940625 20.68652344 4.563125 19.62304688 4.53125 18.52734375 C4.49257813 17.50253906 4.45390625 16.47773437 4.4140625 15.421875 C4.36693115 14.00793457 4.36693115 14.00793457 4.31884766 12.56542969 C3.9896789 9.91695703 3.42935843 8.24150834 2 6 C-1.09173752 4.45413124 -3.59429552 4.70640479 -7 5 C-9.36497439 6.86708505 -10.66030715 8.32061431 -12 11 C-12.15222973 12.66565749 -12.24917215 14.33656496 -12.31640625 16.0078125 C-12.35830078 16.99394531 -12.40019531 17.98007813 -12.44335938 18.99609375 C-12.48267578 20.02863281 -12.52199219 21.06117187 -12.5625 22.125 C-12.60568359 23.16527344 -12.64886719 24.20554687 -12.69335938 25.27734375 C-12.7996288 27.85142528 -12.90166583 30.42560508 -13 33 C-13.99 33 -14.98 33 -16 33 C-16 22.44 -16 11.88 -16 1 C-15.01 1 -14.02 1 -13 1 C-13 1.99 -13 2.98 -13 4 C-12.154375 3.34 -11.30875 2.68 -10.4375 2 C-6.4734284 -0.30636893 -4.5102277 -0.57402898 0 0 Z " fill="#020E1D" transform="translate(849,1219)"/>
<path d="M0 0 C1.94202011 0.97618418 3.83222572 1.99321758 5.69921875 3.10546875 C6.02921875 2.11546875 6.35921875 1.12546875 6.69921875 0.10546875 C8.01921875 0.10546875 9.33921875 0.10546875 10.69921875 0.10546875 C10.69921875 10.66546875 10.69921875 21.22546875 10.69921875 32.10546875 C9.37921875 32.10546875 8.05921875 32.10546875 6.69921875 32.10546875 C6.36921875 31.11546875 6.03921875 30.12546875 5.69921875 29.10546875 C4.72984375 29.76546875 3.76046875 30.42546875 2.76171875 31.10546875 C-1.59991512 33.5588878 -5.39043485 34.06728918 -10.30078125 33.10546875 C-15.30139289 31.1087581 -19.28055826 28.08199511 -21.67578125 23.1953125 C-23.3876745 17.47116945 -23.23762297 12.01385004 -20.61328125 6.66796875 C-14.93108713 0.37148337 -8.45495906 -3.28724215 0 0 Z M-17.30078125 8.10546875 C-19.27416973 12.05224572 -18.74368273 16.80386398 -18.30078125 21.10546875 C-16.69221049 24.38005922 -15.39034113 26.24938599 -12.55078125 28.48046875 C-7.86480134 29.78212984 -3.84710943 29.82708857 0.51171875 27.79296875 C3.71180202 25.32433308 5.40145413 23.99876261 6.69921875 20.10546875 C7.25087022 15.35764875 7.14375638 11.97866766 4.94921875 7.66796875 C2.26638743 4.61252197 0.35120835 3.36444402 -3.66796875 2.734375 C-10.06739577 2.56491977 -12.9122348 3.37934181 -17.30078125 8.10546875 Z " fill="#111D2B" transform="translate(1400.30078125,1219.89453125)"/>
<path d="M0 0 C2.93851189 1.34681795 5.45791486 3.01177699 8 5 C8 3.68 8 2.36 8 1 C9.32 1 10.64 1 12 1 C12 11.56 12 22.12 12 33 C10.68 33 9.36 33 8 33 C7.67 31.68 7.34 30.36 7 29 C6.443125 29.680625 6.443125 29.680625 5.875 30.375 C2.50696751 33.2939615 -1.08675138 33.90037288 -5.4375 34.375 C-11.09010202 33.77998926 -14.54455865 31.57034462 -18.375 27.4375 C-21.76737538 22.34893693 -21.61093331 16.92265902 -21 11 C-16.5528041 1.94089724 -9.67523384 -1.32190695 0 0 Z M-16 9 C-18.54676486 12.47286118 -18.3628022 15.79149443 -18 20 C-16.18686184 25.13722479 -13.89270769 27.59980377 -9 30 C-5.12981509 30.67538521 -1.89533222 30.38662073 1.75 28.8125 C6.35075916 25.10868264 6.35075916 25.10868264 8.45703125 19.69921875 C8.7741584 14.83906076 8.33617788 11.74575131 5.1875 7.9375 C2.0605239 4.65610533 -0.84308452 3.82569914 -5.3125 3.625 C-10.50495987 3.67574065 -12.50185154 5.24588945 -16 9 Z " fill="#101C2A" transform="translate(654,1219)"/>
<path d="M0 0 C4.32091122 2.4767285 7.2375483 6.21258452 9.6875 10.5 C9.6875 11.16 9.6875 11.82 9.6875 12.5 C8.3675 12.5 7.0475 12.5 5.6875 12.5 C4.32386792 10.52053408 2.99331356 8.5180755 1.6875 6.5 C-3.67873014 2.53325302 -8.8786371 2.73304946 -15.3125 3.5 C-19.21567861 4.77143822 -21.70123572 6.68498096 -24.1875 10 C-26.40929716 14.93732702 -27.45510484 20.08620518 -25.67578125 25.40234375 C-24.93098372 27.12082781 -24.12403524 28.8120067 -23.3125 30.5 C-22.9825 31.49 -22.6525 32.48 -22.3125 33.5 C-19.88866923 34.66953416 -19.88866923 34.66953416 -17.3125 35.5 C-16.6525 35.83 -15.9925 36.16 -15.3125 36.5 C-10.08409666 37.02113171 -5.67213246 37.14273534 -0.875 34.875 C1.84349007 32.54744785 1.84349007 32.54744785 3.8125 29.25 C4.740625 27.88875 4.740625 27.88875 5.6875 26.5 C7.0075 26.5 8.3275 26.5 9.6875 26.5 C8.12400981 32.61182527 5.28066367 35.72905896 0.125 39.25 C-4.50672407 41.62524311 -9.1330153 42.27028234 -14.3125 41.5 C-21.39053314 39.09756257 -25.60422984 35.95956738 -29.3125 29.5 C-31.3129223 23.49873311 -31.51486157 15.98307433 -29.44140625 9.9765625 C-23.38745454 -0.38462699 -11.21969182 -4.91673754 0 0 Z " fill="#111D2A" transform="translate(1158.3125,1211.5)"/>
<path d="M0 0 C3.125 1.625 3.125 1.625 5.125 3.625 C5.455 2.305 5.785 0.985 6.125 -0.375 C7.115 -0.375 8.105 -0.375 9.125 -0.375 C9.125 10.185 9.125 20.745 9.125 31.625 C8.135 31.625 7.145 31.625 6.125 31.625 C5.795 30.305 5.465 28.985 5.125 27.625 C4.196875 28.264375 3.26875 28.90375 2.3125 29.5625 C-2.34692383 32.5774213 -6.40068024 33.32063179 -11.875 32.625 C-17.16414845 30.47348199 -20.19008816 27.89985903 -22.98828125 22.8984375 C-24.90716602 17.97865363 -24.90716602 13.27134637 -22.98828125 8.3515625 C-17.99135317 -0.57982391 -9.54058778 -3.85978136 0 0 Z M-18.875 8.625 C-20.60075116 12.07650232 -20.23604194 15.8439062 -19.875 19.625 C-18.1340659 23.74826498 -15.71106863 26.32335882 -11.875 28.625 C-6.29706043 29.24477106 -2.63019841 28.86718073 2.125 25.625 C5.55372169 21.74513072 6.79319797 18.65836346 6.51171875 13.58203125 C5.65717269 9.25751026 3.19340624 6.54077678 -0.0625 3.75 C-7.91289589 0.60984164 -13.41175575 2.34877297 -18.875 8.625 Z " fill="#172230" transform="translate(1041.875,1220.375)"/>
<path d="M0 0 C2.59794964 1.38050043 4.60820306 2.80888238 6.3671875 5.1796875 C7.02940636 7.60782331 7.06887289 9.73685043 6.9296875 12.2421875 C5.6096875 12.2421875 4.2896875 12.2421875 2.9296875 12.2421875 C2.6615625 11.2934375 2.3934375 10.3446875 2.1171875 9.3671875 C1.17982162 5.98951477 1.17982162 5.98951477 -2.0703125 4.2421875 C-6.09257797 3.671811 -9.83911376 3.7617197 -13.6328125 5.2421875 C-15.94491528 8.45902615 -15.32532422 11.35325877 -15.0703125 15.2421875 C-14.28527344 15.42394531 -13.50023437 15.60570312 -12.69140625 15.79296875 C4.29044699 19.85611155 4.29044699 19.85611155 7.9296875 25.2421875 C8.41063616 29.57072544 8.42511084 32.06881643 6.7421875 36.0546875 C3.90482349 39.47909234 1.22632547 41.04744838 -3.19140625 41.7109375 C-13.24716134 41.80569138 -13.24716134 41.80569138 -16.8203125 38.8671875 C-20.08955396 35.05307246 -20.17804414 33.19784306 -20.0703125 28.2421875 C-19.0803125 28.2421875 -18.0903125 28.2421875 -17.0703125 28.2421875 C-16.41927083 30 -15.76822917 31.7578125 -15.1171875 33.515625 C-13.73939815 35.78794923 -12.54801645 36.33310188 -10.0703125 37.2421875 C-5.79299125 37.88981008 -2.24575559 37.95892109 1.4921875 35.6796875 C3.50011884 32.27493436 3.56423521 30.11997908 2.9296875 26.2421875 C-0.54858976 23.62561726 -3.84965134 22.67143042 -8.0703125 21.8046875 C-16.35778867 19.79652907 -16.35778867 19.79652907 -19.0703125 16.2421875 C-20.1010573 13.15584307 -20.45738887 10.4790435 -20.0703125 7.2421875 C-16.18046803 -0.52108859 -7.87793488 -2.88362145 0 0 Z " fill="#111D2B" transform="translate(1657.0703125,1210.7578125)"/>
<path d="M0 0 C4.4003222 2.5169843 6.98777471 5.75742133 8.75 10.5 C9.63727031 15.58806334 9.38845208 19.26869955 7 23.875 C-0.00324675 32.04545455 -0.00324675 32.04545455 -5.3984375 32.80078125 C-11.96790754 32.83535741 -15.88055439 31.49248835 -21 27.1875 C-24.68799523 22.78239459 -25.8015045 18.34439682 -25.625 12.5859375 C-24.78412331 7.90856089 -22.19903639 4.22172942 -18.67578125 1.109375 C-12.83199139 -2.75924113 -6.34675902 -2.6773522 0 0 Z M-20.25 8.5 C-22.12855086 12.25710172 -21.91379578 16.41978738 -21.25 20.5 C-19.24988833 23.93403788 -16.82648506 26.71175747 -13.25 28.5 C-8.9581916 29.1198407 -4.92940586 29.45106138 -1.0703125 27.265625 C2.46435516 24.3029575 4.33644888 22.20116932 5.05859375 17.484375 C5.32646921 12.84120042 4.97407468 10.1378766 1.9375 6.5 C-1.15510655 3.20121968 -4.03804213 2.31992065 -8.5 2.0625 C-13.88892992 2.08891632 -16.80692061 4.5445576 -20.25 8.5 Z " fill="#172230" transform="translate(1494.25,1220.5)"/>
<path d="M0 0 C4.12950737 1.45747319 6.80612094 3.22849086 9.19067383 6.95361328 C10.98885903 11.50033676 10.39720292 16.56825863 10.25 21.375 C10.23195313 22.49261719 10.21390625 23.61023437 10.1953125 24.76171875 C10.14835555 27.5087003 10.08269468 30.25390047 10 33 C8.68 33 7.36 33 6 33 C5.98598145 31.94087402 5.98598145 31.94087402 5.97167969 30.86035156 C5.91794341 27.65619455 5.83430243 24.45349243 5.75 21.25 C5.73582031 20.13882812 5.72164062 19.02765625 5.70703125 17.8828125 C5.67480469 16.81289062 5.64257812 15.74296875 5.609375 14.640625 C5.58842773 13.65610352 5.56748047 12.67158203 5.54589844 11.65722656 C4.8592872 8.31506344 3.6279179 7.11028381 1 5 C-1.16830269 4.30258533 -1.16830269 4.30258533 -3.4375 4.375 C-4.54931641 4.32472656 -4.54931641 4.32472656 -5.68359375 4.2734375 C-8.54757836 5.17175308 -10.17615569 6.59948595 -11.99389648 8.97216797 C-14.07191905 13.16048524 -13.7858654 17.78793036 -13.8125 22.375 C-13.83763672 23.39722656 -13.86277344 24.41945313 -13.88867188 25.47265625 C-13.9473051 27.98215812 -13.98375872 30.48992541 -14 33 C-15.32 33 -16.64 33 -18 33 C-18 22.44 -18 11.88 -18 1 C-16.68 1 -15.36 1 -14 1 C-13.67 1.99 -13.34 2.98 -13 4 C-12.154375 3.34 -11.30875 2.68 -10.4375 2 C-6.45336991 -0.31803932 -4.53455517 -0.5668194 0 0 Z " fill="#131F2E" transform="translate(1084,1219)"/>
<path d="M0 0 C4.0226217 1.56435288 5.59149109 2.38723663 8 6 C8 7.32 8 8.64 8 10 C7.01 10 6.02 10 5 10 C4.71125 9.360625 4.4225 8.72125 4.125 8.0625 C3.17176549 5.84793921 3.17176549 5.84793921 1 5 C-0.66345582 4.87917466 -2.33220591 4.8246206 -4 4.8125 C-4.886875 4.79832031 -5.77375 4.78414062 -6.6875 4.76953125 C-9.19519984 4.77286874 -9.19519984 4.77286874 -11 7 C-10.67958603 9.60280568 -10.67958603 9.60280568 -10 12 C-8.44539063 12.36351562 -8.44539063 12.36351562 -6.859375 12.734375 C-5.48940071 13.07217688 -4.11961885 13.41075984 -2.75 13.75 C-2.06808594 13.90726563 -1.38617187 14.06453125 -0.68359375 14.2265625 C3.6017052 15.30828845 6.32959031 16.41922337 9 20 C9.60070929 24.12987637 9.47042865 26.21595224 7.3125 29.8125 C3.26138498 33.64463583 -0.41087731 34.46833217 -6.00390625 34.3203125 C-9.37021271 33.78012242 -11.45634834 32.18027285 -14 30 C-15.78229676 27.32655486 -16 26.26229641 -16 23 C-14.68 23 -13.36 23 -12 23 C-11.71125 23.804375 -11.4225 24.60875 -11.125 25.4375 C-10.26737432 28.1326468 -10.26737432 28.1326468 -8 29 C-5.89044938 29.19738723 -5.89044938 29.19738723 -3.5625 29.1875 C-2.38880859 29.20876953 -2.38880859 29.20876953 -1.19140625 29.23046875 C1.29205987 29.14086064 1.29205987 29.14086064 4 27 C4.2502157 23.91634129 4.2502157 23.91634129 4 21 C0.85482088 19.57959653 -2.12749805 18.75558467 -5.5 18.125 C-9.56895188 17.22833615 -12.27783423 16.33684836 -15 13 C-15.70268476 10.17764634 -15.74036124 7.81684316 -15 5 C-10.45415295 0.3345254 -6.38824589 -0.67682159 0 0 Z " fill="#101B29" transform="translate(1728,1219)"/>
<path d="M0 0 C2.71333735 1.23333516 4.88116453 2.88116453 7 5 C7.04063832 6.66617115 7.042721 8.33388095 7 10 C6.01 10 5.02 10 4 10 C3.71125 9.360625 3.4225 8.72125 3.125 8.0625 C2.17176549 5.84793921 2.17176549 5.84793921 0 5 C-1.49756871 4.90500497 -2.99942932 4.87012802 -4.5 4.875 C-5.2940625 4.87242188 -6.088125 4.86984375 -6.90625 4.8671875 C-9.05918534 4.86722004 -9.05918534 4.86722004 -11 6 C-11 7.98 -11 9.96 -11 12 C-9.44539063 12.36351562 -9.44539063 12.36351562 -7.859375 12.734375 C-6.48940071 13.07217688 -5.11961885 13.41075984 -3.75 13.75 C-3.06808594 13.90726563 -2.38617187 14.06453125 -1.68359375 14.2265625 C2.6005299 15.30799177 5.34981229 16.40188621 8 20 C8.45468446 23.18279123 8.71154438 24.98640026 8 28 C5.82425584 30.69105198 4.08934144 32.45532928 1 34 C-4.4163919 34.55334456 -8.58899309 34.50285843 -13 31 C-13.598125 30.54625 -14.19625 30.0925 -14.8125 29.625 C-16.45014212 27.38401604 -16.21923623 25.70391348 -16 23 C-15.01 23 -14.02 23 -13 23 C-12.46375 23.99 -11.9275 24.98 -11.375 26 C-9.39802442 29.16096696 -9.39802442 29.16096696 -6.84765625 29.43359375 C-3.26658209 29.43939776 -0.41295014 29.13765005 3 28 C3.33 26.02 3.66 24.04 4 22 C0.71365089 19.59001065 -2.0478888 18.73846204 -6 18.125 C-9.61201104 17.46729053 -11.04427914 16.96811902 -14.125 14.75 C-16 12 -16 12 -16.625 9 C-15.79930566 5.03666717 -14.06558569 3.55465474 -11 1 C-7.53565392 -0.73217304 -3.78761864 -0.48298493 0 0 Z " fill="#182331" transform="translate(1891,1219)"/>
<path d="M0 0 C4.59438988 1.53146329 6.86379605 3.50371425 9.19067383 7.76000977 C10.84232844 12.33133136 10.40475718 17.14300367 10.25 21.9375 C10.23195313 23.00291016 10.21390625 24.06832031 10.1953125 25.16601562 C10.14845557 27.77828929 10.08286926 30.38866226 10 33 C8.68 33 7.36 33 6 33 C5.97494385 32.2886792 5.9498877 31.5773584 5.92407227 30.84448242 C5.80811561 27.62530483 5.68538755 24.40642015 5.5625 21.1875 C5.52318359 20.06794922 5.48386719 18.94839844 5.44335938 17.79492188 C5.40146484 16.72177734 5.35957031 15.64863281 5.31640625 14.54296875 C5.27974854 13.55321045 5.24309082 12.56345215 5.20532227 11.54370117 C5.09209669 8.8781649 5.09209669 8.8781649 4 6 C1.32296769 5.1076559 -0.59383084 4.74839658 -3.375 4.625 C-4.12523437 4.57601563 -4.87546875 4.52703125 -5.6484375 4.4765625 C-9.50453667 5.33489687 -10.72849753 6.77124951 -13 10 C-13.74836971 13.93492796 -13.7905233 17.81518163 -13.8125 21.8125 C-13.83763672 22.88693359 -13.86277344 23.96136719 -13.88867188 25.06835938 C-13.94743295 27.71260771 -13.98379376 30.35520488 -14 33 C-15.32 33 -16.64 33 -18 33 C-18 22.44 -18 11.88 -18 1 C-17.01 1 -16.02 1 -15 1 C-15 2.32 -15 3.64 -15 5 C-14.50371094 4.6390625 -14.00742188 4.278125 -13.49609375 3.90625 C-8.86352109 0.74168423 -5.78109372 -0.85645833 0 0 Z " fill="#15212F" transform="translate(1533,1219)"/>
<path d="M0 0 C4.91962764 2.15916991 7.38269759 4.55381622 9.859375 9.30078125 C9.859375 9.96078125 9.859375 10.62078125 9.859375 11.30078125 C8.539375 11.30078125 7.219375 11.30078125 5.859375 11.30078125 C4.82147919 9.65744621 3.82369576 7.98834258 2.859375 6.30078125 C-1.30126647 3.67912974 -5.36836749 3.7468585 -10.140625 4.30078125 C-14.0373561 5.9589647 -15.55529123 7.44174509 -17.140625 11.30078125 C-17.72622954 15.55211814 -17.60758773 19.22676698 -15.890625 23.17578125 C-13.39853017 26.20337064 -13.39853017 26.20337064 -10.140625 28.30078125 C-4.55606394 28.84122264 -0.93848768 28.49935637 3.859375 25.30078125 C5.26404453 23.2498498 5.26404453 23.2498498 5.859375 21.30078125 C7.179375 21.30078125 8.499375 21.30078125 9.859375 21.30078125 C8.61686716 26.27081263 7.1591641 28.50091858 2.859375 31.30078125 C-1.29355868 33.54561026 -5.50379633 34.11201279 -10.140625 33.30078125 C-14.81132337 31.47827644 -18.15242038 28.93142319 -20.640625 24.55078125 C-22.76853534 19.50649379 -23.19733747 14.59640328 -21.515625 9.3515625 C-17.40860551 0.89916971 -8.86053 -2.89422422 0 0 Z " fill="#15202E" transform="translate(1359.140625,1219.69921875)"/>
<path d="M0 0 C2.3190918 0.19311523 2.3190918 0.19311523 5 1 C6.57739258 3.13305664 6.57739258 3.13305664 7.89453125 5.91015625 C8.37470703 6.89951172 8.85488281 7.88886719 9.34960938 8.90820312 C9.83236328 9.94912109 10.31511719 10.99003906 10.8125 12.0625 C11.31458984 13.10728516 11.81667969 14.15207031 12.33398438 15.22851562 C13.57249489 17.81169469 14.79348327 20.40176258 16 23 C18.16131441 20.27049099 19.79176521 17.60606883 21.26171875 14.453125 C21.65810547 13.60878906 22.05449219 12.76445313 22.46289062 11.89453125 C23.06907227 10.58548828 23.06907227 10.58548828 23.6875 9.25 C24.31108398 7.91775391 24.31108398 7.91775391 24.94726562 6.55859375 C25.96896213 4.37427709 26.98637935 2.18807292 28 0 C29.32 0.33 30.64 0.66 32 1 C30.24213059 4.80544247 28.48218775 8.60991746 26.72045898 12.41357422 C26.12355787 13.70303471 25.52718797 14.99274127 24.93139648 16.28271484 C22.0826573 22.44979194 19.22492033 28.61350097 16.26171875 34.7265625 C15.89393311 35.48791504 15.52614746 36.24926758 15.1472168 37.03369141 C13.19515232 40.37949419 11.7011204 41.7662932 8 43 C5.66700175 43.03954234 3.33291811 43.04401732 1 43 C1 41.68 1 40.36 1 39 C2.2375 38.95875 3.475 38.9175 4.75 38.875 C8.33079415 38.4170654 8.88151471 38.12137518 11.5625 35.375 C13.25582281 31.39937254 13.18738271 29.03257025 12 25 C10.16856037 20.77541536 8.0658106 16.70649165 5.9375 12.625 C4.82018897 10.45125301 3.70422484 8.27681299 2.58984375 6.1015625 C2.09347412 5.14588379 1.59710449 4.19020508 1.08569336 3.20556641 C0 1 0 1 0 0 Z " fill="#0C1726" transform="translate(1673,1220)"/>
<path d="M0 0 C3.40814953 2.32373832 5.36295532 4.50505458 7.75 7.875 C7.75 8.865 7.75 9.855 7.75 10.875 C4.5491535 10.53205216 3.79586025 9.93058818 1.6875 7.375 C1.048125 6.55 0.40875 5.725 -0.25 4.875 C-4.30671355 3.52276215 -8.00834954 3.33081637 -12.25 3.875 C-15.72060168 5.94259249 -18.02725393 7.98444433 -19.25 11.875 C-19.73459952 17.10867486 -19.07735806 20.43200877 -16.25 24.875 C-12.48184573 28.31619945 -9.59600919 28.37976095 -4.66015625 28.234375 C-1.25405483 27.72649602 0.45351392 26.38678164 2.75 23.875 C3.41 22.885 4.07 21.895 4.75 20.875 C5.74 20.875 6.73 20.875 7.75 20.875 C7.53087133 24.70975164 6.80971606 25.81664113 4 28.5625 C-1.20656882 32.26717397 -4.80551691 33.44030553 -11.25 32.875 C-16.92549553 30.83182161 -20.54873721 27.27752559 -23.25 21.875 C-23.91816874 16.51446444 -24.51222572 11.15324807 -21.828125 6.30859375 C-15.65141112 -0.85797812 -9.12944173 -3.16019137 0 0 Z " fill="#101C2A" transform="translate(1001.25,1220.125)"/>
<path d="M0 0 C4.15690393 1.7950267 6.46455833 4.28654402 9 8 C9.45410156 10.86254883 9.45410156 10.86254883 9.390625 13.95703125 C9.37128906 15.62475586 9.37128906 15.62475586 9.3515625 17.32617188 C9.31804688 18.47666016 9.28453125 19.62714844 9.25 20.8125 C9.23195313 21.98232422 9.21390625 23.15214844 9.1953125 24.35742188 C9.1482644 27.2391178 9.08253709 30.11913797 9 33 C8.01 33 7.02 33 6 33 C5.98541748 32.35973877 5.97083496 31.71947754 5.95581055 31.05981445 C5.88108618 28.14345169 5.78450707 25.22820313 5.6875 22.3125 C5.66494141 21.30509766 5.64238281 20.29769531 5.61914062 19.25976562 C5.450648 12.10992527 5.450648 12.10992527 2 6 C-1.21694364 4.39152818 -4.52137222 4.38690851 -8 5 C-10.69105198 7.17574416 -12.45532928 8.91065856 -14 12 C-14.15175549 13.59262066 -14.24900325 15.19064856 -14.31640625 16.7890625 C-14.35830078 17.73007813 -14.40019531 18.67109375 -14.44335938 19.640625 C-14.50233398 21.11789062 -14.50233398 21.11789062 -14.5625 22.625 C-14.60568359 23.61757812 -14.64886719 24.61015625 -14.69335938 25.6328125 C-14.79961069 28.08839838 -14.90164964 30.54408703 -15 33 C-15.99 33 -16.98 33 -18 33 C-18 22.44 -18 11.88 -18 1 C-17.01 1 -16.02 1 -15 1 C-14.67 1.99 -14.34 2.98 -14 4 C-13.175 3.34 -12.35 2.68 -11.5 2 C-7.54118525 -0.62985094 -4.68553223 -0.52061469 0 0 Z " fill="#162230" transform="translate(745,1219)"/>
<path d="M0 0 C0 0.99 0 1.98 0 3 C-1.27875 3.12375 -2.5575 3.2475 -3.875 3.375 C-7.34790936 3.69042399 -7.34790936 3.69042399 -10 6 C-10.39764263 7.98821313 -10.73775349 9.98944339 -11 12 C-7.37 12 -3.74 12 0 12 C0 12.99 0 13.98 0 15 C-3.63 15 -7.26 15 -11 15 C-11 24.57 -11 34.14 -11 44 C-12.32 44 -13.64 44 -15 44 C-15 34.43 -15 24.86 -15 15 C-16.98 15 -18.96 15 -21 15 C-21 14.01 -21 13.02 -21 12 C-18.69 12 -16.38 12 -14 12 C-14.0825 10.7625 -14.165 9.525 -14.25 8.25 C-14.21890983 5.32752441 -14.06715887 4.12210703 -12.625 1.5 C-8.56988944 -0.81720603 -4.56419136 -0.3135704 0 0 Z " fill="#0F1B29" transform="translate(1311,1208)"/>
<path d="M0 0 C1.32 0 2.64 0 4 0 C4 2.97 4 5.94 4 9 C7.63 9 11.26 9 15 9 C15 9.99 15 10.98 15 12 C11.37 12 7.74 12 4 12 C4.0867681 15.60536404 4.1936268 19.20817495 4.3125 22.8125 C4.33505859 23.83666016 4.35761719 24.86082031 4.38085938 25.91601562 C4.41630859 26.89892578 4.45175781 27.88183594 4.48828125 28.89453125 C4.51446533 29.80050049 4.54064941 30.70646973 4.56762695 31.63989258 C5.08138914 34.44426245 5.70389342 35.34549629 8 37 C11.61023099 37.73041853 11.61023099 37.73041853 15 38 C15 38.99 15 39.98 15 41 C7.03411131 41.62477558 7.03411131 41.62477558 3 39.1875 C-0.02968074 35.87378669 -0.12258365 33.20697067 -0.09765625 28.89453125 C-0.09443359 27.91162109 -0.09121094 26.92871094 -0.08789062 25.91601562 C-0.07951172 24.89185547 -0.07113281 23.86769531 -0.0625 22.8125 C-0.05798828 21.77673828 -0.05347656 20.74097656 -0.04882812 19.67382812 C-0.0370401 17.11582734 -0.02058515 14.55794267 0 12 C-2.31 12 -4.62 12 -7 12 C-7 11.01 -7 10.02 -7 9 C-4.69 9 -2.38 9 0 9 C0 6.03 0 3.06 0 0 Z " fill="#0A1524" transform="translate(1751,1211)"/>
<path d="M0 0 C1.32 0 2.64 0 4 0 C4 2.97 4 5.94 4 9 C7.63 9 11.26 9 15 9 C15 9.99 15 10.98 15 12 C11.37 12 7.74 12 4 12 C4.08660786 15.79282686 4.19344386 19.58317421 4.3125 23.375 C4.33505859 24.45523437 4.35761719 25.53546875 4.38085938 26.6484375 C4.41630859 27.6796875 4.45175781 28.7109375 4.48828125 29.7734375 C4.51446533 30.72653809 4.54064941 31.67963867 4.56762695 32.66162109 C4.71031006 33.43328613 4.85299316 34.20495117 5 35 C8.44450737 37.29633824 10.93812283 37.54016485 15 38 C15 38.99 15 39.98 15 41 C7.03411131 41.62477558 7.03411131 41.62477558 3 39.1875 C-0.02968074 35.87378669 -0.12258365 33.20697067 -0.09765625 28.89453125 C-0.09443359 27.91162109 -0.09121094 26.92871094 -0.08789062 25.91601562 C-0.07951172 24.89185547 -0.07113281 23.86769531 -0.0625 22.8125 C-0.05798828 21.77673828 -0.05347656 20.74097656 -0.04882812 19.67382812 C-0.0370401 17.11582734 -0.02058515 14.55794267 0 12 C-2.31 12 -4.62 12 -7 12 C-7 11.01 -7 10.02 -7 9 C-4.69 9 -2.38 9 0 9 C0 6.03 0 3.06 0 0 Z " fill="#152331" transform="translate(1428,1211)"/>
<path d="M0 0 C2.84864678 1.56912521 5.0815686 3.36786644 7 6 C7.33 7.65 7.66 9.3 8 11 C-0.25 11 -8.5 11 -17 11 C-15.91910497 5.59552487 -14.98080159 4.49533798 -11 1 C-7.47604635 -0.76197683 -3.83654861 -0.66341624 0 0 Z " fill="#F3F4F5" transform="translate(1794,1223)"/>
<path d="M0 0 C4.07888397 0.05179535 6.5208115 0.5906683 9.75 3.25 C12.57037114 6.26487949 12.75 6.91722334 12.75 11.25 C4.83 11.25 -3.09 11.25 -11.25 11.25 C-10.16829788 5.8414894 -9.18053096 4.78747787 -5.25 1.25 C-3.68966377 -0.31033623 -2.16052864 0.04292441 0 0 Z " fill="#F4F5F6" transform="translate(1192.25,1222.75)"/>
<path d="M0 0 C4.07888397 0.05179535 6.5208115 0.5906683 9.75 3.25 C12.57037114 6.26487949 12.75 6.91722334 12.75 11.25 C4.83 11.25 -3.09 11.25 -11.25 11.25 C-10.16829788 5.8414894 -9.18053096 4.78747787 -5.25 1.25 C-3.68966377 -0.31033623 -2.16052864 0.04292441 0 0 Z " fill="#F4F5F6" transform="translate(905.25,1222.75)"/>
<path d="M0 0 C0.99 0 1.98 0 3 0 C3 2.97 3 5.94 3 9 C6.63 9 10.26 9 14 9 C14 9.99 14 10.98 14 12 C10.37 12 6.74 12 3 12 C3.08694665 15.41790299 3.1938292 18.83317658 3.3125 22.25 C3.33505859 23.21808594 3.35761719 24.18617187 3.38085938 25.18359375 C3.41630859 26.11816406 3.45175781 27.05273438 3.48828125 28.015625 C3.51446533 28.87446289 3.54064941 29.73330078 3.56762695 30.61816406 C4.0851649 33.46915233 5.04650788 34.88630718 7 37 C9.0316566 37.68850829 9.0316566 37.68850829 11.1875 37.75 C12.445625 37.8325 13.70375 37.915 15 38 C15 38.99 15 39.98 15 41 C13.44105441 41.16346226 11.8770539 41.27907115 10.3125 41.375 C9.44238281 41.44460938 8.57226562 41.51421875 7.67578125 41.5859375 C4.50469665 40.89153941 2.89661257 39.66358137 0.94848633 37.06787109 C-1.06418362 32.67988796 -0.50155263 27.84840732 -0.3125 23.125 C-0.27866211 21.52011719 -0.27866211 21.52011719 -0.24414062 19.8828125 C-0.18545633 17.25375593 -0.1034118 14.62761418 0 12 C-2.31 12 -4.62 12 -7 12 C-7 11.01 -7 10.02 -7 9 C-4.69 9 -2.38 9 0 9 C0 6.03 0 3.06 0 0 Z " fill="#000A19" transform="translate(683,1211)"/>
<path d="M0 0 C0.99 0 1.98 0 3 0 C3 2.97 3 5.94 3 9 C6.63 9 10.26 9 14 9 C14 9.99 14 10.98 14 12 C10.37 12 6.74 12 3 12 C3.08694665 15.41790299 3.1938292 18.83317658 3.3125 22.25 C3.33505859 23.21808594 3.35761719 24.18617187 3.38085938 25.18359375 C3.41630859 26.11816406 3.45175781 27.05273438 3.48828125 28.015625 C3.51446533 28.87446289 3.54064941 29.73330078 3.56762695 30.61816406 C4.09271448 33.51074108 4.95043685 34.90595158 7 37 C10.60465748 37.81314911 10.60465748 37.81314911 14 38 C14 38.99 14 39.98 14 41 C12.60696395 41.13657216 11.20993879 41.23271149 9.8125 41.3125 C9.03519531 41.37050781 8.25789063 41.42851563 7.45703125 41.48828125 C3.47671334 40.69728008 2.28929707 39.35333656 0 36 C-0.60987218 31.87835296 -0.47033681 27.84225059 -0.3125 23.6875 C-0.27866211 22.00430664 -0.27866211 22.00430664 -0.24414062 20.28710938 C-0.18533776 17.52337464 -0.10320401 14.76237446 0 12 C-2.31 12 -4.62 12 -7 12 C-7 11.01 -7 10.02 -7 9 C-4.69 9 -2.38 9 0 9 C0 6.03 0 3.06 0 0 Z " fill="#000918" transform="translate(1251,1211)"/>
<path d="M0 0 C3.07118793 1.36058142 4.69622317 3.47268022 6.875 6.00390625 C8.07382813 7.38255859 8.07382813 7.38255859 9.296875 8.7890625 C9.90015625 9.49933594 10.5034375 10.20960937 11.125 10.94140625 C10.125 13.94140625 10.125 13.94140625 8.34375 15.10546875 C4.6111008 16.51178376 1.04886844 16.51018718 -2.875 15.94140625 C-5.4375 14.37890625 -5.4375 14.37890625 -6.875 11.94140625 C-7.4375 8.50390625 -7.4375 8.50390625 -6.875 4.94140625 C-3.09637405 -0.09676169 -3.09637405 -0.09676169 0 0 Z " fill="#F9F9FA" transform="translate(1586.875,1233.05859375)"/>
<path d="M0 0 C7.51827663 -0.69328371 12.02597761 0.32758025 18 5 C18 3.68 18 2.36 18 1 C19.32 1 20.64 1 22 1 C22 11.56 22 22.12 22 33 C21.01 33 20.02 33 19 33 C19.33 29.37 19.66 25.74 20 22 C19.34 22 18.68 22 18 22 C17.98582031 21.34773438 17.97164062 20.69546875 17.95703125 20.0234375 C17.69090458 15.146846 17.41641289 10.84831894 13.875 7.1171875 C9.73474429 4.65028514 4.71679141 4.43632201 0 4 C0 2.68 0 1.36 0 0 Z " fill="#1C2532" transform="translate(644,1219)"/>
<path d="M0 0 C0.66 0 1.32 0 2 0 C3.33631721 2.97783718 4.66855104 5.95748332 6 8.9375 C6.3815625 9.78763672 6.763125 10.63777344 7.15625 11.51367188 C7.5171875 12.32255859 7.878125 13.13144531 8.25 13.96484375 C8.58515625 14.7137085 8.9203125 15.46257324 9.265625 16.23413086 C10 18 10 18 10 19 C4.39 19 -1.22 19 -7 19 C-6.10656817 14.53284086 -4.76463639 10.80385599 -2.9375 6.6875 C-2.65583984 6.04232422 -2.37417969 5.39714844 -2.08398438 4.73242188 C-1.3937257 3.15301642 -0.69746802 1.57623507 0 0 Z " fill="#F4F5F6" transform="translate(802,1218)"/>
<path d="M0 0 C0.99 0 1.98 0 3 0 C3 12.54 3 25.08 3 38 C9.27 38 15.54 38 22 38 C22 38.99 22 39.98 22 41 C14.74 41 7.48 41 0 41 C0 27.47 0 13.94 0 0 Z " fill="#000716" transform="translate(604,1211)"/>
<path d="M0 0 C1.32 0 2.64 0 4 0 C4 0.99 4 1.98 4 3 C4.66 2.505 5.32 2.01 6 1.5 C9.96633241 -0.48316621 12.60303262 -0.22357461 17 0 C17 0.99 17 1.98 17 3 C15.046875 3.390625 13.09375 3.78125 11.140625 4.171875 C8.29557414 5.27251511 6.94969424 6.65836723 5 9 C4.36470352 11.59415665 4.36470352 11.59415665 4.390625 14.421875 C4.35839844 15.44667969 4.32617188 16.47148438 4.29296875 17.52734375 C4.27169922 19.12255859 4.27169922 19.12255859 4.25 20.75 C4.22035156 21.82894531 4.19070313 22.90789062 4.16015625 24.01953125 C4.08953064 26.67976244 4.03679804 29.33912102 4 32 C2.68 32 1.36 32 0 32 C0 21.44 0 10.88 0 0 Z " fill="#0B1928" transform="translate(1221,1220)"/>
<path d="M0 0 C1.32 0 2.64 0 4 0 C4 0.99 4 1.98 4 3 C4.66 2.505 5.32 2.01 6 1.5 C9.96633241 -0.48316621 12.60303262 -0.22357461 17 0 C17 0.99 17 1.98 17 3 C15.4221875 3.0928125 15.4221875 3.0928125 13.8125 3.1875 C9.06813557 4.19859406 7.84684357 5.07597238 5 9 C4.2465021 12.93368578 4.20947444 16.81559311 4.1875 20.8125 C4.16236328 21.88693359 4.13722656 22.96136719 4.11132812 24.06835938 C4.05256705 26.71260771 4.01620624 29.35520488 4 32 C2.68 32 1.36 32 0 32 C0 21.44 0 10.88 0 0 Z " fill="#172230" transform="translate(934,1220)"/>
<path d="M0 0 C0.99 0 1.98 0 3 0 C3 10.56 3 21.12 3 32 C2.01 32 1.02 32 0 32 C-0.33 30.68 -0.66 29.36 -1 28 C-1.66 28.33 -2.32 28.66 -3 29 C-3.6875 27.3125 -3.6875 27.3125 -4 25 C-3.525625 24.2575 -3.05125 23.515 -2.5625 22.75 C-0.5247888 19.1636283 -0.26116667 15.99284397 -1 12 C-2.87178116 8.81711646 -2.87178116 8.81711646 -5 6 C-5.75 3.125 -5.75 3.125 -6 1 C-4.35 1.99 -2.7 2.98 -1 4 C-0.67 2.68 -0.34 1.36 0 0 Z " fill="#020C1C" transform="translate(1048,1220)"/>
<path d="M0 0 C3.57849992 0.29820833 4.76226484 0.74245358 7.25 3.4375 C10.48479704 8.1741671 10 8.18885971 10 15 C0.1 15 -9.8 15 -20 15 C-20 14.01 -20 13.02 -20 12 C-11.42 12 -2.84 12 6 12 C5.01 9.69 4.02 7.38 3 5 C2.814375 4.21625 2.62875 3.4325 2.4375 2.625 C2.293125 2.08875 2.14875 1.5525 2 1 C1.34 0.67 0.68 0.34 0 0 Z " fill="#050F1D" transform="translate(1199,1222)"/>
<path d="M0 0 C0.33 0 0.66 0 1 0 C1.33 2.31 1.66 4.62 2 7 C4.77052181 7.92350727 6.56688758 8.16329585 9.4375 8.1875 C10.58025391 8.20876953 10.58025391 8.20876953 11.74609375 8.23046875 C15.37621957 7.85927738 17.44581439 6.55418561 20 4 C20 4.66 20 5.32 20 6 C20.99 6 21.98 6 23 6 C23.33 5.01 23.66 4.02 24 3 C25.00593243 4.1196986 26.0045849 5.2459412 27 6.375 C27.556875 7.00148438 28.11375 7.62796875 28.6875 8.2734375 C30 10 30 10 30 12 C27.40072042 11.56678674 25.34128041 11.20366734 23.0625 9.84375 C21.04344099 8.7475572 21.04344099 8.7475572 19.140625 9.6796875 C18.51671875 10.07414062 17.8928125 10.46859375 17.25 10.875 C12.80157358 13.30592447 10.05265065 13.65195492 5 13 C-0.66176471 10.01470588 -0.66176471 10.01470588 -2 6 C-1.0625 2.8125 -1.0625 2.8125 0 0 Z " fill="#0F1C2A" transform="translate(1579,1240)"/>
<path d="M0 0 C1.32 0 2.64 0 4 0 C4 10.56 4 21.12 4 32 C2.68 32 1.36 32 0 32 C0 21.44 0 10.88 0 0 Z " fill="#152230" transform="translate(1453,1220)"/>
<path d="M0 0 C1.32 0 2.64 0 4 0 C4 10.56 4 21.12 4 32 C2.68 32 1.36 32 0 32 C0 21.44 0 10.88 0 0 Z " fill="#192533" transform="translate(1321,1220)"/>
<path d="M0 0 C1.32 0 2.64 0 4 0 C4 10.56 4 21.12 4 32 C2.68 32 1.36 32 0 32 C0 21.44 0 10.88 0 0 Z " fill="#1B2836" transform="translate(1276,1220)"/>
<path d="M0 0 C1.32 0 2.64 0 4 0 C4 10.56 4 21.12 4 32 C2.68 32 1.36 32 0 32 C0 21.44 0 10.88 0 0 Z " fill="#121F2E" transform="translate(708,1220)"/>
<path d="M0 0 C1.19109375 0.00773437 1.19109375 0.00773437 2.40625 0.015625 C3.2003125 0.01046875 3.994375 0.0053125 4.8125 0 C6.90625 0.265625 6.90625 0.265625 8.90625 2.265625 C9.46875 4.515625 9.46875 4.515625 8.90625 7.265625 C6.76863067 9.53118164 4.4038788 11.4115179 1.90625 13.265625 C-1.9375 11.4921875 -1.9375 11.4921875 -3.34375 9.453125 C-4.22443336 6.88446519 -4.37773813 4.96351224 -4.09375 2.265625 C-2.09375 0.265625 -2.09375 0.265625 0 0 Z " fill="#F1F2F3" transform="translate(1587.09375,1213.734375)"/>
<path d="M0 0 C0.66 0.33 1.32 0.66 2 1 C1.67 1.66 1.34 2.32 1 3 C1.66 3.66 2.32 4.32 3 5 C0 5 0 5 -3 4 C-7.80885298 3.36962601 -10.95803461 3.22406832 -14.9375 6.1875 C-16.83684718 8.77751889 -18.04129516 10.94957551 -19 14 C-19.66 14 -20.32 14 -21 14 C-21.33 15.98 -21.66 17.96 -22 20 C-22.33 20 -22.66 20 -23 20 C-23.54241113 13.35546361 -22.94958619 9.44402421 -19 4 C-13.37074336 -1.21735982 -7.26789368 -2.42263123 0 0 Z " fill="#162230" transform="translate(913,1220)"/>
<path d="M0 0 C0.99 0 1.98 0 3 0 C3.33 0.99 3.66 1.98 4 3 C4.99 3.33 5.98 3.66 7 4 C5.125 8.75 5.125 8.75 4 11 C3.84824451 12.59262066 3.75099675 14.19064856 3.68359375 15.7890625 C3.64169922 16.73007813 3.59980469 17.67109375 3.55664062 18.640625 C3.49766602 20.11789062 3.49766602 20.11789062 3.4375 21.625 C3.39431641 22.61757812 3.35113281 23.61015625 3.30664062 24.6328125 C3.20038931 27.08839838 3.09835036 29.54408703 3 32 C2.01 32 1.02 32 0 32 C0 21.44 0 10.88 0 0 Z " fill="#020B1A" transform="translate(727,1220)"/>
<path d="M0 0 C0.66 0 1.32 0 2 0 C2 0.99 2 1.98 2 3 C10.25 3 18.5 3 27 3 C27.33 2.01 27.66 1.02 28 0 C28 0.66 28 1.32 28 2 C28.66 2 29.32 2 30 2 C30 3.32 30 4.64 30 6 C20.76 6 11.52 6 2 6 C2 7.65 2 9.3 2 11 C1.34 10.67 0.68 10.34 0 10 C0 6.7 0 3.4 0 0 Z " fill="#000918" transform="translate(1775,1231)"/>
<path d="M0 0 C0.99 0 1.98 0 3 0 C3 10.56 3 21.12 3 32 C2.01 32 1.02 32 0 32 C-0.33 30.02 -0.66 28.04 -1 26 C-2.65 26.33 -4.3 26.66 -6 27 C-5.38125 25.989375 -4.7625 24.97875 -4.125 23.9375 C0.27310531 16.09265259 0.23838247 8.80690785 0 0 Z " fill="#10202E" transform="translate(1408,1220)"/>
<path d="M0 0 C0.66 0 1.32 0 2 0 C0 4 0 4 -1.04443359 5.81542969 C-2.17200394 8.39322721 -2.31613087 10.39575153 -2.4140625 13.203125 C-2.45273437 14.1828125 -2.49140625 15.1625 -2.53125 16.171875 C-2.5621875 17.18765625 -2.593125 18.2034375 -2.625 19.25 C-2.66367187 20.28125 -2.70234375 21.3125 -2.7421875 22.375 C-2.83631674 24.9164894 -2.92194979 27.45797433 -3 30 C-3.99 30 -4.98 30 -6 30 C-6 20.76 -6 11.52 -6 2 C-4.35 1.67 -2.7 1.34 -1 1 C-0.67 0.67 -0.34 0.34 0 0 Z " fill="#010919" transform="translate(860,1222)"/>
<path d="M0 0 C0.66 0 1.32 0 2 0 C2 1.32 2 2.64 2 4 C2.99 4 3.98 4 5 4 C4.84152588 4.71115967 4.68305176 5.42231934 4.51977539 6.1550293 C4.00385198 8.97891634 3.79569313 11.65298992 3.68359375 14.51953125 C3.64169922 15.54111328 3.59980469 16.56269531 3.55664062 17.61523438 C3.49766602 19.19788086 3.49766602 19.19788086 3.4375 20.8125 C3.39431641 21.88693359 3.35113281 22.96136719 3.30664062 24.06835938 C3.20089017 26.71212082 3.09879767 29.3559711 3 32 C2.01 32 1.02 32 0 32 C0 21.44 0 10.88 0 0 Z " fill="#000917" transform="translate(1818,1220)"/>
<path d="M0 0 C0.99 0 1.98 0 3 0 C3 10.56 3 21.12 3 32 C2.01 32 1.02 32 0 32 C0 21.44 0 10.88 0 0 Z " fill="#000A19" transform="translate(962,1220)"/>
<path d="M0 0 C0.33 0 0.66 0 1 0 C1.0093457 0.61520508 1.01869141 1.23041016 1.02832031 1.86425781 C1.08211085 4.66031086 1.16573819 7.4547062 1.25 10.25 C1.26417969 11.21808594 1.27835938 12.18617187 1.29296875 13.18359375 C1.41775539 18.74628532 1.41775539 18.74628532 3.8125 23.625 C6.79807393 25.50164647 9.52322191 25.73255553 13 26 C13 26.99 13 27.98 13 29 C11.60596244 29.10933628 10.20936224 29.18619553 8.8125 29.25 C8.03519531 29.29640625 7.25789063 29.3428125 6.45703125 29.390625 C2.69807108 28.79301607 1.42427125 27.99518926 -1 25 C-1.65171806 20.92511248 -1.51398751 16.9270097 -1.375 12.8125 C-1.36082031 11.69423828 -1.34664062 10.57597656 -1.33203125 9.42382812 C-1.18190515 1.18190515 -1.18190515 1.18190515 0 0 Z " fill="#030C1B" transform="translate(1430,1223)"/>
<path d="M0 0 C0.99 0 1.98 0 3 0 C3.65104167 1.7578125 4.30208333 3.515625 4.953125 5.2734375 C6.34376915 7.56696255 7.48132888 8.11314397 10 9 C12.59154919 9.24029959 12.59154919 9.24029959 15.25 9.125 C16.58804687 9.09792969 16.58804687 9.09792969 17.953125 9.0703125 C18.62859375 9.04710937 19.3040625 9.02390625 20 9 C20 10.32 20 11.64 20 13 C7.10292861 13.86108043 7.10292861 13.86108043 3.25 10.625 C-0.01924146 6.81088496 -0.10773164 4.95565556 0 0 Z " fill="#05101E" transform="translate(1637,1239)"/>
<path d="M0 0 C0 1.32 0 2.64 0 4 C-1.63260714 5.37482707 -3.30225062 6.70647667 -5 8 C-7.02713626 11.18147774 -7.35885209 14.02392927 -7.625 17.75 C-7.69976563 18.73484375 -7.77453125 19.7196875 -7.8515625 20.734375 C-7.90054688 21.48203125 -7.94953125 22.2296875 -8 23 C-8.66 23 -9.32 23 -10 23 C-11.97436212 19.05127576 -11.43829693 14.30383233 -11 10 C-8.94803413 5.82006953 -5.18623449 0 0 0 Z " fill="#030C1B" transform="translate(644,1220)"/>
<path d="M0 0 C0.33 0 0.66 0 1 0 C1.01458252 0.65073486 1.02916504 1.30146973 1.04418945 1.97192383 C1.11864549 4.91938306 1.21531266 7.86570642 1.3125 10.8125 C1.33505859 11.83666016 1.35761719 12.86082031 1.38085938 13.91601562 C1.41630859 14.89892578 1.45175781 15.88183594 1.48828125 16.89453125 C1.51446533 17.80050049 1.54064941 18.70646973 1.56762695 19.63989258 C2.08138914 22.44426245 2.70389342 23.34549629 5 25 C8.61023099 25.73041853 8.61023099 25.73041853 12 26 C12 26.99 12 27.98 12 29 C3.96498906 29.63019694 3.96498906 29.63019694 -0.0625 27 C-0.701875 26.34 -1.34125 25.68 -2 25 C-1.84152588 24.44280273 -1.68305176 23.88560547 -1.51977539 23.31152344 C-0.96429853 20.84122989 -0.791532 18.54446396 -0.68359375 16.015625 C-0.64169922 15.08105469 -0.59980469 14.14648438 -0.55664062 13.18359375 C-0.51732422 12.21550781 -0.47800781 11.24742188 -0.4375 10.25 C-0.39431641 9.26644531 -0.35113281 8.28289062 -0.30664062 7.26953125 C-0.20077948 4.84648725 -0.09869829 2.4233446 0 0 Z " fill="#20313D" transform="translate(1754,1223)"/>
<path d="M0 0 C0.33 1.32 0.66 2.64 1 4 C8.26 4 15.52 4 23 4 C23 4.33 23 4.66 23 5 C16.07 5 9.14 5 2 5 C1.67 6.65 1.34 8.3 1 10 C0.04605164 12.02237052 -0.94535351 14.0282696 -2 16 C-3.32 15.67 -4.64 15.34 -6 15 C-4.02 10.05 -2.04 5.1 0 0 Z " fill="#2D3A47" transform="translate(790,1236)"/>
<path d="M0 0 C0 7.92 0 15.84 0 24 C-0.99 24 -1.98 24 -3 24 C-3 16.41 -3 8.82 -3 1 C-1 0 -1 0 0 0 Z " fill="#000A19" transform="translate(1842,1228)"/>
<path d="M0 0 C0.99 0 1.98 0 3 0 C2.67 10.56 2.34 21.12 2 32 C1.34 32 0.68 32 0 32 C0 21.44 0 10.88 0 0 Z " fill="#262E39" transform="translate(1221,1220)"/>
<path d="M0 0 C0.99 0 1.98 0 3 0 C2.67 10.56 2.34 21.12 2 32 C1.34 32 0.68 32 0 32 C0 21.44 0 10.88 0 0 Z " fill="#2B333F" transform="translate(1066,1220)"/>
<path d="M0 0 C0.99 0.33 1.98 0.66 3 1 C3 1.66 3 2.32 3 3 C1.36739286 4.37482707 -0.30225062 5.70647667 -2 7 C-2.66 7.66 -3.32 8.32 -4 9 C-4.99 9 -5.98 9 -7 9 C-7 16.59 -7 24.18 -7 32 C-7.33 32 -7.66 32 -8 32 C-8.05783842 27.70838953 -8.0935412 23.41687855 -8.125 19.125 C-8.14175781 17.90167969 -8.15851563 16.67835937 -8.17578125 15.41796875 C-8.18222656 14.25136719 -8.18867187 13.08476563 -8.1953125 11.8828125 C-8.20578613 10.80402832 -8.21625977 9.72524414 -8.22705078 8.61376953 C-8 6 -8 6 -6 4 C-3.0625 1.8125 -3.0625 1.8125 0 0 Z " fill="#263340" transform="translate(1846,1220)"/>
<path d="M0 0 C0.99 0.33 1.98 0.66 3 1 C3 2.98 3 4.96 3 7 C2.34 6.01 1.68 5.02 1 4 C0.030625 4.66 -0.93875 5.32 -1.9375 6 C-6.25589579 8.51316476 -10.12632275 8.3978512 -15 8 C-15 7.34 -15 6.68 -15 6 C-14.01 6 -13.02 6 -12 6 C-12 5.34 -12 4.68 -12 4 C-11.21753906 3.79503906 -10.43507813 3.59007812 -9.62890625 3.37890625 C-8.61699219 3.10949219 -7.60507813 2.84007812 -6.5625 2.5625 C-5.55316406 2.29566406 -4.54382812 2.02882813 -3.50390625 1.75390625 C-1.08247999 1.24021923 -1.08247999 1.24021923 0 0 Z " fill="#13202F" transform="translate(1405,1245)"/>
<path d="M0 0 C4.6 2.2 4.6 2.2 6 5 C5.01 5.99 4.02 6.98 3 8 C2.67 7.505 2.34 7.01 2 6.5 C-1.17572747 4.11820439 -4.10246066 4.80831774 -8 5 C-8 4.34 -8 3.68 -8 3 C-9.65 3.66 -11.3 4.32 -13 5 C-8.57670364 0.42926043 -6.48621321 -0.43974327 0 0 Z " fill="#131E2C" transform="translate(870,1219)"/>
<path d="M0 0 C0.99 0 1.98 0 3 0 C3.556875 0.969375 4.11375 1.93875 4.6875 2.9375 C6.60197147 6.09632447 6.60197147 6.09632447 9.03515625 6.62109375 C11.01448135 6.84800051 13.00881714 6.93362724 15 7 C15.33 7.99 15.66 8.98 16 10 C6.13307899 10.77760323 6.13307899 10.77760323 1.8125 7.8125 C-0.11365965 4.82363158 -0.49602754 3.47219276 0 0 Z " fill="#0B1624" transform="translate(1875,1242)"/>
<path d="M0 0 C0.33 0.66 0.66 1.32 1 2 C-1 4 -1 4 -4.4375 4.25 C-8.21278069 4.61758774 -8.21278069 4.61758774 -9.9375 7.8125 C-11.21081851 11.07246886 -11.21081851 11.07246886 -11 15 C-13 13 -13 13 -13.4375 9.1875 C-13.33330662 5.82266671 -12.97086646 4.95629969 -11 2 C-6.97020535 -0.68652977 -4.76065969 -0.40344574 0 0 Z " fill="#192431" transform="translate(1593,1210)"/>
<path d="M0 0 C0.16435547 1.10408203 0.16435547 1.10408203 0.33203125 2.23046875 C1.46860121 9.55865231 1.46860121 9.55865231 5 16 C4.34 16.99 3.68 17.98 3 19 C-3.13795337 11.76036269 -3.13795337 11.76036269 -3.0625 5.875 C-3.05347656 4.96492188 -3.04445313 4.05484375 -3.03515625 3.1171875 C-3.02355469 2.41851563 -3.01195312 1.71984375 -3 1 C-1 0 -1 0 0 0 Z " fill="#041121" transform="translate(981,1231)"/>
<path d="M0 0 C0.66 0 1.32 0 2 0 C2 6.93 2 13.86 2 21 C1.01 21 0.02 21 -1 21 C-1.02895976 17.87501937 -1.04678483 14.7500731 -1.0625 11.625 C-1.07087891 10.73554687 -1.07925781 9.84609375 -1.08789062 8.9296875 C-1.09111328 8.07890625 -1.09433594 7.228125 -1.09765625 6.3515625 C-1.10289307 5.56604004 -1.10812988 4.78051758 -1.11352539 3.97119141 C-1 2 -1 2 0 0 Z " fill="#000615" transform="translate(752,1231)"/>
<path d="M0 0 C0.33 0.99 0.66 1.98 1 3 C1.66 2.505 2.32 2.01 3 1.5 C6.96633241 -0.48316621 9.60303262 -0.22357461 14 0 C14 0.99 14 1.98 14 3 C12.39125 3.12375 12.39125 3.12375 10.75 3.25 C6.60532012 4.07893598 5.77733602 5.03112357 3 8 C1.68 8 0.36 8 -1 8 C-0.67 5.36 -0.34 2.72 0 0 Z " fill="#182331" transform="translate(937,1220)"/>
<path d="M0 0 C4.6 2.2 4.6 2.2 6 5 C5.72057545 6.67654729 5.39171753 8.34608154 5 10 C4.34 9.21625 3.68 8.4325 3 7.625 C-0.73674422 4.35534881 -3.21636862 4.03645347 -8 3 C-8.33 2.34 -8.66 1.68 -9 1 C-5.93570224 -0.53214888 -3.3834358 -0.22938548 0 0 Z " fill="#162230" transform="translate(849,1219)"/>
<path d="M0 0 C0.86325845 2.41712366 1.1132654 3.64990694 0.3125 6.125 C-1.32315396 8.46164852 -2.28097754 9.11815488 -5 10 C-7.33203812 10.0777346 -9.66839059 10.08967728 -12 10 C-12 8.68 -12 7.36 -12 6 C-10.7625 5.938125 -9.525 5.87625 -8.25 5.8125 C-4.69449876 5.39643071 -4.15360875 5.15744896 -1.5 2.4375 C-1.005 1.633125 -0.51 0.82875 0 0 Z " fill="#1B2633" transform="translate(1686,1253)"/>
<path d="M0 0 C0.99 0 1.98 0 3 0 C3 0.66 3 1.32 3 2 C4.91425781 1.96519531 4.91425781 1.96519531 6.8671875 1.9296875 C8.5364525 1.91093171 10.2057238 1.89273131 11.875 1.875 C12.71675781 1.85824219 13.55851563 1.84148437 14.42578125 1.82421875 C15.23144531 1.81777344 16.03710938 1.81132813 16.8671875 1.8046875 C17.61081543 1.79421387 18.35444336 1.78374023 19.12060547 1.77294922 C21 2 21 2 23 4 C15.41 4 7.82 4 0 4 C0 2.68 0 1.36 0 0 Z " fill="#000515" transform="translate(791,1236)"/>
<path d="M0 0 C0.66 0 1.32 0 2 0 C2.33 3.3 2.66 6.6 3 10 C3.66 9.67 4.32 9.34 5 9 C8 13.625 8 13.625 8 17 C7.01 17.33 6.02 17.66 5 18 C0.4018673 11.47361811 -0.12957943 7.77476558 0 0 Z " fill="#1D2835" transform="translate(1773,1231)"/>
<path d="M0 0 C0.495 0.639375 0.99 1.27875 1.5 1.9375 C4.98806387 4.81515269 7.53461041 4.70230736 12 5 C12 5.99 12 6.98 12 8 C8.61884349 8.29036649 5.37080851 8.44908891 2 8 C-0.625 5.5 -0.625 5.5 -2 3 C-1.34 2.01 -0.68 1.02 0 0 Z " fill="#0E1A29" transform="translate(686,1244)"/>
<path d="M0 0 C1.32 0 2.64 0 4 0 C2.81079495 4.36041851 1.72939349 7.30654915 -2 10 C-5.25 10.25 -5.25 10.25 -8 10 C-7.236875 9.278125 -6.47375 8.55625 -5.6875 7.8125 C-2.94440674 5.17906881 -2.94440674 5.17906881 -1.4375 2.1875 C-0.963125 1.465625 -0.48875 0.74375 0 0 Z " fill="#1F2A37" transform="translate(1164,1238)"/>
<path d="M0 0 C1.79398884 0.25499841 3.58520875 0.52953814 5.375 0.8125 C6.87160156 1.03873047 6.87160156 1.03873047 8.3984375 1.26953125 C11 2 11 2 13 5 C12 6 12 6 8.75 6.1875 C5.26778825 6.01338941 3.09785183 5.50198876 0 4 C0 2.68 0 1.36 0 0 Z " fill="#192431" transform="translate(985,1247)"/>
<path d="M0 0 C5.71937959 1.85493392 11.35555275 3.93103891 17 6 C17 6.33 17 6.66 17 7 C6.25041426 7.86073195 6.25041426 7.86073195 2.3125 4.625 C0 2 0 2 0 0 Z " fill="#07101F" transform="translate(1473,1245)"/>
<path d="M0 0 C1.79133978 -0.05391993 3.58313899 -0.09275571 5.375 -0.125 C6.37273437 -0.14820313 7.37046875 -0.17140625 8.3984375 -0.1953125 C11 0 11 0 13 2 C9.57905758 4.28062828 8.31812778 4.21925007 4.3125 4.125 C2.82169922 4.09792969 2.82169922 4.09792969 1.30078125 4.0703125 C0.54152344 4.04710937 -0.21773437 4.02390625 -1 4 C-0.67 2.68 -0.34 1.36 0 0 Z " fill="#172230" transform="translate(1143,1210)"/>
<path d="M0 0 C0.515625 0.639375 1.03125 1.27875 1.5625 1.9375 C4.65935623 4.55791681 7.02067623 4.69389817 11 5 C11 5.99 11 6.98 11 8 C9.5629191 8.05422947 8.12524538 8.09289723 6.6875 8.125 C5.88699219 8.14820313 5.08648438 8.17140625 4.26171875 8.1953125 C2 8 2 8 -1 6 C-0.67 4.02 -0.34 2.04 0 0 Z " fill="#0C1724" transform="translate(1254,1244)"/>
<path d="M0 0 C0.66 0 1.32 0 2 0 C2 8.25 2 16.5 2 25 C1.01 24.34 0.02 23.68 -1 23 C-1.05669751 19.97712767 -0.95388271 17.18371609 -0.6875 14.1875 C-0.56538746 12.57689984 -0.44426686 10.96622411 -0.32421875 9.35546875 C-0.26411621 8.60056152 -0.20401367 7.8456543 -0.14208984 7.06787109 C0.0201019 4.7074517 0.05277304 2.36519153 0 0 Z " fill="#000616" transform="translate(1408,1220)"/>
<path d="M0 0 C0 1.32 0 2.64 0 4 C-2.375 6.125 -2.375 6.125 -5 8 C-5.66 8.66 -6.32 9.32 -7 10 C-7.99 9.34 -8.98 8.68 -10 8 C-9.04578192 6.85073734 -8.08647955 5.70569459 -7.125 4.5625 C-6.59132813 3.92441406 -6.05765625 3.28632812 -5.5078125 2.62890625 C-3.68057607 0.65492285 -2.70796331 0 0 0 Z " fill="#0A1625" transform="translate(644,1220)"/>
<path d="M0 0 C2.80161919 1.43497568 3.9687994 2.62837267 5.5625 5.3125 C5.5625 5.9725 5.5625 6.6325 5.5625 7.3125 C1.81668786 6.80630917 0.04955839 6.15485245 -2.4375 3.3125 C-3.0975 2.9825 -3.7575 2.6525 -4.4375 2.3125 C-4.4375 1.6525 -4.4375 0.9925 -4.4375 0.3125 C-2.4375 -0.6875 -2.4375 -0.6875 0 0 Z " fill="#0E1A28" transform="translate(1087.4375,1220.6875)"/>
<path d="M0 0 C-1.30613942 3.91841827 -2.83129848 6.32640809 -6 9 C-6.66 9 -7.32 9 -8 9 C-8.8125 7.3125 -8.8125 7.3125 -9 5 C-5.02272727 0 -5.02272727 0 0 0 Z " fill="#0E1A27" transform="translate(921,1242)"/>
<path d="M0 0 C0.99 0 1.98 0 3 0 C3.28999491 4.92991345 3.19703098 8.09251769 0 12 C-0.99 12 -1.98 12 -3 12 C-3.33 11.01 -3.66 10.02 -4 9 C-3.01 8.67 -2.02 8.34 -1 8 C-0.67 5.36 -0.34 2.72 0 0 Z " fill="#050F1E" transform="translate(1602,1234)"/>
<path d="M0 0 C4.875 2.875 4.875 2.875 6 4 C6.04063832 5.66617115 6.042721 7.33388095 6 9 C5.01 9 4.02 9 3 9 C2.62875 8.1028125 2.62875 8.1028125 2.25 7.1875 C0.83629988 4.71352479 -0.65055383 3.56629745 -3 2 C-2.01 1.34 -1.02 0.68 0 0 Z " fill="#0A1725" transform="translate(1892,1220)"/>
<path d="M0 0 C4.05997773 0.0292611 6.80745935 1.14697561 10.3125 3.25 C6.19615073 4.79363098 2.54153156 3.98840234 -1.6875 3.25 C-2.6775 2.59 -3.6675 1.93 -4.6875 1.25 C-3.6875 0.25 -3.6875 0.25 0 0 Z " fill="#111A29" transform="translate(1393.6875,1218.75)"/>
<path d="M0 0 C0.66 0.33 1.32 0.66 2 1 C1.67 9.91 1.34 18.82 1 28 C0.67 28 0.34 28 0 28 C-0.19619224 23.70868391 -0.38048583 19.41693898 -0.5625 15.125 C-0.61857422 13.90167969 -0.67464844 12.67835937 -0.73242188 11.41796875 C-0.78076172 10.25136719 -0.82910156 9.08476563 -0.87890625 7.8828125 C-0.9260376 6.80402832 -0.97316895 5.72524414 -1.02172852 4.61376953 C-1 2 -1 2 0 0 Z " fill="#010411" transform="translate(875,1224)"/>
<path d="M0 0 C0.556875 0.391875 1.11375 0.78375 1.6875 1.1875 C-2.9375 6.0625 -2.9375 6.0625 -6.3125 7.1875 C-6.6425 7.8475 -6.9725 8.5075 -7.3125 9.1875 C-7.625 5.875 -7.625 5.875 -7.3125 2.1875 C-4.67013577 -0.23466721 -3.48074224 -1.22296349 0 0 Z " fill="#061221" transform="translate(1524.3125,1221.8125)"/>
<path d="M0 0 C4.92127034 -0.16682272 8.50343896 -0.24828052 13 2 C12.34 3.32 11.68 4.64 11 6 C6.545 5.01 6.545 5.01 2 4 C2.66 3.34 3.32 2.68 4 2 C2.68 1.34 1.36 0.68 0 0 Z " fill="#212D3B" transform="translate(1189,1219)"/>
<path d="M0 0 C0.33 0.99 0.66 1.98 1 3 C1.66 3.33 2.32 3.66 3 4 C-2.01989102 8.11888494 -5.59858988 8.51211281 -12 8 C-12 7.67 -12 7.34 -12 7 C-8.535 6.505 -8.535 6.505 -5 6 C-4.67 5.01 -4.34 4.02 -4 3 C-3.01 2.67 -2.02 2.34 -1 2 C-0.67 1.34 -0.34 0.68 0 0 Z " fill="#2A3542" transform="translate(1895,1245)"/>
<path d="M0 0 C3.625 -0.1875 3.625 -0.1875 7 0 C7.33 0.66 7.66 1.32 8 2 C6.56328432 2.64757625 5.12559584 3.29299453 3.6875 3.9375 C2.88699219 4.29714844 2.08648438 4.65679688 1.26171875 5.02734375 C-1 6 -1 6 -4 7 C-2.79618552 4.50638429 -1.54571278 2.31856917 0 0 Z " fill="#081221" transform="translate(1186,1220)"/>
<path d="M0 0 C1.32 0.33 2.64 0.66 4 1 C4.12375 2.134375 4.2475 3.26875 4.375 4.4375 C4.684375 6.2009375 4.684375 6.2009375 5 8 C5.66 8.33 6.32 8.66 7 9 C5.02 9 3.04 9 1 9 C0.67 6.03 0.34 3.06 0 0 Z " fill="#182432" transform="translate(1637,1218)"/>
<path d="M0 0 C0.05391993 1.79133978 0.09275571 3.58313899 0.125 5.375 C0.14820313 6.37273437 0.17140625 7.37046875 0.1953125 8.3984375 C0 11 0 11 -2 13 C-3 12 -3 12 -3.09765625 9.49609375 C-3.08605469 8.48675781 -3.07445312 7.47742187 -3.0625 6.4375 C-3.05347656 5.42558594 -3.04445313 4.41367188 -3.03515625 3.37109375 C-3.02355469 2.58863281 -3.01195312 1.80617188 -3 1 C-1 0 -1 0 0 0 Z " fill="#010918" transform="translate(1131,1226)"/>
<path d="M0 0 C-0.33 0.99 -0.66 1.98 -1 3 C-4.3 3 -7.6 3 -11 3 C-11.33 2.01 -11.66 1.02 -12 0 C-10.37585622 -0.19477739 -8.75063577 -0.38059458 -7.125 -0.5625 C-6.22007813 -0.66691406 -5.31515625 -0.77132813 -4.3828125 -0.87890625 C-2 -1 -2 -1 0 0 Z " fill="#010A18" transform="translate(1658,1249)"/>
<path d="M0 0 C0 0.66 0 1.32 0 2 C0.66 2.33 1.32 2.66 2 3 C-0.64 4.65 -3.28 6.3 -6 8 C-6.33 6.68 -6.66 5.36 -7 4 C-2.25 0 -2.25 0 0 0 Z " fill="#0C1826" transform="translate(901,1220)"/>
<path d="M0 0 C3.16115776 1.36983503 3.9927092 1.9890638 6 5 C6 6.32 6 7.64 6 9 C5.34 9 4.68 9 4 9 C3.67 9.66 3.34 10.32 3 11 C2.86722656 10.37351562 2.73445312 9.74703125 2.59765625 9.1015625 C2.42105469 8.28429688 2.24445312 7.46703125 2.0625 6.625 C1.80146484 5.40683594 1.80146484 5.40683594 1.53515625 4.1640625 C1.07669307 1.970537 1.07669307 1.970537 0 0 Z " fill="#0B1624" transform="translate(748,1222)"/>
<path d="M0 0 C0.99 0 1.98 0 3 0 C2.67 3.63 2.34 7.26 2 11 C1.67 11 1.34 11 1 11 C0.896875 10.21625 0.79375 9.4325 0.6875 8.625 C0.22404978 5.66954819 0.22404978 5.66954819 -3 4 C-1.6875 2 -1.6875 2 0 0 Z " fill="#132230" transform="translate(661,1241)"/>
<path d="M0 0 C-1.9626228 2.04795423 -3.4277307 2.94976638 -6.26953125 3.19921875 C-8.51954383 3.18858877 -10.75385562 3.12958525 -13 3 C-13 2.67 -13 2.34 -13 2 C-11.35 1.67 -9.7 1.34 -8 1 C-8.66 0.34 -9.32 -0.32 -10 -1 C-5.92224809 -1.9267618 -3.57818963 -2.33958553 0 0 Z " fill="#293744" transform="translate(1495,1250)"/>
<path d="M0 0 C0.33 0 0.66 0 1 0 C1.33 2.31 1.66 4.62 2 7 C2.99 7.33 3.98 7.66 5 8 C4.01 8.99 3.02 9.98 2 11 C0.68 9.68 -0.64 8.36 -2 7 C-1.34 4.69 -0.68 2.38 0 0 Z " fill="#1D2A37" transform="translate(1579,1240)"/>
<path d="M0 0 C0.99 0 1.98 0 3 0 C2.34 3.96 1.68 7.92 1 12 C-0.65261288 8.69477423 -1.63201647 6.58783942 -2 3 C-1.34 2.01 -0.68 1.02 0 0 Z " fill="#091725" transform="translate(1472,1226)"/>
<path d="M0 0 C0 4.29 0 8.58 0 13 C-0.66 13 -1.32 13 -2 13 C-2.66 9.37 -3.32 5.74 -4 2 C-1 0 -1 0 0 0 Z " fill="#02101F" transform="translate(664,1225)"/>
<path d="M0 0 C1.36511719 0.29197266 1.36511719 0.29197266 2.7578125 0.58984375 C3.45648437 0.74582031 4.15515625 0.90179687 4.875 1.0625 C1.90091724 3.04522184 0.39824572 3.89063436 -3.125 4.0625 C-5.4375 2.125 -5.4375 2.125 -7.125 0.0625 C-4.4030754 -1.2984623 -2.9418043 -0.64116248 0 0 Z " fill="#0B1726" transform="translate(1786.125,1247.9375)"/>
<path d="M0 0 C1.36511719 0.29197266 1.36511719 0.29197266 2.7578125 0.58984375 C3.45648437 0.74582031 4.15515625 0.90179687 4.875 1.0625 C1.90091724 3.04522184 0.39824572 3.89063436 -3.125 4.0625 C-5.4375 2.125 -5.4375 2.125 -7.125 0.0625 C-4.4030754 -1.2984623 -2.9418043 -0.64116248 0 0 Z " fill="#0B1726" transform="translate(1350.125,1247.9375)"/>
<path d="M0 0 C1.36511719 0.29197266 1.36511719 0.29197266 2.7578125 0.58984375 C3.45648437 0.74582031 4.15515625 0.90179687 4.875 1.0625 C1.90091724 3.04522184 0.39824572 3.89063436 -3.125 4.0625 C-5.4375 2.125 -5.4375 2.125 -7.125 0.0625 C-4.4030754 -1.2984623 -2.9418043 -0.64116248 0 0 Z " fill="#0A1726" transform="translate(1031.125,1247.9375)"/>
<path d="M0 0 C0.99 0 1.98 0 3 0 C2.43628586 3.26954202 1.50037734 4.82575883 -1 7 C-1.99 6.67 -2.98 6.34 -4 6 C-2.84826645 3.53199953 -1.95216435 1.95216435 0 0 Z " fill="#0C1624" transform="translate(1801,1242)"/>
<path d="M0 0 C0 0.99 0 1.98 0 3 C-2.97 3 -5.94 3 -9 3 C-9.33 2.34 -9.66 1.68 -10 1 C-6.78548731 -0.60725635 -3.56387464 -0.05748185 0 0 Z " fill="#040D1C" transform="translate(1766,1249)"/>
<path d="M0 0 C0.99 0.33 1.98 0.66 3 1 C-0.09902323 4.09902323 -2.39147385 3.9898579 -6.75 4.0625 C-7.8225 4.041875 -8.895 4.02125 -10 4 C-10 3.34 -10 2.68 -10 2 C-9.04287109 1.90912109 -9.04287109 1.90912109 -8.06640625 1.81640625 C-6.82697266 1.69072266 -6.82697266 1.69072266 -5.5625 1.5625 C-4.73878906 1.48128906 -3.91507813 1.40007812 -3.06640625 1.31640625 C-1.01337975 1.21069185 -1.01337975 1.21069185 0 0 Z " fill="#212A38" transform="translate(1199,1249)"/>
<path d="M0 0 C0.33 0 0.66 0 1 0 C1 1.98 1 3.96 1 6 C-0.98 6.99 -0.98 6.99 -3 8 C-3.433125 7.54625 -3.86625 7.0925 -4.3125 6.625 C-6.10798342 4.79975666 -6.10798342 4.79975666 -9 3 C-2.25 2.875 -2.25 2.875 0 4 C0 2.68 0 1.36 0 0 Z " fill="#26323F" transform="translate(662,1220)"/>
<path d="M0 0 C2.64 0 5.28 0 8 0 C8 0.99 8 1.98 8 3 C5.36 3.33 2.72 3.66 0 4 C0 2.68 0 1.36 0 0 Z " fill="#020C1B" transform="translate(943,1220)"/>
<path d="M0 0 C0.66 0.33 1.32 0.66 2 1 C2 3.64 2 6.28 2 9 C1.01 9.33 0.02 9.66 -1 10 C-1.125 2.25 -1.125 2.25 0 0 Z " fill="#020B1A" transform="translate(1897,1238)"/>
<path d="M0 0 C0.99 0.99 1.98 1.98 3 3 C2.2884375 3.6496875 2.2884375 3.6496875 1.5625 4.3125 C-0.23686957 6.02309613 -0.23686957 6.02309613 -1 9 C-1.66 9 -2.32 9 -3 9 C-3.36923077 3.46153846 -3.36923077 3.46153846 -1.5 1.125 C-1.005 0.75375 -0.51 0.3825 0 0 Z " fill="#050E1D" transform="translate(1879,1221)"/>
<path d="M0 0 C2.0625 0.4375 2.0625 0.4375 4 1 C4.33 2.98 4.66 4.96 5 7 C4.01 7 3.02 7 2 7 C1.01 5.02 0.02 3.04 -1 1 C-0.67 0.67 -0.34 0.34 0 0 Z " fill="#0A1422" transform="translate(1731,1222)"/>
<path d="M0 0 C1.08667969 0.29197266 1.08667969 0.29197266 2.1953125 0.58984375 C2.74960938 0.74582031 3.30390625 0.90179687 3.875 1.0625 C3.875 1.3925 3.875 1.7225 3.875 2.0625 C0.905 2.7225 -2.065 3.3825 -5.125 4.0625 C-5.125 3.4025 -5.125 2.7425 -5.125 2.0625 C-6.445 2.3925 -7.765 2.7225 -9.125 3.0625 C-5.90917185 -0.29950216 -4.56743551 -1.25236135 0 0 Z " fill="#1A2734" transform="translate(1787.125,1220.9375)"/>
<path d="M0 0 C-0.99 1.485 -0.99 1.485 -2 3 C-3.9453125 3.29296875 -3.9453125 3.29296875 -6.125 3.1875 C-7.40375 3.125625 -8.6825 3.06375 -10 3 C-10 2.34 -10 1.68 -10 1 C-3.71428571 -1.42857143 -3.71428571 -1.42857143 0 0 Z " fill="#212936" transform="translate(1359,1250)"/>
<path d="M0 0 C0 0.99 0 1.98 0 3 C-1.98 3.66 -3.96 4.32 -6 5 C-6.66 4.34 -7.32 3.68 -8 3 C-7 1 -7 1 -4.5625 -0.1875 C-2 -1 -2 -1 0 0 Z " fill="#131F2D" transform="translate(1045,1247)"/>
<path d="M0 0 C0.33 0 0.66 0 1 0 C1 2.64 1 5.28 1 8 C-0.98 8.99 -0.98 8.99 -3 10 C-3 7.36 -3 4.72 -3 2 C-2.34 2 -1.68 2 -1 2 C-0.67 1.34 -0.34 0.68 0 0 Z " fill="#192735" transform="translate(1664,1236)"/>
<path d="M0 0 C0 3.3 0 6.6 0 10 C-0.99 9.67 -1.98 9.34 -3 9 C-3 6.36 -3 3.72 -3 1 C-1 0 -1 0 0 0 Z " fill="#000816" transform="translate(981,1231)"/>
<path d="M0 0 C1.32 0.33 2.64 0.66 4 1 C4 3.31 4 5.62 4 8 C3.01 8.495 3.01 8.495 2 9 C1.34 6.03 0.68 3.06 0 0 Z " fill="#040C1C" transform="translate(1498,1228)"/>
<path d="M0 0 C1.65 0 3.3 0 5 0 C5 1.65 5 3.3 5 5 C3.35 5 1.7 5 0 5 C0 3.35 0 1.7 0 0 Z " fill="#222E3A" transform="translate(1275,1210)"/>
<path d="M0 0 C1.65 0 3.3 0 5 0 C5 1.65 5 3.3 5 5 C3.35 5 1.7 5 0 5 C0 3.35 0 1.7 0 0 Z " fill="#232E3A" transform="translate(961,1210)"/>
<path d="M0 0 C0.33 0.99 0.66 1.98 1 3 C1.66 3.33 2.32 3.66 3 4 C2.34 5.32 1.68 6.64 1 8 C-0.32 7.67 -1.64 7.34 -3 7 C-2.01 4.69 -1.02 2.38 0 0 Z " fill="#111D2B" transform="translate(787,1244)"/>
<path d="M0 0 C2.875 -0.125 2.875 -0.125 6 0 C6.66 0.66 7.32 1.32 8 2 C7 3 7 3 5.15234375 3.09765625 C3.1015625 3.06510417 1.05078125 3.03255208 -1 3 C-0.67 2.01 -0.34 1.02 0 0 Z " fill="#242C39" transform="translate(1585,1250)"/>
<path d="M0 0 C0.66 0 1.32 0 2 0 C2.66 2.64 3.32 5.28 4 8 C3.01 8.33 2.02 8.66 1 9 C0 8 0 8 -0.09765625 6.15234375 C-0.06510417 4.1015625 -0.03255208 2.05078125 0 0 Z " fill="#202936" transform="translate(1469,1231)"/>
<path d="M0 0 C2.32472205 2.85306797 3.7508258 5.54074837 5 9 C3.68 9 2.36 9 1 9 C-0.125 5.25 -0.125 5.25 1 3 C0.34 2.67 -0.32 2.34 -1 2 C-0.67 1.34 -0.34 0.68 0 0 Z " fill="#07111F" transform="translate(1582,1219)"/>
<path d="M0 0 C2.0625 0.4375 2.0625 0.4375 4 1 C2.02 3.97 2.02 3.97 0 7 C-0.66 6.67 -1.32 6.34 -2 6 C-1.125 1.125 -1.125 1.125 0 0 Z " fill="#06111F" transform="translate(1134,1215)"/>
<path d="M0 0 C0 0.66 0 1.32 0 2 C-2.97 2 -5.94 2 -9 2 C-9 1.34 -9 0.68 -9 0 C-5.52176885 -1.15941038 -3.54104422 -0.70820884 0 0 Z " fill="#2F3743" transform="translate(1399,1251)"/>
<path d="M0 0 C0.99 0.33 1.98 0.66 3 1 C3 2.98 3 4.96 3 7 C2.34 6.01 1.68 5.02 1 4 C0.01 4.33 -0.98 4.66 -2 5 C-2.33 4.01 -2.66 3.02 -3 2 C-2.01 1.34 -1.02 0.68 0 0 Z " fill="#293642" transform="translate(1405,1245)"/>
<path d="M0 0 C1.98 0.99 1.98 0.99 4 2 C3.67 4.64 3.34 7.28 3 10 C2.67 10 2.34 10 2 10 C0.68373308 6.38026598 0 3.90432869 0 0 Z " fill="#020918" transform="translate(1660,1233)"/>
<path d="M0 0 C2.625 1.4375 2.625 1.4375 5 3 C4.34 4.32 3.68 5.64 3 7 C0.9754262 5.06745228 -0.42105792 3.36841312 -2 1 C-1.34 0.67 -0.68 0.34 0 0 Z " fill="#121E2B" transform="translate(1835,1220)"/>
<path d="M0 0 C0 0.66 0 1.32 0 2 C-2.97 2 -5.94 2 -9 2 C-9 1.34 -9 0.68 -9 0 C-5.67465243 -1.10844919 -3.37817425 -0.84454356 0 0 Z " fill="#323A46" transform="translate(911,1251)"/>
<path d="M0 0 C2.64 0 5.28 0 8 0 C8 0.99 8 1.98 8 3 C6.02 3 4.04 3 2 3 C2 2.34 2 1.68 2 1 C1.34 0.67 0.68 0.34 0 0 Z " fill="#07101E" transform="translate(690,1249)"/>
<path d="M0 0 C-1.625 1.5625 -1.625 1.5625 -4 3 C-7.25 2.6875 -7.25 2.6875 -10 2 C-7.20652751 -0.79347249 -3.65536205 -1.82768103 0 0 Z " fill="#040D1C" transform="translate(1162,1248)"/>
<path d="M0 0 C1.32 0 2.64 0 4 0 C3.39816251 2.02045442 2.72693904 4.02111039 2 6 C1.01 6.495 1.01 6.495 0 7 C0 4.69 0 2.38 0 0 Z " fill="#0C1725" transform="translate(1164,1238)"/>
<path d="M0 0 C2.00885335 0.52002232 3.98454087 1.16411779 5.953125 1.8203125 C5.953125 2.1503125 5.953125 2.4803125 5.953125 2.8203125 C3.643125 3.1503125 1.333125 3.4803125 -1.046875 3.8203125 C-1.046875 3.1603125 -1.046875 2.5003125 -1.046875 1.8203125 C-2.696875 2.4803125 -4.346875 3.1403125 -6.046875 3.8203125 C-3.15469741 -0.27693909 -3.15469741 -0.27693909 0 0 Z " fill="#232F3C" transform="translate(863.046875,1220.1796875)"/>
<path d="M0 0 C1.32 0 2.64 0 4 0 C4 1.65 4 3.3 4 5 C2.68 5 1.36 5 0 5 C0 3.35 0 1.7 0 0 Z " fill="#0B1422" transform="translate(708,1210)"/>
<path d="M0 0 C1.32 0 2.64 0 4 0 C4 1.65 4 3.3 4 5 C2.68 5 1.36 5 0 5 C0 3.35 0 1.7 0 0 Z " fill="#0B1422" transform="translate(1453,1210)"/>
<path d="M0 0 C1.32 0 2.64 0 4 0 C4 1.65 4 3.3 4 5 C2.68 5 1.36 5 0 5 C0 3.35 0 1.7 0 0 Z " fill="#0B1523" transform="translate(1321,1210)"/>
<path d="M0 0 C0.99 0.99 1.98 1.98 3 3 C2.34 4.98 1.68 6.96 1 9 C0.34 8.67 -0.32 8.34 -1 8 C-0.67 5.36 -0.34 2.72 0 0 Z " fill="#182633" transform="translate(1687,1249)"/>
<path d="M0 0 C2.475 0.495 2.475 0.495 5 1 C5.33 1.99 5.66 2.98 6 4 C2.25 5.125 2.25 5.125 0 4 C0 2.68 0 1.36 0 0 Z " fill="#172331" transform="translate(1642,1247)"/>
<path d="M0 0 C3.24208567 0.35049575 4.61527704 0.56221181 6.8125 3.0625 C7.204375 3.701875 7.59625 4.34125 8 5 C5.6875 5.3125 5.6875 5.3125 3 5 C1.1875 2.5 1.1875 2.5 0 0 Z " fill="#06101F" transform="translate(1589,1234)"/>
<path d="M0 0 C1.98 0.495 1.98 0.495 4 1 C3.34 2.32 2.68 3.64 2 5 C1.01 5 0.02 5 -1 5 C-0.67 3.35 -0.34 1.7 0 0 Z " fill="#182532" transform="translate(979,1227)"/>
<path d="M0 0 C0.66 0.66 1.32 1.32 2 2 C1.01 2.99 0.02 3.98 -1 5 C-2.32 4.34 -3.64 3.68 -5 3 C-3.35 2.01 -1.7 1.02 0 0 Z " fill="#030E1C" transform="translate(1497,1245)"/>
<path d="M0 0 C1.32 0 2.64 0 4 0 C3.34 1.65 2.68 3.3 2 5 C0.68 4.34 -0.64 3.68 -2 3 C-1.34 2.01 -0.68 1.02 0 0 Z " fill="#0E1926" transform="translate(1204,1242)"/>
<path d="M0 0 C0.66 1.32 1.32 2.64 2 4 C1.01 4.99 0.02 5.98 -1 7 C-1.66 5.02 -2.32 3.04 -3 1 C-2.01 0.67 -1.02 0.34 0 0 Z " fill="#14212F" transform="translate(981,1239)"/>
<path d="M0 0 C0.99 0.33 1.98 0.66 3 1 C2.67 2.32 2.34 3.64 2 5 C0.02 4.34 -1.96 3.68 -4 3 C-2.1875 1.4375 -2.1875 1.4375 0 0 Z " fill="#142331" transform="translate(1731,1235)"/>
<path d="M0 0 C1.98 0 3.96 0 6 0 C6 0.99 6 1.98 6 3 C3.69 3 1.38 3 -1 3 C-0.67 2.01 -0.34 1.02 0 0 Z " fill="#000716" transform="translate(1232,1220)"/>
<path d="M0 0 C2.64 0 5.28 0 8 0 C8 0.66 8 1.32 8 2 C5.6875 2.6875 5.6875 2.6875 3 3 C1.1875 1.5625 1.1875 1.5625 0 0 Z " fill="#05101F" transform="translate(1385,1249)"/>
<path d="M0 0 C0.99 0.33 1.98 0.66 3 1 C3 4.63 3 8.26 3 12 C2.67 12 2.34 12 2 12 C1.34 8.04 0.68 4.08 0 0 Z " fill="#33404C" transform="translate(1379,1228)"/>
<path d="M0 0 C1.65 0.33 3.3 0.66 5 1 C3.75 2.5625 3.75 2.5625 2 4 C-0.1875 3.6875 -0.1875 3.6875 -2 3 C-1.34 2.01 -0.68 1.02 0 0 Z " fill="#091322" transform="translate(1345,1221)"/>
<path d="M0 0 C2.475 0.99 2.475 0.99 5 2 C4.34 2.66 3.68 3.32 3 4 C-0.125 3.625 -0.125 3.625 -3 3 C-2.01 2.01 -1.02 1.02 0 0 Z " fill="#0B1826" transform="translate(999,1220)"/>
<path d="M0 0 C0.515625 0.37125 1.03125 0.7425 1.5625 1.125 C-1.35458924 3.10862069 -2.56130904 3.1126191 -6.1875 2.75 C-7.26 2.54375 -8.3325 2.3375 -9.4375 2.125 C-9.4375 1.795 -9.4375 1.465 -9.4375 1.125 C-3.0375 -1.09038462 -3.0375 -1.09038462 0 0 Z " fill="#24323F" transform="translate(1731.4375,1220.875)"/>
</svg>
