<?xml version="1.0" standalone="no"?>
<!DOCTYPE svg PUBLIC "-//W3C//DTD SVG 20010904//EN"
 "http://www.w3.org/TR/2001/REC-SVG-20010904/DTD/svg10.dtd">
<svg version="1.0" xmlns="http://www.w3.org/2000/svg"
 width="193.000000pt" height="47.000000pt" viewBox="0 0 193.000000 47.000000"
 preserveAspectRatio="xMidYMid meet">

<rect width="100%" height="100%" fill="white"/>
<g transform="translate(0.000000,553.000000) scale(0.100000,-0.100000)"
fill="#000000" stroke="none">
<path d="M232 457 c-51 -19 -102 -66 -123 -111 -21 -46 -25 -129 -8 -173 21
-57 117 -133 169 -133 19 0 20 6 20 119 l0 120 -47 3 -48 3 -3 58 c-4 75 11
74 63 -3 l40 -60 92 0 c51 0 93 -2 93 -5 0 -2 -33 -55 -74 -117 -63 -95 -72
-113 -56 -116 27 -5 93 32 127 72 89 100 62 260 -55 324 -51 28 -142 37 -190
19z"/>
<path d="M587 444 c-4 -4 -7 -81 -7 -171 l0 -163 110 0 110 0 0 40 0 40 -60 0
-59 0 -3 128 -3 127 -40 3 c-23 2 -44 0 -48 -4z"/>
<path d="M953 438 c-10 -12 -133 -311 -133 -323 0 -3 22 -5 48 -5 44 0 49 2
59 31 11 29 13 30 70 27 52 -3 59 -6 71 -30 12 -25 18 -28 62 -28 l50 0 -17
43 c-9 23 -40 98 -68 167 l-52 125 -40 3 c-24 2 -44 -2 -50 -10z m66 -147 c18
-54 15 -61 -24 -61 -41 0 -41 0 -18 63 18 51 24 51 42 -2z"/>
<path d="M1265 426 c-40 -18 -70 -53 -86 -101 -19 -56 -18 -64 11 -119 33 -63
75 -86 155 -86 67 0 104 18 136 66 25 39 24 44 -12 44 -21 0 -43 -10 -66 -30
-51 -45 -107 -36 -143 22 -28 47 -25 81 11 123 27 30 36 35 72 33 28 -1 49 -9
65 -25 15 -15 35 -23 58 -23 34 0 34 0 20 28 -28 54 -66 77 -131 80 -35 1 -72
-4 -90 -12z"/>
<path d="M1614 426 c-35 -15 -44 -33 -44 -80 0 -42 24 -63 96 -85 64 -19 85
-41 68 -68 -15 -24 -67 -29 -84 -9 -16 20 -80 22 -80 2 0 -8 9 -24 19 -37 17
-22 27 -24 101 -24 74 0 84 2 101 24 22 27 25 89 7 114 -7 10 -44 27 -83 40
-48 15 -71 28 -73 40 -8 40 51 64 78 32 16 -19 80 -20 80 -2 0 8 -11 24 -25
37 -31 29 -114 37 -161 16z"/>
</g>
</svg>